<svg width="1920" height="943" viewBox="0 0 1920 943" fill="none" xmlns="http://www.w3.org/2000/svg">
<g clip-path="url(#clip0_157_170)">
<rect width="1920" height="943" fill="white"/>
<g opacity="0.12">
<path fill-rule="evenodd" clip-rule="evenodd" d="M1876.44 908.798H1879.94L1853.49 859.81C1839.65 847.063 1820.74 839.35 1800.07 839.35C1781.15 839.35 1763.98 845.893 1750.67 856.623L1722.46 908.798H1727.54V920.706H1660.98V908.798H1669.74L1724.57 807.313V792.048H1736.3L1755.75 738.696V737.518H1756.1L1761.53 722.423H1759.44V708.328H1765.57V705.65H1756.45V690.377H1770.3C1780.63 612.878 1785.53 479.678 1787.11 437.071H1786.76V433.715H1787.29L1787.46 425.494H1785.01V411.738H1791.32V394.796H1798.68V370.81H1801.13V348.833H1803.93V370.81H1806.55V394.796H1813.73V411.738H1820.22V425.494H1817.59L1817.93 433.715H1818.29V437.071H1818.11C1818.99 461.057 1820.74 514.071 1824.24 569.763L1824.42 570.263L1824.24 570.433C1826.34 604.156 1828.97 638.541 1832.12 668.07C1833 676.121 1834.04 683.334 1834.74 690.377H1848.76V705.65H1839.65V708.328H1845.61V722.423H1844.21L1849.64 737.518L1869.43 792.04H1875.56V806.296L1876.79 805.788L1932.49 908.79H1943V920.698H1876.44V908.79V908.798ZM1741.21 788.514L1758.9 778.615L1748.56 769.055L1741.21 788.514ZM1751.2 761.173L1766.96 751.273L1758.03 742.713L1751.2 761.165V761.173ZM1760.48 736.009L1772.04 728.958L1765.04 723.262L1760.48 736.009ZM1840.35 722.415H1839.83L1833.17 728.458L1844.91 735.001L1840.35 722.423V722.415ZM1847.88 742.891L1839.65 750.943L1853.84 759.494L1847.88 742.891ZM1857.17 768.393L1845.95 778.623L1864.7 789.023L1857.17 768.393ZM1800.59 425.494L1796.39 428.85L1792.18 425.494H1800.59ZM1795.16 430.028L1790.26 433.715L1790.61 426.164L1795.16 430.028ZM1792.54 433.715L1796.04 430.867L1799.19 433.715H1792.54ZM1797.44 429.859L1800.94 427.172V432.876L1797.44 429.859ZM1800.94 437.402L1795.69 442.606L1790.25 437.071H1800.94V437.402ZM1794.29 443.945L1789.91 448.479L1790.08 439.419L1794.29 443.945ZM1789.9 450.658L1795.5 445.123L1800.58 450.658H1789.9ZM1796.73 443.784L1800.93 439.588V448.14L1796.73 443.784ZM1800.94 454.014L1795.33 459.379L1790.25 453.844H1800.94V454.014ZM1793.76 460.557L1789.21 465.252L1789.55 455.692L1793.76 460.557ZM1789.03 467.6L1795.16 461.896L1800.24 467.769H1789.03V467.6ZM1796.39 460.557L1800.94 456.192V465.583L1796.39 460.549V460.557ZM1800.94 471.295L1795.16 476.66L1789.73 470.956H1800.94V471.295ZM1793.58 477.999L1788.5 482.695V481.686L1788.85 472.957L1793.58 477.991V477.999ZM1788.85 484.542L1794.81 479.169L1799.89 484.542H1788.85ZM1796.04 477.999L1800.94 473.635V483.026L1796.04 477.991V477.999ZM1800.94 488.907L1795.16 493.772L1788.85 487.729H1800.59L1800.94 487.899V488.907ZM1793.58 494.942L1787.8 499.637L1788.32 489.738L1793.58 494.934V494.942ZM1787.98 501.654L1794.81 496.12L1800.41 501.654H1787.98ZM1796.04 494.942L1800.94 491.086V499.476L1796.04 494.942ZM1804.27 488.399L1804.79 487.729H1816.53L1810.58 493.772L1804.28 488.568V488.399H1804.27ZM1800.94 505.011L1794.29 510.376L1788.51 504.841H1800.94V505.011ZM1792.88 511.554L1787.1 516.249L1787.45 506.35L1792.88 511.554ZM1786.75 518.427L1794.11 512.723L1800.07 518.766H1786.75V518.427ZM1795.51 511.554L1800.59 507.189V516.749L1795.51 511.554ZM1800.41 522.122L1793.76 527.657L1787.8 521.784H1800.41V522.122ZM1792.36 528.835L1786.23 534.039L1786.58 523.3L1792.36 528.835ZM1786.75 535.539L1793.58 530.005L1799.36 535.539H1786.75ZM1795.16 528.835L1800.42 524.309V529.674L1800.24 532.361V534.039L1795.16 528.835ZM1787.1 521.784L1786.58 523.292L1786.75 521.784H1787.1ZM1799.71 538.726L1793.41 544.099L1787.8 538.726H1799.71ZM1791.84 545.439L1785.18 551.143L1785.7 539.735L1791.84 545.439ZM1786.4 552.651L1793.23 546.608L1799.71 552.651H1786.4ZM1794.81 545.269L1800.24 540.743L1800.07 543.591V547.956L1799.89 549.973L1794.81 545.277V545.269ZM1798.66 555.838L1792.53 560.703L1787.45 555.838H1798.66ZM1790.78 562.389L1784.13 567.593L1785 556.516L1790.78 562.389ZM1785.18 569.594L1792.36 563.72L1798.14 569.594H1785.17H1785.18ZM1794.29 562.389L1799.71 557.686V559.872L1799.36 567.415L1794.28 562.389H1794.29ZM1799.19 572.789L1792.54 578.154L1787.28 572.789H1799.19ZM1790.78 579.493L1783.08 585.875L1783.96 572.789L1790.79 579.493H1790.78ZM1785.7 586.544L1792.36 581.179L1797.96 586.544H1785.7ZM1794.29 579.493L1799.19 575.636V576.314L1799.01 577.153V581.518L1798.84 584.196L1794.28 579.501L1794.29 579.493ZM1797.62 589.723L1791.31 594.588L1786.41 589.723H1797.62H1797.62ZM1789.55 596.266L1781.85 602.47L1782.9 589.715L1789.55 596.258V596.266ZM1784.12 603.479L1791.13 597.775L1797.08 603.479H1784.12ZM1793.06 596.266L1798.66 591.57L1798.48 593.418V594.757L1798.14 601.131L1793.06 596.266ZM1796.39 606.673L1789.73 611.877L1784.48 606.673H1796.39ZM1787.8 613.216L1780.62 618.751L1781.68 606.835L1787.81 613.216H1787.8ZM1782.02 620.429L1789.55 614.895L1794.81 620.429H1782.02ZM1791.14 613.378L1797.79 608.513C1797.62 612.039 1797.45 615.895 1797.09 619.421L1791.14 613.386V613.378ZM1795.86 623.785L1789.21 628.642L1784.13 623.785H1795.86ZM1787.46 630.159L1779.23 636.363C1779.58 632.337 1779.92 627.973 1780.28 623.785H1780.98L1787.46 630.159ZM1781.67 637.372L1788.85 631.668L1794.46 637.372H1781.67ZM1790.78 630.328L1796.74 625.794C1796.56 629.15 1796.39 632.507 1796.04 635.693L1790.78 630.328ZM1793.06 640.558L1787.28 645.084L1782.9 640.558H1793.06ZM1785.35 646.593L1777.64 652.297C1778.16 648.61 1778.52 644.584 1778.69 640.558H1779.56L1785.34 646.593H1785.35ZM1778.69 654.483L1786.75 648.11L1793.23 654.483H1778.69ZM1788.68 646.763L1795.69 641.406C1795.34 645.093 1795.16 649.118 1794.63 652.636L1788.68 646.763ZM1793.41 657.67L1785.7 663.374L1780.27 657.67H1793.41ZM1783.95 664.713L1776.42 670.756H1775.89C1776.24 666.561 1776.59 662.204 1777.12 657.84L1783.96 664.713H1783.95ZM1779.92 670.748L1785.53 666.392L1789.73 670.748H1779.92H1779.92ZM1787.46 665.044L1794.11 660.01C1793.59 663.544 1793.23 667.231 1792.88 670.409L1787.45 665.044H1787.46ZM1792.01 673.943L1783.43 680.647L1776.95 673.943H1792.02H1792.01ZM1781.67 681.987L1773.78 688.03C1774.14 684.004 1774.84 679.808 1775.18 675.613L1781.66 681.987H1781.67ZM1774.14 690.377L1783.07 683.665L1789.02 689.708V689.877L1788.85 690.377H1774.14ZM1785 682.164L1791.84 676.96C1791.14 680.656 1790.61 684.173 1789.91 687.199L1785 682.164ZM1804.97 425.494L1809.34 428.85L1813.38 425.494H1804.97ZM1810.58 430.028L1814.78 433.215L1814.61 426.502L1810.58 430.028ZM1812.85 433.715L1809.52 430.867L1806.2 433.715H1812.85ZM1808.12 429.859L1804.27 426.672V433.215L1808.12 429.859ZM1804.27 437.071L1810.04 442.606L1814.95 437.241V437.071H1804.27ZM1811.28 443.945L1815.13 447.971L1814.95 440.089L1811.28 443.945ZM1815.3 450.319L1810.23 445.115L1804.79 450.649H1815.3V450.311V450.319ZM1808.82 443.784L1804.27 439.25V448.649L1808.82 443.784ZM1804.62 453.844L1810.39 459.379L1815.12 453.844H1804.61H1804.62ZM1811.62 460.557L1815.83 464.583L1815.65 456.192L1811.62 460.557ZM1816.01 466.93L1810.58 461.896L1805.5 467.769H1816.01V466.93ZM1809.17 460.557L1804.28 455.861V466.43L1809.17 460.557ZM1804.27 470.956L1810.57 476.66L1816 470.956H1804.27ZM1811.98 477.999L1816.53 482.025L1816.17 473.473L1811.98 478.008V477.999ZM1816.53 484.542L1810.75 479.169L1805.85 484.542H1816.53ZM1809.34 477.999L1804.27 473.304V483.542L1809.34 478.008V477.999ZM1811.98 494.942L1817.24 499.307L1816.88 490.077L1811.99 494.942H1811.98ZM1817.41 501.485L1810.76 496.12L1804.98 501.654H1817.41V501.485ZM1809.34 494.942L1804.27 490.747V499.807L1809.34 494.942ZM1804.62 504.841L1811.45 510.376L1817.23 504.841H1804.62ZM1812.85 511.554L1818.11 515.918L1817.59 507.028L1812.85 511.562V511.554ZM1818.11 518.097L1811.63 512.723L1805.68 518.766H1818.29L1818.11 518.097ZM1810.23 511.554L1804.45 506.858V517.088L1810.23 511.554ZM1804.62 521.784L1811.8 527.657L1817.93 521.784H1804.62H1804.62ZM1813.38 528.835L1818.99 533.53L1818.46 523.801L1813.38 528.835ZM1818.99 535.539L1811.98 530.005L1806.2 535.539H1818.99ZM1810.58 528.835L1804.62 523.801V529.674L1804.8 532.361V534.378L1810.58 528.843V528.835ZM1806.02 538.726L1811.98 544.099L1817.58 538.726H1806.01H1806.02ZM1813.72 545.439L1819.86 550.642L1819.32 540.243L1813.72 545.439ZM1819.33 552.651L1812.5 546.608L1806.02 552.651H1819.33ZM1810.76 545.269L1804.8 540.235L1804.98 543.591V547.956L1805.15 550.473L1810.76 545.269ZM1806.9 555.838L1813.03 560.703L1818.11 555.838H1806.9ZM1814.78 562.389L1820.73 567.085L1820.21 557.016L1814.78 562.389ZM1820.39 569.594L1813.38 563.72L1807.24 569.594H1820.39ZM1811.46 562.389L1805.15 557.355L1805.5 559.872L1805.68 567.924L1811.46 562.389ZM1806.54 572.789L1812.85 578.154L1818.46 572.789H1806.54ZM1814.78 579.493L1821.95 585.536L1821.08 573.458L1814.78 579.493ZM1819.86 586.544L1813.38 581.179L1807.77 586.544H1819.86H1819.86ZM1811.46 579.493L1805.85 575.136V576.314L1806.03 577.153V581.518L1806.21 584.705L1811.46 579.509L1811.46 579.493ZM1808.12 589.723L1814.08 594.588L1819.33 589.723H1808.12ZM1816.01 596.266L1823.19 601.97L1822.48 590.054L1816.01 596.266ZM1821.61 603.479L1814.6 597.775L1808.47 603.479H1821.61ZM1812.68 596.266L1806.54 591.232L1806.72 593.41V594.749L1806.9 601.792L1812.68 596.258V596.266ZM1809.17 606.673L1816.01 611.877L1820.91 606.673H1809.17ZM1817.93 613.216L1824.24 618.42L1823.36 607.521L1817.93 613.225V613.216ZM1823.36 620.429L1816.17 614.895L1810.57 620.429H1823.35H1823.36ZM1814.25 613.378L1807.24 607.843C1807.42 612.039 1807.77 616.064 1807.94 619.921L1814.24 613.378H1814.25ZM1809.7 623.785L1816.35 628.642L1821.43 623.785H1809.7ZM1818.28 630.159L1825.99 636.032C1825.47 631.837 1825.11 627.973 1824.94 623.785H1824.77L1818.29 630.159H1818.28ZM1824.07 637.372L1816.53 631.668L1811.1 637.372H1824.07ZM1814.78 630.328L1808.3 625.294C1808.47 628.989 1808.82 632.676 1809 636.202L1814.78 630.328ZM1812.68 640.558L1818.46 645.084L1822.84 640.558H1812.68ZM1820.39 646.593L1827.39 651.966C1827.04 648.11 1826.51 644.415 1826.34 640.558H1826.16L1820.39 646.593ZM1827.04 654.483L1818.63 648.11L1812.5 654.483H1827.04ZM1816.87 646.763L1809.34 640.728C1809.52 645.092 1810.04 649.288 1810.39 653.306L1816.86 646.763H1816.87ZM1812.32 657.67L1819.68 663.374L1825.46 657.67H1812.32ZM1821.61 664.713L1829.32 670.756C1828.79 666.73 1828.44 662.543 1827.92 658.509L1821.61 664.713ZM1825.47 670.748L1820.21 666.392L1815.83 670.748H1825.47ZM1818.28 665.044L1811.1 659.51C1811.45 663.366 1811.8 667.231 1812.5 670.748L1818.28 665.044ZM1813.55 673.943L1822.13 680.647L1828.61 673.943H1813.55H1813.55ZM1824.07 681.987L1831.24 687.521C1830.9 683.826 1830.19 679.97 1829.84 676.113L1824.06 681.987H1824.07ZM1831.24 690.377L1822.48 683.665L1816.01 690.208L1816.18 690.377H1831.25H1831.24ZM1820.55 682.164L1813.38 676.46C1813.9 680.656 1814.61 684.343 1815.3 687.529L1820.55 682.164ZM1762.76 737.518H1782.38L1774.15 730.813L1762.76 737.518ZM1782.72 722.415L1774.15 727.618L1768.01 722.415H1782.72ZM1776.24 729.466L1787.63 722.415H1789.21L1787.11 737.51H1786.41L1776.24 729.466ZM1831.07 730.136L1822.83 737.518H1844.38L1831.07 730.136ZM1822.13 722.415L1830.89 727.28L1836.32 722.415H1822.12H1822.13ZM1828.78 728.958L1816.53 722.415L1819.16 737.51L1828.78 728.95V728.958ZM1753.3 764.021H1780.45L1769.58 753.791L1753.29 764.021H1753.3ZM1783.77 740.704L1769.59 749.595L1760.3 740.704H1783.77ZM1772.39 752.112L1786.06 743.73L1782.9 762.35L1772.39 752.12V752.112ZM1836.86 753.452L1825.82 764.021H1854.89L1836.86 753.452ZM1822.48 740.704L1836.86 749.256L1845.78 740.704H1822.48ZM1834.22 751.774L1819.86 743.222L1822.83 761.173L1823.01 762.52L1834.22 751.782V751.774ZM1843.16 781.132L1831.59 792.04H1861.89L1843.16 781.132ZM1826.34 767.215L1842.99 776.776L1853.32 767.215H1826.34ZM1840 779.624L1824.41 770.564L1827.74 790.862L1840 779.624ZM1742.96 792.04H1773.61L1761.7 781.132L1742.96 792.04ZM1778.53 767.215L1762.06 776.776L1751.55 767.215H1778.53ZM1764.86 779.624L1781.68 770.055L1778.18 791.701L1764.87 779.624H1764.86ZM1834.22 824.086V829.289C1835.45 829.79 1836.68 830.298 1837.73 830.629L1834.22 824.086ZM1832.82 828.773V821.391L1830.55 817.196V827.934L1832.82 828.773ZM1828.96 827.603V814.517L1827.56 811.831H1826.69V826.756L1828.96 827.595V827.603ZM1825.11 826.256V811.831H1823.01V825.756L1825.11 826.256ZM1821.43 825.586V811.831H1819.16V824.917L1821.43 825.586ZM1817.58 824.755V811.839H1815.3V824.424L1817.58 824.755ZM1813.9 824.086V811.839H1811.62V823.747L1813.9 824.086ZM1810.23 823.577V811.839H1807.94V823.416L1810.23 823.577ZM1806.54 823.416V811.839H1804.27V823.247L1806.54 823.416ZM1802.69 823.247V811.839H1800.42V823.247H1802.69ZM1798.85 823.247V811.839H1796.74V823.247H1798.85ZM1795.16 823.247V811.839H1792.89V823.416L1795.16 823.247ZM1791.31 823.577V811.839H1789.03V823.747L1791.31 823.577ZM1787.63 823.916V811.839H1785.36V824.086L1787.63 823.916ZM1783.95 824.586V811.839H1781.67V824.925L1783.95 824.586ZM1780.27 825.094V811.839H1778V825.764L1780.27 825.094ZM1776.42 826.095V811.839H1774.84L1774.15 813.017V826.772L1776.42 826.103V826.095ZM1772.57 827.103V815.856L1770.46 820.052V827.765L1772.57 827.095V827.103ZM1885.89 904.941L1895 893.872L1875.38 885.482L1885.89 904.941ZM1898.33 890.177L1907.26 879.609H1873.8L1898.33 890.177ZM1910.59 882.795L1902.88 892.194L1919.52 899.068L1910.59 882.795ZM1899.56 895.881L1888.87 908.798H1924.61L1923.03 905.781L1899.56 895.881ZM1869.43 874.574L1879.58 867.7L1862.78 861.996L1869.43 874.574ZM1883.62 865.175L1893.08 858.971H1866.1L1883.62 865.175ZM1898.16 859.641L1887.82 866.522L1904.99 872.396L1898.16 859.641ZM1883.62 869.209L1872.94 876.422H1904.29L1883.63 869.209H1883.62ZM1862.78 855.784H1892.37L1872.93 849.072L1862.77 855.784H1862.78ZM1858.57 854.445L1868.73 847.732L1851.75 841.867L1858.58 854.445H1858.57ZM1872.94 844.884L1882.92 838.341H1853.84L1872.94 844.884ZM1887.12 839.681L1877.15 846.393L1893.95 852.267L1887.12 839.681ZM1848.24 835.316H1884.85L1881.51 829.112H1844.91L1848.24 835.316ZM1716.16 905.272L1706.88 893.864L1727.02 885.474L1716.16 905.272ZM1703.55 890.177L1694.8 879.609H1728.25L1703.55 890.177ZM1691.64 882.965L1699 892.194L1683.05 898.907L1691.64 882.973V882.965ZM1702.33 895.881L1713.19 908.798H1677.8L1679.37 905.619L1702.33 895.881ZM1732.8 874.744L1722.46 867.7L1739.63 861.827L1732.8 874.744ZM1718.26 865.175L1708.98 858.971H1735.95L1718.25 865.175H1718.26ZM1704.25 859.81L1714.24 866.522L1697.43 872.396L1704.26 859.81H1704.25ZM1718.26 869.209L1729.12 876.422H1697.59L1718.25 869.209H1718.26ZM1739.29 855.784H1709.68L1729.12 849.072L1739.29 855.784ZM1879.76 825.925H1843.16L1835.63 811.831H1872.24L1879.77 825.925H1879.76ZM1743.48 854.614L1733.15 847.732L1750.67 841.867L1743.48 854.614ZM1729.12 844.884L1719.14 838.341H1748.04L1729.12 844.884ZM1714.94 839.85L1724.92 846.393L1708.29 852.097L1714.94 839.85ZM1754.17 835.316H1717.38L1720.71 829.112H1757.49L1754.16 835.316H1754.17ZM1759.08 825.925H1722.47L1730.18 811.831H1766.79L1759.08 825.925ZM1791.66 731.652H1814.61L1824.24 792.04H1781.68L1786.58 761.173L1791.66 731.652ZM1813.9 728.458H1792L1793.06 722.415H1812.85L1813.91 728.458H1813.9ZM1768.88 828.273V822.738L1765.03 829.79C1766.25 829.112 1767.48 828.781 1768.88 828.273ZM1845.43 844.715L1843.51 841.189C1830.72 833.977 1816.01 829.959 1800.07 829.959C1785.53 829.959 1771.69 833.477 1759.77 839.681L1758.02 843.045C1770.46 836.333 1784.82 832.307 1800.06 832.307C1816.86 832.307 1832.11 836.841 1845.42 844.723L1845.43 844.715Z" fill="url(#paint0_linear_157_170)"/>
<path fill-rule="evenodd" clip-rule="evenodd" d="M1606.04 578.734H1601.69V548.988L1601.2 549.448L1600.47 548.988V558.508L1599.5 557.346L1598.53 558.976L1597.55 560.606L1596.34 558.976L1595.37 557.346L1594.16 558.976L1593.19 560.606L1591.97 558.976L1591.01 557.346L1589.79 558.976L1588.82 560.606L1587.85 558.976L1586.63 557.346L1585.66 558.976L1584.45 560.606L1583.48 558.976L1582.27 557.346L1581.31 558.976L1580.33 560.606L1579.11 558.976L1578.14 557.346L1576.93 558.976L1575.96 560.606L1574.75 558.976L1573.79 557.346L1572.57 558.976L1571.6 560.606L1570.62 558.976L1569.41 557.346L1568.44 558.976L1567.22 560.606L1566.26 558.976L1565.04 557.346L1564.07 558.976L1563.1 560.606L1561.88 558.976L1560.91 557.346L1559.7 558.976L1558.73 560.606L1557.52 558.976L1556.55 557.346L1555.34 558.976L1554.37 560.606L1553.4 558.976L1552.18 557.346L1551.21 558.976L1550 560.606L1549.03 558.976L1547.81 557.346L1546.85 558.976L1545.88 560.606L1544.66 558.976L1543.7 557.346L1542.47 558.976L1541.5 560.606L1540.29 558.976L1539.32 557.346L1538.11 558.976L1537.14 560.606L1536.17 558.976L1534.96 557.346L1533.98 558.976L1532.77 560.606L1531.8 558.976L1530.59 557.346L1529.62 558.976L1528.65 560.606L1527.44 558.976L1526.47 557.346L1525.48 558.742V548.988L1524.76 549.448L1524.02 548.988V578.734H1519.91V567.116L1519.43 567.81L1518.69 567.116V663.559H1607.26V567.116L1606.52 567.81L1606.03 567.116V578.734H1606.04ZM1608.72 942.198H1514.81V888.523H1608.72V942.198ZM1599.5 884.336V834.138H1595.61V884.336H1592.7V834.138H1588.57V884.336H1585.66V834.138H1581.78V884.336H1578.62V834.138H1574.74V884.336H1571.6V834.138H1567.7V884.336H1564.55V834.138H1560.67V884.336H1557.52V834.138H1553.64V884.336H1550.72V834.138H1546.59V884.336H1543.69V834.138H1539.8V884.336H1536.64V834.138H1532.76V884.336H1529.6V834.138H1525.73V884.336H1522.57V780.454H1602.65V884.336H1599.5ZM1595.61 831.346H1599.5V782.778H1595.61V831.346ZM1525.73 831.346H1529.61V782.778H1525.73V831.346ZM1532.76 831.346H1536.64V782.778H1532.76V831.346ZM1539.8 831.346H1543.69V782.778H1539.8V831.346ZM1546.6 831.346H1550.73V782.778H1546.6V831.346ZM1553.64 831.346H1557.52V782.778H1553.64V831.346ZM1560.67 831.346H1564.55V782.778H1560.67V831.346ZM1567.7 831.346H1571.6V782.778H1567.7V831.346ZM1574.75 831.346H1578.63V782.778H1574.75V831.346ZM1581.78 831.346H1585.66V782.778H1581.78V831.346ZM1588.57 831.346H1592.7V782.778H1588.57V831.346ZM1527.67 546.438L1524.76 544.107L1522.1 546.438L1524.76 549.222L1527.67 546.438ZM1603.86 546.438L1601.2 544.107L1598.53 546.438L1601.2 549.222L1603.86 546.438ZM1609.21 564.559L1606.53 562.235L1604.1 564.559L1606.53 567.35L1609.21 564.559ZM1521.84 564.559L1519.43 562.235L1516.75 564.559L1519.43 567.35L1521.84 564.559ZM1524.02 544.341V542.711H1525.48V544.341L1524.76 543.647L1524.02 544.341ZM1600.47 544.341V542.711H1601.69V544.341L1601.2 543.647L1600.47 544.341ZM1518.69 562.461V560.606H1519.91V562.235L1519.43 561.767L1518.69 562.461ZM1606.04 562.235V560.606H1607.26V562.461L1606.52 561.767L1606.03 562.235H1606.04ZM1543.93 530.868L1532.28 558.516L1532.52 558.75L1532.77 559.218L1534.96 556.201L1536.65 558.758L1537.14 559.226L1537.63 558.758L1539.32 556.201L1541.5 559.452L1541.99 558.75L1543.7 555.967L1545.14 558.75L1545.87 559.452L1547.81 556.201L1549.74 558.758L1549.99 559.226L1550.47 558.758L1552.17 556.201L1553.88 558.758L1554.36 559.226L1554.85 558.758L1556.55 556.201L1558.24 558.758L1558.73 559.46L1559.21 558.758L1560.91 555.975L1562.37 558.758L1563.1 559.46L1563.34 558.758L1565.03 556.201L1566.97 558.758L1567.22 559.226L1569.4 556.209L1571.11 558.766L1571.6 559.234L1572.08 558.766L1573.78 556.209L1575.96 559.46L1576.44 558.758L1578.14 555.975L1579.83 558.758L1580.33 559.46L1582.27 556.209L1584.22 558.766L1584.46 559.234L1586.64 556.217L1588.33 558.774L1588.82 559.242L1589.31 558.774L1591.01 556.217L1593.19 559.234L1593.43 558.766L1593.68 558.532L1582.03 530.884H1543.93V530.868ZM1547.81 549.682L1545.39 545.729L1544.66 544.801L1541.5 549.682L1542.47 550.15L1544.66 546.664L1546.59 550.15L1547.81 549.682ZM1566.01 540.388L1563.58 536.2L1563.1 535.273L1559.94 540.388L1560.91 540.856L1563.1 537.362L1565.03 540.856L1566.01 540.388ZM1578.14 540.388L1575.48 536.2L1574.99 535.273L1571.84 540.388L1572.81 540.856L1574.99 537.362L1576.93 540.856L1578.14 540.388ZM1584.22 549.682L1581.54 545.729L1581.06 544.801L1578.14 549.682L1578.87 550.15L1581.06 546.664L1583.23 550.15L1584.21 549.682H1584.22ZM1571.84 549.682L1569.65 545.729L1568.92 544.801L1565.77 549.682L1566.74 550.15L1568.92 546.664L1571.11 550.15L1571.83 549.682H1571.84ZM1559.7 549.682L1557.52 545.729L1556.79 544.801L1553.64 549.682L1554.6 550.15L1556.79 546.664L1558.72 550.15L1559.69 549.682H1559.7ZM1555.09 540.388L1552.9 536.2L1552.18 535.273L1549.03 540.388L1550 540.856L1552.18 537.362L1554.12 540.856L1555.09 540.388ZM1536.41 564.793H1527.67V576.177H1536.41V564.793ZM1597.07 564.793H1588.58V576.177H1597.07V564.793ZM1585.18 564.793H1576.2V576.177H1585.18V564.793ZM1573.05 564.793H1564.07V576.177H1573.05V564.793ZM1560.91 564.793H1551.93V576.177H1560.91V564.793ZM1548.54 564.793H1539.8V576.177H1548.54V564.793ZM1566.49 460.443H1559.46V455.562H1566.49V460.443ZM1543.69 497.862L1541.01 495.305L1538.34 497.862L1541.01 500.411L1543.69 497.862ZM1587.6 497.862L1584.94 495.305L1582.27 497.862L1584.94 500.411L1587.6 497.862ZM1583.48 507.85L1582.51 509.706L1581.54 511.561H1581.31L1580.58 509.706L1579.36 507.85L1578.15 509.706L1577.42 511.561L1576.45 509.706L1575.24 507.85L1574.27 509.706L1573.3 511.561L1572.33 509.706L1571.36 507.85L1570.14 509.706L1569.17 511.561L1568.2 509.706L1567.23 507.85L1566.02 509.706L1565.29 511.561H1565.04L1564.07 509.706L1563.1 507.85L1561.88 509.706L1561.16 511.561H1560.91L1559.95 509.706L1558.98 507.85L1557.76 509.706L1557.03 511.561H1556.79L1555.83 509.706L1554.86 507.85L1553.64 509.706L1552.91 511.561H1552.68L1551.7 509.706L1550.48 507.85L1549.52 509.706L1548.55 511.561L1547.81 509.706L1546.6 507.85L1545.39 509.706L1544.66 511.561H1544.41L1543.69 509.706L1542.47 507.85L1541.74 509.012V500.879L1541.01 501.347L1540.28 500.879V511.577V529.48H1585.66V511.577V500.879L1584.93 501.347L1584.21 500.879V509.012L1583.47 507.85H1583.48ZM1563.1 452.779C1563.1 453.481 1562.86 454.175 1562.86 454.877H1563.1V452.779ZM1562.14 461.145C1559.46 477.184 1551.69 491.351 1546.36 506.454V506.22L1548.29 509.472L1548.54 509.932L1550.48 506.22L1552.41 509.472L1552.67 509.932L1552.9 509.472L1554.85 506.22L1556.79 509.932L1557.02 509.472L1558.96 506.22L1560.9 509.932L1561.14 509.472L1563.09 506.22L1564.79 509.472L1565.03 509.932L1565.28 509.472L1567.22 506.22L1569.16 509.932L1569.41 509.472L1571.35 506.22L1573.29 509.932L1573.53 509.472L1575.47 506.22L1576.93 509.472L1577.41 509.932L1577.65 509.472L1579.35 506.22C1579.83 505.526 1564.55 467.64 1563.58 461.137H1562.14V461.145ZM1566.01 482.985L1563.58 479.266L1563.1 478.104L1559.94 482.977L1560.91 483.671L1563.1 480.193L1565.03 483.671L1566.01 482.977V482.985ZM1556.79 502.977L1554.61 498.79L1553.89 497.862L1550.73 502.977L1551.7 503.445L1553.89 499.718L1555.83 503.445L1556.79 502.977ZM1566.01 502.977L1563.58 498.79L1563.1 497.862L1559.94 502.977L1560.91 503.445L1563.1 499.718L1565.03 503.445L1566.01 502.977ZM1575.24 502.977L1572.81 498.79L1572.08 497.862L1568.92 502.977L1570.13 503.445L1572.08 499.718L1574.26 503.445L1575.23 502.977H1575.24ZM1560.67 493.441L1558.24 489.262L1557.52 488.334L1554.6 493.441L1555.57 493.909L1557.51 490.198L1559.69 493.909L1560.66 493.441H1560.67ZM1571.35 493.441L1568.92 489.262L1568.43 488.334L1565.28 493.441L1566.01 493.909L1568.43 490.198L1570.37 493.909L1571.34 493.441H1571.35ZM1540.28 495.079V493.441H1541.74V495.079L1541.01 494.385L1540.28 495.079ZM1584.22 495.079V493.441H1585.66V495.079L1584.94 494.385L1584.22 495.079ZM1549.51 515.063H1542.71V526.68H1549.51V515.063ZM1583.24 515.063H1576.44V526.68H1583.24V515.063ZM1574.75 515.063H1567.95V526.68H1574.75V515.063ZM1566.49 515.063H1559.69V526.68H1566.49V515.063ZM1558 515.063H1551.2V526.68H1558V515.063ZM1596.1 774.645H1599.99V721.656H1596.1V774.645ZM1525.97 774.645H1529.85V721.656H1525.97V774.645ZM1533 774.645H1536.89V721.656H1533V774.645ZM1540.05 774.645H1543.93V721.656H1540.05V774.645ZM1547.08 774.645H1550.96V721.656H1547.08V774.645ZM1554.12 774.645H1558V721.656H1554.12V774.645ZM1560.91 774.645H1565.03V721.656H1560.91V774.645ZM1567.95 774.645H1571.84V721.656H1567.95V774.645ZM1574.99 774.645H1578.87V721.656H1574.99V774.645ZM1582.03 774.645H1585.9V721.656H1582.03V774.645ZM1589.07 774.645H1592.95V721.656H1589.07V774.645ZM1596.1 718.864H1599.99V670.062H1596.1V718.864ZM1525.97 718.864H1529.85V670.062H1525.97V718.864ZM1533 718.864H1536.89V670.062H1533V718.864ZM1540.05 718.864H1543.93V670.062H1540.05V718.864ZM1547.08 718.864H1550.96V670.062H1547.08V718.864ZM1554.12 718.864H1558V670.062H1554.12V718.864ZM1560.91 718.864H1565.03V670.062H1560.91V718.864ZM1567.95 718.864H1571.84V670.062H1567.95V718.864ZM1574.99 718.864H1578.87V670.062H1574.99V718.864ZM1582.03 718.864H1585.9V670.062H1582.03V718.864ZM1589.07 718.864H1592.95V670.062H1589.07V718.864ZM1602.89 667.98H1523.06V776.735H1602.89V667.98ZM1533.25 656.355H1528.64V660.776H1533.25V656.355ZM1597.07 656.355H1592.46V660.776H1597.07V656.355ZM1591.25 656.355H1586.63V660.776H1591.25V656.355ZM1585.42 656.355H1580.81V660.776H1585.42V656.355ZM1579.6 656.355H1574.99V660.776H1579.6V656.355ZM1573.78 656.355H1569.16V660.776H1573.78V656.355ZM1567.95 656.355H1563.35V660.776H1567.95V656.355ZM1562.14 656.355H1557.52V660.776H1562.14V656.355ZM1556.31 656.355H1551.69V660.776H1556.31V656.355ZM1550.48 656.355H1546.11V660.776H1550.48V656.355ZM1544.9 656.355H1540.28V660.776H1544.9V656.355ZM1539.08 656.355H1534.47V660.776H1539.08V656.355ZM1563.1 623.817C1562.62 623.817 1562.14 623.591 1561.66 623.591L1559.95 625.221C1559.7 626.149 1559.7 626.843 1559.21 627.311C1558.97 627.544 1558.49 627.544 1558 627.311C1557.68 626.848 1557.27 626.383 1556.79 625.915C1556.3 625.681 1556.3 625.221 1556.79 624.753C1557.27 624.277 1558 624.043 1558.72 624.043L1560.66 622.421C1560.18 622.187 1560.18 621.486 1560.18 621.026V620.324L1542.7 602.429V601.969H1543.19C1543.19 601.744 1543.43 601.744 1543.43 601.969L1561.87 618.468C1562.13 618.234 1562.62 618.234 1563.1 618.234C1563.58 618.234 1564.31 618.468 1564.8 618.694L1567.7 616.145C1567.46 616.145 1567.22 615.911 1567.22 615.669C1566.74 615.435 1566.74 614.733 1567.22 614.507C1567.7 614.039 1568.92 613.805 1570.13 613.805L1570.61 613.345V612.175H1572.32V613.571H1571.35L1570.61 614.273C1570.61 615.435 1570.61 616.596 1570.13 617.064C1569.65 617.298 1568.92 617.298 1568.68 617.064L1568.44 616.83L1565.53 619.622C1565.77 620.082 1566.02 620.55 1566.02 621.018C1566.02 621.486 1565.77 621.711 1565.77 621.945C1566.5 623.107 1567.96 624.035 1569.41 624.503C1569.41 624.503 1569.65 624.503 1569.65 624.745C1569.65 624.987 1569.65 625.213 1569.41 625.213C1568.93 625.213 1568.93 625.439 1568.93 625.673C1568.68 625.673 1568.68 625.907 1568.68 626.141C1568.68 626.375 1568.44 626.609 1568.44 626.609C1567.95 626.609 1567.71 626.609 1567.71 626.834C1567.47 626.834 1567.23 627.068 1567.23 627.302H1566.99C1566.74 627.536 1566.74 627.302 1566.5 627.302C1566.02 625.673 1565.05 624.753 1563.59 623.809H1563.1V623.817ZM1562.37 596.854H1560.67L1560.43 593.845H1560.18H1562.37V596.854ZM1559.21 597.096C1558.49 597.33 1557.76 597.33 1557.03 597.564L1556.31 594.547C1557.03 594.313 1558 594.079 1558.97 594.079L1559.21 597.105V597.096ZM1555.82 597.782C1555.33 598.016 1554.85 598.25 1554.12 598.25L1552.9 595.459C1553.64 595.225 1554.36 594.999 1555.09 594.765L1555.82 597.774V597.782ZM1553.16 598.726C1552.41 599.194 1551.69 599.42 1550.97 599.654L1549.27 597.096C1550 596.629 1550.97 596.169 1551.93 595.935L1553.16 598.726ZM1549.75 600.356C1549.27 600.816 1548.78 601.05 1548.3 601.284L1546.37 598.726C1547.1 598.492 1547.58 598.024 1548.3 597.556L1549.75 600.356ZM1547.33 601.977C1546.84 602.437 1546.59 602.671 1546.1 602.905L1546.59 603.365C1546.84 603.131 1547.33 602.671 1547.56 602.437H1547.81L1548.05 602.203C1548.77 601.744 1549.26 601.276 1549.99 600.808H1550.23L1555.33 609.408C1554.85 609.642 1554.36 609.868 1554.12 610.102L1554.6 610.57C1556.78 608.706 1559.68 607.778 1563.09 607.778C1566.49 607.778 1569.88 609.174 1572.31 611.264H1573.28C1572.55 610.57 1571.82 609.868 1570.85 609.408L1575.7 600.808H1575.94C1576.91 601.51 1577.64 601.969 1578.61 602.671L1578.86 602.905C1579.35 603.365 1579.83 603.833 1580.56 604.293C1581.05 604.995 1581.77 605.689 1582.51 606.391V606.625L1582.75 606.85C1583.23 607.56 1583.72 608.02 1583.96 608.714L1575.23 613.587C1574.74 612.893 1574.01 611.965 1573.53 611.264V612.425C1575.46 614.523 1576.92 617.774 1576.92 621.026C1576.92 624.745 1575.22 627.996 1572.8 630.546C1570.12 632.869 1566.73 634.507 1563.09 634.507C1559.2 634.507 1555.81 632.869 1553.14 630.546C1550.46 627.988 1549.01 624.745 1549.01 621.026C1549.01 618.008 1549.98 615.209 1551.92 613.119L1551.43 612.659C1551.19 612.893 1550.95 613.361 1550.7 613.587L1541.96 608.714C1542.45 607.786 1543.17 606.85 1543.91 606.157V605.923C1544.15 605.923 1544.15 605.689 1544.39 605.463L1543.91 604.995C1543.66 605.229 1543.66 605.463 1543.42 605.689L1540.75 603.599C1541.24 603.365 1541.48 603.131 1541.72 602.671V601.51L1542.44 601.276C1542.68 600.808 1543.16 600.808 1543.66 600.808C1544.14 600.348 1544.63 600.114 1545.36 599.646L1547.3 601.969L1547.33 601.977ZM1543.2 606.157H1542.95L1540.77 604.293L1543.2 605.923V606.157ZM1542.71 606.616C1542.23 607.092 1541.74 607.786 1541.5 608.48L1540.05 607.552L1538.59 606.842C1539.07 606.149 1539.56 605.221 1540.05 604.753H1540.29L1542.72 606.608L1542.71 606.616ZM1540.77 609.416C1540.53 609.876 1540.29 610.344 1540.05 611.038L1536.9 609.65C1537.14 609.19 1537.63 608.488 1537.87 608.02L1540.77 609.416ZM1539.31 612.199C1539.07 612.901 1538.83 613.595 1538.59 614.297L1535.68 613.369H1535.43C1535.68 612.433 1536.16 611.74 1536.4 610.82L1539.31 612.208L1539.31 612.199ZM1538.35 615.451C1538.1 615.927 1538.1 616.387 1537.87 617.08L1534.71 616.613C1534.96 615.919 1534.96 615.217 1535.2 614.523V614.749L1538.35 615.451ZM1537.87 617.548L1534.96 617.314V617.08L1537.87 617.548ZM1537.87 618.25C1537.62 618.944 1537.62 619.646 1537.62 620.332H1534.46C1534.46 619.404 1534.46 618.71 1534.71 617.782L1537.86 618.25H1537.87ZM1537.62 621.728C1537.62 622.187 1537.62 622.889 1537.87 623.357L1534.47 623.591V621.736H1537.63L1537.62 621.728ZM1537.87 624.511C1538.11 625.213 1538.11 626.141 1538.35 626.843L1535.2 627.544C1534.95 626.617 1534.71 625.915 1534.71 624.995L1537.87 624.519V624.511ZM1538.59 628.004C1538.83 628.472 1539.07 628.94 1539.31 629.4L1536.16 630.562V630.796C1535.92 630.102 1535.68 629.4 1535.43 628.706H1535.68L1538.59 628.004ZM1539.56 630.094L1536.89 631.256V631.022L1539.56 630.094ZM1539.8 630.554C1540.05 631.256 1540.28 631.95 1540.77 632.651L1537.87 634.281C1537.39 633.579 1537.14 632.651 1536.65 631.95L1536.9 631.716L1539.81 630.554H1539.8ZM1541.5 633.821C1541.74 634.289 1541.98 634.749 1542.47 634.983L1539.56 636.839C1539.31 636.371 1538.83 635.911 1538.59 635.209L1541.5 633.821ZM1543.2 635.903C1543.7 636.605 1544.18 637.073 1544.66 637.758L1542.47 640.082H1542.23C1541.75 639.388 1541.02 638.686 1540.53 637.992L1543.2 635.903ZM1545.63 638.694C1546.11 638.928 1546.36 639.396 1546.85 639.622L1544.91 642.188H1544.66C1544.18 641.712 1543.7 641.252 1543.2 640.784L1545.63 638.686V638.694ZM1547.81 640.55C1548.54 641.01 1549.02 641.244 1549.74 641.712L1548.29 644.503H1548.05C1547.33 644.035 1546.59 643.575 1545.87 642.873L1547.81 640.542V640.55ZM1550.97 642.422C1551.45 642.647 1551.93 642.881 1552.41 643.115L1551.2 645.899C1550.47 645.665 1549.74 645.431 1549.26 644.971L1550.96 642.414L1550.97 642.422ZM1553.64 643.575C1554.36 643.801 1555.09 644.035 1555.82 644.269L1555.09 647.286C1554.12 647.052 1553.16 646.819 1552.41 646.585L1553.64 643.567V643.575ZM1556.31 644.503L1555.82 647.053H1555.57L1556.31 644.503ZM1557.03 644.737C1557.52 644.737 1558.24 644.971 1558.73 644.971L1558.24 647.98C1557.52 647.98 1556.79 647.746 1556.31 647.746L1557.03 644.737ZM1559.21 645.205H1559.46L1558.97 647.754L1559.21 645.205ZM1559.94 645.205C1560.67 645.205 1561.65 645.431 1562.37 645.431V648.456C1561.39 648.456 1560.43 648.456 1559.46 648.222L1559.94 645.205ZM1563.58 645.431C1564.06 645.431 1564.8 645.431 1565.28 645.205L1565.77 648.222V648.456H1563.58V645.431ZM1566.74 645.205C1567.47 644.979 1568.19 644.979 1568.92 644.745L1569.65 647.754C1568.92 647.988 1567.95 647.988 1566.98 648.222L1566.74 645.205ZM1569.65 644.503L1570.37 647.053H1570.13L1569.65 644.503ZM1570.13 644.269C1570.61 644.269 1571.11 644.035 1571.84 643.801L1573.05 646.593V646.827C1572.32 647.061 1571.84 647.295 1571.12 647.295L1570.14 644.277L1570.13 644.269ZM1572.32 643.575H1572.56L1573.53 646.133L1572.32 643.575ZM1573.05 643.349C1573.78 643.115 1574.5 642.647 1574.99 642.422L1576.69 644.979V645.205C1575.96 645.431 1574.99 645.899 1574.27 646.367V646.141L1573.05 643.357V643.349ZM1576.2 641.712C1576.68 641.478 1577.16 641.244 1577.65 640.784L1579.59 643.341C1579.1 643.801 1578.38 644.035 1577.89 644.503L1576.19 641.712H1576.2ZM1578.63 640.082C1579.36 639.614 1579.84 639.154 1580.33 638.686L1582.76 640.784C1582.03 641.478 1581.31 642.188 1580.58 642.647L1578.63 640.09V640.082ZM1581.31 637.766C1581.79 637.298 1582.03 636.839 1582.27 636.605L1584.94 638.46C1584.7 638.928 1584.22 639.396 1583.73 639.856L1581.31 637.774V637.766ZM1583.24 635.443C1583.73 634.975 1584.22 634.281 1584.45 633.579L1587.36 635.209C1586.88 636.137 1586.39 636.839 1585.9 637.532H1585.66L1583.23 635.443H1583.24ZM1585.18 632.651C1585.43 632.183 1585.66 631.716 1585.91 631.256L1589.07 632.417C1588.58 633.111 1588.33 633.579 1588.09 634.281H1587.85L1585.18 632.651H1585.18ZM1586.4 630.094C1586.64 629.392 1587.12 628.698 1587.12 627.996L1590.28 628.698H1590.53C1590.04 629.626 1589.79 630.554 1589.56 631.248L1586.4 630.086V630.094ZM1587.6 626.843C1587.6 626.383 1587.85 625.681 1587.85 625.221L1591.24 625.681C1591 626.149 1591 626.843 1590.76 627.536L1587.6 626.834V626.843ZM1588.09 624.511L1591.01 624.987H1590.76L1588.09 624.511ZM1588.09 623.817C1588.33 623.123 1588.33 622.429 1588.33 621.736H1591.49C1591.49 622.663 1591.49 623.365 1591.25 624.285L1588.09 623.817ZM1588.33 620.332C1588.33 619.872 1588.33 619.404 1588.09 618.936L1591.49 618.476V620.332H1588.33ZM1588.09 618.25V618.016L1591.01 617.782V618.016L1588.09 618.25ZM1588.09 617.548C1587.85 616.847 1587.85 616.153 1587.6 615.451L1590.76 614.749V614.523C1591.01 615.451 1591.24 616.379 1591.24 617.314L1588.08 617.548H1588.09ZM1587.36 614.289C1587.11 613.587 1586.88 613.127 1586.63 612.659L1589.79 611.498C1590.04 612.191 1590.28 612.659 1590.28 613.361L1587.36 614.289ZM1586.4 611.974L1589.07 610.812V611.038L1586.4 611.965V611.974ZM1586.15 611.498C1585.91 610.804 1585.66 610.11 1585.18 609.408L1587.85 608.012H1588.1C1588.58 608.706 1588.83 609.642 1589.32 610.336L1586.16 611.498H1586.15ZM1584.45 608.48C1584.21 608.02 1583.96 607.552 1583.73 607.092L1586.15 605.229C1586.63 605.689 1587.12 606.391 1587.37 606.85L1584.46 608.488L1584.45 608.48ZM1582.76 605.923C1582.27 605.463 1581.79 604.995 1581.31 604.293L1583.73 602.203C1584.22 602.905 1584.94 603.599 1585.42 604.059V604.285L1582.76 605.915V605.923ZM1580.33 603.599C1580.09 603.131 1579.6 602.671 1579.11 602.437L1581.06 599.888C1581.54 600.356 1582.27 600.808 1582.75 601.276L1580.32 603.599H1580.33ZM1578.63 601.977L1580.58 599.888L1578.87 601.977H1578.63ZM1578.14 601.752C1577.41 601.284 1576.93 600.816 1576.2 600.356L1577.91 597.79C1578.64 598.258 1579.36 598.726 1580.1 599.194L1578.15 601.752H1578.14ZM1574.99 599.888C1574.5 599.42 1574.02 599.194 1573.53 598.96L1574.75 596.169C1575.48 596.395 1575.96 596.629 1576.69 597.096L1574.99 599.896V599.888ZM1572.32 598.492C1571.6 598.25 1570.86 598.016 1570.13 597.782L1571.11 594.773C1571.83 595.007 1572.81 595.467 1573.53 595.701L1572.32 598.5V598.492ZM1568.92 597.556C1568.43 597.322 1567.7 597.322 1567.22 597.088L1567.7 594.063C1568.43 594.297 1569.15 594.297 1569.64 594.531L1568.91 597.548L1568.92 597.556ZM1566.74 597.096H1566.49L1566.98 594.305L1566.74 597.096ZM1566.01 597.096C1565.28 596.862 1564.31 596.862 1563.58 596.862V593.853H1566.49L1566.01 597.105V597.096ZM1551.21 600.356C1551.93 599.888 1552.42 599.654 1553.16 599.194H1553.4L1554.13 598.96C1554.87 598.726 1555.35 598.492 1556.07 598.25H1556.31L1556.8 598.016H1557.28C1558.02 597.782 1558.74 597.782 1559.47 597.556H1560.68V597.322H1562.38V607.092C1560.19 607.318 1558.01 607.786 1556.31 608.714L1551.22 600.356H1551.21ZM1563.58 597.322C1564.32 597.322 1565.03 597.322 1565.77 597.556H1566.98C1567.7 597.782 1568.19 597.782 1568.68 598.016H1568.93L1569.66 598.25H1569.9C1570.63 598.492 1571.36 598.718 1572.09 598.96V599.194H1572.34C1572.58 599.194 1572.83 599.42 1573.07 599.42L1573.31 599.654C1573.8 599.654 1574.28 600.122 1574.76 600.356L1569.67 608.714C1567.73 607.786 1565.78 607.318 1563.6 607.092V597.322H1563.58ZM1584.7 609.876C1585.18 610.578 1585.42 611.272 1585.66 611.974L1585.91 612.199C1585.91 612.433 1585.91 612.667 1586.15 612.667V612.901C1586.4 613.595 1586.63 614.531 1586.89 615.451C1587.37 617.08 1587.61 618.71 1587.61 620.566H1577.42C1577.42 618.476 1576.69 616.387 1575.97 614.749L1584.7 609.876H1584.7ZM1587.6 621.728C1587.6 622.429 1587.6 623.115 1587.36 623.809C1587.36 624.753 1587.11 625.673 1586.88 626.609C1586.39 628.698 1585.66 630.554 1584.7 632.409L1575.72 627.536C1576.68 625.681 1577.17 623.809 1577.41 621.728H1587.6ZM1583.96 633.353C1583.72 634.055 1583.23 634.749 1582.75 635.451L1582.26 635.911L1582.02 636.145C1581.54 636.613 1581.29 637.081 1581.05 637.307L1580.56 637.541L1580.32 638.008L1579.82 638.242H1580.07C1579.34 638.702 1578.85 639.17 1578.37 639.63H1578.12V639.864L1577.88 640.098C1577.16 640.566 1576.67 640.8 1575.94 641.26L1570.85 632.668C1571.59 632.2 1572.55 631.506 1573.28 630.812C1574.01 630.118 1574.73 629.416 1575.22 628.488L1583.95 633.369L1583.96 633.353ZM1574.75 641.954C1574.27 642.188 1573.53 642.647 1572.81 642.881V642.647L1572.32 642.881L1572.08 643.115L1571.6 643.349C1571.11 643.349 1570.61 643.583 1570.13 643.809H1569.89C1569.65 643.809 1569.16 644.043 1568.93 644.043H1568.68C1567.71 644.277 1566.98 644.511 1566.02 644.511H1565.53C1564.81 644.745 1564.32 644.745 1563.59 644.745V634.983C1565.77 634.749 1567.71 634.289 1569.66 633.353L1574.76 641.954H1574.75ZM1562.37 644.737C1561.65 644.737 1560.91 644.737 1560.18 644.503H1558.97C1558.24 644.269 1557.76 644.269 1557.27 644.035C1556.05 643.801 1554.85 643.341 1553.64 642.873H1553.39C1552.67 642.639 1551.93 642.18 1551.2 641.946L1556.3 633.345C1558.24 634.281 1560.18 634.741 1562.36 634.975V644.737H1562.37ZM1550 641.244C1549.51 641.01 1548.78 640.55 1548.06 640.082H1548.3L1548.06 639.848L1547.33 639.614V639.388H1547.09C1546.85 638.92 1546.36 638.686 1545.88 638.226H1546.12L1545.88 637.992L1545.4 637.524L1544.91 637.29C1544.43 636.831 1543.94 636.363 1543.44 635.669L1542.96 634.967L1542.72 634.733C1542.47 634.273 1542.24 633.805 1541.99 633.337H1541.76L1550.74 628.456C1551.46 629.384 1551.95 630.086 1552.92 630.78C1553.65 631.482 1554.38 632.167 1555.35 632.869L1550.01 641.236L1550 641.244ZM1541.26 632.417C1540.77 631.716 1540.53 631.022 1540.29 630.094H1540.05C1539.8 629.392 1539.56 628.464 1539.31 627.77C1539.07 627.302 1539.07 627.068 1539.07 626.609C1538.59 624.979 1538.34 623.349 1538.34 621.719H1548.53C1548.53 623.801 1549.26 625.673 1550.22 627.528L1541.25 632.401L1541.26 632.417ZM1538.35 620.566C1538.35 619.872 1538.35 618.936 1538.59 618.25V617.089C1538.83 616.621 1538.83 615.927 1539.07 615.459C1539.07 614.991 1539.07 614.757 1539.31 614.531V614.297C1539.56 613.595 1539.8 612.901 1540.05 612.433L1540.29 611.974V611.74C1540.29 611.506 1540.54 611.506 1540.54 611.272C1540.78 610.812 1541.02 610.344 1541.27 609.876L1550.24 614.749C1549.27 616.613 1548.55 618.476 1548.55 620.566H1538.35H1538.35ZM1595.86 589.424H1563.1C1581.06 589.424 1595.86 603.599 1595.86 621.034V589.424ZM1570.13 594.773H1570.37L1569.65 597.556L1570.13 594.773ZM1582.76 601.977H1583L1581.06 604.067L1580.82 603.833L1582.76 601.977ZM1582.99 640.082L1582.75 640.316L1580.81 638.226H1581.06L1582.99 640.082ZM1543.2 640.316L1542.95 640.082L1544.9 638.226H1545.14L1543.2 640.316ZM1555.57 594.773H1555.82L1556.31 597.556L1555.57 594.773ZM1585.66 604.761L1583.24 606.616V606.383L1585.66 604.753V604.761ZM1551.93 646.133L1551.69 645.899L1552.9 643.349L1551.93 646.133ZM1545.39 642.422V642.188L1547.33 640.09L1545.39 642.422ZM1546.11 599.42V599.194L1547.81 601.518V601.752L1546.11 599.42ZM1552.41 595.935L1553.64 598.5L1553.39 598.734L1552.41 595.943V595.935ZM1563.1 589.424H1530.1V621.034C1530.1 603.607 1544.9 589.424 1563.1 589.424ZM1530.1 621.034V652.644H1563.1C1544.91 652.644 1530.1 638.46 1530.1 621.034ZM1563.1 652.635H1595.87V621.026C1595.87 638.452 1581.06 652.635 1563.1 652.635ZM1563.1 651.014C1545.88 651.014 1531.8 637.532 1531.8 621.034C1531.8 604.535 1545.88 591.296 1563.1 591.296C1580.33 591.296 1594.16 604.769 1594.16 621.034C1594.16 637.298 1580.1 651.014 1563.1 651.014ZM1590.76 649.15C1589.3 649.15 1588.33 648.222 1588.33 646.601C1588.33 645.439 1589.3 644.511 1590.76 644.511C1591.97 644.511 1593.19 645.439 1593.19 646.601C1593.19 648.23 1591.97 649.15 1590.76 649.15ZM1590.76 597.096C1589.3 597.096 1588.33 595.935 1588.33 594.773C1588.33 593.377 1589.3 592.449 1590.76 592.449C1591.97 592.449 1593.19 593.377 1593.19 594.773C1593.19 595.935 1591.97 597.096 1590.76 597.096ZM1535.68 597.096C1534.23 597.096 1533.25 595.935 1533.25 594.773C1533.25 593.377 1534.22 592.449 1535.68 592.449C1537.15 592.449 1538.11 593.377 1538.11 594.773C1538.11 595.935 1537.14 597.096 1535.68 597.096ZM1535.68 649.15C1534.23 649.15 1533.25 648.222 1533.25 646.601C1533.25 645.439 1534.22 644.511 1535.68 644.511C1537.15 644.511 1538.11 645.439 1538.11 646.601C1538.11 648.23 1537.14 649.15 1535.68 649.15ZM1596.83 588.488V653.563H1529.13V588.488H1596.83ZM1597.07 581.526H1592.46V586.165H1597.07V581.526ZM1533.25 581.526H1528.64V586.165H1533.25V581.526ZM1539.08 581.526H1534.47V586.165H1539.08V581.526ZM1544.9 581.526H1540.28V586.165H1544.9V581.526ZM1550.48 581.526H1546.11V586.165H1550.48V581.526ZM1556.31 581.526H1551.69V586.165H1556.31V581.526ZM1562.14 581.526H1557.52V586.165H1562.14V581.526ZM1567.95 581.526H1563.35V586.165H1567.95V581.526ZM1573.78 581.526H1569.16V586.165H1573.78V581.526ZM1579.6 581.526H1574.99V586.165H1579.6V581.526ZM1585.42 581.526H1580.81V586.165H1585.42V581.526ZM1591.25 581.526H1586.63V586.165H1591.25V581.526ZM1525.97 660.308H1526.94V581.526H1525.97V660.308ZM1521.12 660.308H1522.33V581.526H1521.12V660.308ZM1523.54 660.308H1524.76V581.526H1523.54V660.308ZM1599.02 660.308H1600.47V581.526H1599.02V660.308ZM1603.86 660.308H1605.07V581.526H1603.86V660.308ZM1601.44 660.308H1602.66V581.526H1601.44V660.308Z" fill="url(#paint1_linear_157_170)"/>
<path fill-rule="evenodd" clip-rule="evenodd" d="M1413.87 788.279V794.58H1380.32V828.376H1394.8L1384.71 831.522V938.808H1362.56V831.732L1352.26 828.376H1366.95V794.58H1255.36V828.376H1270.05L1259.97 831.522V938.808H1237.6V831.732L1227.74 828.376H1242.2V794.58H1208.66V788.279H1199.67V783.656H1242.2V765.39H1232.12V758.25C1218.31 756.362 1204.06 754.055 1189.81 751.32V735.781C1184.54 734.942 1179.07 733.893 1173.58 732.635V720.033C1167.44 718.984 1161.09 717.725 1154.96 716.475V705.131C1260.4 722.138 1364.53 721.082 1467.35 705.131V716.475C1461.21 717.725 1455.07 718.992 1448.72 720.033V732.635C1443.45 733.893 1437.97 734.942 1432.5 735.991V751.32C1418.69 754.265 1404.43 756.782 1390.2 758.67V765.39H1380.32V783.656H1422.64V788.279H1413.87ZM1265.46 761.824V765.39H1255.38V783.656H1301.19V763.502C1289.35 763.292 1277.51 762.663 1265.46 761.824ZM1366.96 765.39H1356.89V762.034C1345.26 763.083 1333.21 763.502 1321.37 763.712V783.656H1366.97V765.39H1366.96Z" fill="url(#paint2_linear_157_170)"/>
<path d="M260.927 581.429V505.946H252.494V456.555H245.03V421.137L227.272 390.867V348.833H224.517V390.867L206.759 421.137V456.555H199.295V505.946H190.863V581.429H174.966V645.891H106.857V581.429H90.9604V505.946H82.5277V456.555H75.0639V421.137L57.3057 390.867V348.833H54.551V390.867L36.7844 421.137V456.555H29.329V505.946H20.8964V581.429H5V917.551H106.857V671.055H174.966V917.551H276.823V581.429H260.927Z" fill="url(#paint3_linear_157_170)"/>
<path d="M1135.9 920.439L1097.15 918.833C1096.73 916.437 1093.83 909.66 1092.99 907.264L1091.74 905.271L1090.9 903.27L1090.49 902.068L1090.07 900.874L1088.8 899.285L1087.97 898.083C1085.06 889.313 1080.07 881.334 1073.39 874.952L1072.97 864.972L1091.32 864.569C1091.32 864.569 1086.31 813.492 1051.74 812.298C1031.74 810.297 1015.91 827.86 1006.74 841.818C993.401 831.055 980.065 819.881 966.738 808.699L899.656 868.547C900.49 867.756 901.737 866.554 902.58 865.763L796.334 746.456L690.922 867.756L683.416 876.138L678.421 882.117L670.519 890.903L665.506 896.881L657.596 905.667L636.342 930.395L795.921 928.797L850.493 929.588C851.319 932.783 851.318 939.979 851.318 939.979L972.981 941.165C972.981 941.165 1030.05 943.957 1029.65 941.964L1149.63 941.165C1145.47 921.625 1142.14 922.02 1135.88 920.431L1135.9 920.439Z" fill="url(#paint4_linear_157_170)"/>
<path style="mix-blend-mode:multiply" d="M547.436 913.132C547.436 913.132 540.351 693.235 460.211 693.033C460.211 693.033 460.178 693.033 460.153 693.033C460.127 693.033 460.119 693.033 460.094 693.033C379.954 693.243 372.87 913.14 372.87 913.14H366.341V919.392H553.964V913.14H547.436V913.132ZM446.472 799.908C446.472 797.148 448.342 789.79 460.144 789.766C471.946 789.79 473.817 797.148 473.817 799.908V823.409H446.463V799.908H446.472ZM460.203 913.132H438.536V876.052C438.536 871.687 441.485 860.069 460.144 860.045C478.804 860.069 481.752 871.687 481.752 876.052V913.132H460.195H460.203Z" fill="url(#paint5_linear_157_170)"/>
<path d="M505.407 732.234L485.669 751.137L470.16 736.285C470.707 735.05 471.011 733.687 471.011 732.259C471.011 729.709 470.008 727.402 468.408 725.595L485.669 709.064L574.249 624.23L570.745 620.874L551.007 601.971L462.426 686.804L482.164 705.707L464.406 722.714C463.117 722.19 461.693 721.9 460.202 721.9C458.711 721.9 457.288 722.19 455.999 722.714L438.241 705.707L349.66 620.874L346.156 624.23L326.418 643.133L414.998 727.967L434.736 709.064L451.997 725.595C450.397 727.402 449.394 729.701 449.394 732.259C449.394 733.687 449.697 735.05 450.245 736.285L434.736 751.137L346.156 835.971L349.66 839.327L369.398 858.23L457.978 773.397L438.241 754.494L453.252 740.117C455.139 741.65 457.54 742.61 460.211 742.61C462.881 742.61 465.282 741.65 467.169 740.117L482.181 754.494L570.761 839.327L574.266 835.971L594.004 817.068L505.423 732.234H505.407ZM491.877 695.502L485.593 689.475L490.605 684.675L496.89 690.693L491.877 695.494V695.502ZM499.602 688.103L493.318 682.085L498.33 677.284L504.615 683.303L499.602 688.103ZM507.319 680.713L501.034 674.695L506.047 669.894L512.331 675.913L507.319 680.713ZM515.044 673.323L508.759 667.305L513.772 662.504L520.056 668.523L515.044 673.323ZM522.76 665.925L516.476 659.906L521.488 655.106L527.773 661.125L522.76 665.925ZM530.477 658.535L524.192 652.516L529.205 647.716L535.489 653.734L530.477 658.535ZM538.202 651.137L531.917 645.118L536.93 640.318L543.214 646.336L538.202 651.137ZM545.918 643.746L539.634 637.728L544.646 632.927L550.931 638.946L545.918 643.746ZM553.635 636.356L547.351 630.338L552.363 625.537L558.647 631.556L553.635 636.356ZM566.853 623.698L561.36 628.958L555.076 622.939L560.568 617.679L566.853 623.698ZM551.571 609.063L557.856 615.081L552.363 620.342L546.078 614.323L551.571 609.063ZM543.374 616.913L549.659 622.931L544.646 627.732L538.362 621.713L543.374 616.913ZM535.649 624.311L541.934 630.33L536.921 635.13L530.637 629.111L535.649 624.311ZM527.933 631.701L534.226 637.72L529.213 642.52L522.92 636.502L527.933 631.701ZM520.216 639.099L526.501 645.118L521.488 649.918L515.204 643.9L520.216 639.099ZM512.491 646.49L518.776 652.508L513.763 657.308L507.479 651.29L512.491 646.49ZM504.775 653.88L511.059 659.898L506.047 664.699L499.762 658.68L504.775 653.88ZM497.05 661.278L503.334 667.305L498.322 672.105L492.037 666.086L497.05 661.286V661.278ZM489.333 668.668L495.618 674.687L490.605 679.487L484.321 673.468L489.333 668.668ZM481.617 676.066L487.901 682.085L482.889 686.885L476.604 680.867L481.617 676.066ZM469.831 687.345L473.892 683.456L480.176 689.475L476.116 693.364L469.831 687.345ZM478.828 695.953L482.889 692.065L489.173 698.083L485.113 701.972L478.828 695.953ZM424.071 699.77L417.787 705.788L412.774 700.988L419.059 694.969L424.071 699.77ZM416.355 692.371L410.07 698.39L405.058 693.59L411.342 687.571L416.355 692.371ZM408.63 684.981L402.345 691L397.333 686.199L403.617 680.181L408.63 684.981ZM400.913 677.583L394.629 683.602L389.616 678.801L395.901 672.783L400.913 677.583ZM393.196 670.193L386.912 676.211L381.9 671.411L388.184 665.392L393.196 670.193ZM385.471 662.803L379.187 668.821L374.175 664.021L380.459 658.002L385.471 662.803ZM377.755 655.404L371.462 661.423L366.45 656.623L372.734 650.604L377.747 655.404H377.755ZM370.038 648.014L363.754 654.033L358.742 649.233L365.034 643.214L370.047 648.014H370.038ZM362.313 640.616L356.021 646.635L351.008 641.834L357.293 635.816L362.305 640.616H362.313ZM349.104 627.966L354.597 633.226L348.312 639.245L342.82 633.984L349.104 627.966ZM333.823 642.601L340.107 636.582L345.6 641.842L339.315 647.861L333.823 642.601ZM342.02 650.451L348.304 644.432L353.316 649.233L347.032 655.251L342.02 650.451ZM349.736 657.849L356.021 651.83L361.033 656.631L354.748 662.649L349.736 657.849ZM357.461 665.239L363.746 659.221L368.758 664.021L362.473 670.04L357.461 665.239ZM365.178 672.629L371.462 666.611L376.474 671.411L370.19 677.43L365.178 672.629ZM372.903 680.028L379.187 674.001L384.199 678.801L377.915 684.82L372.903 680.019V680.028ZM380.619 687.418L386.904 681.399L391.916 686.199L385.632 692.218L380.619 687.418ZM388.336 694.816L394.62 688.797L399.633 693.598L393.348 699.616L388.336 694.816ZM396.061 702.206L402.345 696.187L407.357 700.988L401.073 707.006L396.061 702.206ZM403.777 709.596L410.062 703.578L415.074 708.378L408.79 714.396L403.777 709.596ZM415.554 720.883L411.494 716.994L417.778 710.976L421.839 714.864L415.554 720.883ZM424.551 712.267L420.491 708.378L426.775 702.359L430.836 706.248L424.551 712.267ZM428.527 764.708L434.812 770.726L429.8 775.527L423.507 769.508L428.519 764.708H428.527ZM420.811 772.098L427.095 778.116L422.083 782.917L415.799 776.898L420.811 772.098ZM413.086 779.488L419.37 785.506L414.358 790.307L408.074 784.288L413.086 779.488ZM405.369 786.886L411.654 792.905L406.641 797.705L400.357 791.686L405.369 786.886ZM397.653 794.276L403.937 800.295L398.925 805.095L392.64 799.077L397.653 794.276ZM389.928 801.674L396.212 807.693L391.2 812.493L384.915 806.475L389.928 801.674ZM382.211 809.065L388.496 815.083L383.483 819.883L377.199 813.865L382.211 809.065ZM374.495 816.455L380.779 822.473L375.767 827.274L369.482 821.255L374.495 816.455ZM366.77 823.853L373.054 829.871L368.042 834.672L361.757 828.653L366.77 823.853ZM353.561 836.503L359.053 831.243L365.338 837.262L359.845 842.522L353.561 836.503ZM368.842 851.138L362.558 845.12L368.05 839.859L374.335 845.878L368.842 851.138ZM377.039 843.288L370.754 837.262L375.767 832.461L382.051 838.48L377.039 843.28V843.288ZM384.755 835.898L378.471 829.88L383.483 825.079L389.768 831.098L384.755 835.898ZM392.48 828.5L386.196 822.481L391.208 817.681L397.493 823.7L392.48 828.5ZM400.197 821.11L393.913 815.091L398.925 810.291L405.209 816.309L400.197 821.11ZM407.913 813.712L401.629 807.693L406.641 802.893L412.926 808.911L407.913 813.712ZM415.638 806.321L409.346 800.303L414.358 795.502L420.642 801.521L415.63 806.321H415.638ZM423.355 798.931L417.071 792.913L422.083 788.112L428.367 794.131L423.355 798.931ZM431.08 791.533L424.796 785.515L429.808 780.714L436.092 786.733L431.08 791.533ZM438.797 784.143L432.504 778.124L437.516 773.324L443.801 779.343L438.788 784.143H438.797ZM450.574 772.864L446.513 776.753L440.229 770.734L444.289 766.846L450.574 772.864ZM441.585 764.248L437.524 768.136L431.24 762.118L435.301 758.229L441.593 764.248H441.585ZM578.385 809.75L572.101 815.769L567.088 810.969L573.381 804.95L578.394 809.75H578.385ZM570.669 802.36L564.376 808.379L559.363 803.578L565.648 797.56L570.66 802.36H570.669ZM562.952 794.962L556.668 800.981L551.655 796.18L557.94 790.162L562.952 794.962ZM555.227 787.572L548.943 793.59L543.93 788.79L550.215 782.771L555.227 787.572ZM547.511 780.174L541.218 786.192L536.205 781.392L542.49 775.373L547.502 780.174H547.511ZM539.794 772.783L533.51 778.802L528.497 774.002L534.782 767.983L539.794 772.783ZM532.069 765.393L525.785 771.412L520.772 766.612L527.057 760.593L532.069 765.393ZM524.353 757.995L518.068 764.014L513.056 759.213L519.34 753.195L524.353 757.995ZM516.628 750.605L510.343 756.624L505.331 751.823L511.615 745.805L516.628 750.605ZM504.851 739.326L508.911 743.215L502.627 749.233L498.566 745.345L504.851 739.326ZM489.569 753.961L495.862 747.943L499.922 751.831L493.638 757.85L489.577 753.961H489.569ZM496.334 760.44L502.618 754.421L507.631 759.221L501.346 765.24L496.334 760.44ZM504.059 767.83L510.343 761.811L515.356 766.612L509.071 772.63L504.059 767.83ZM511.775 775.22L518.06 769.201L523.072 774.002L516.788 780.02L511.775 775.22ZM519.492 782.618L525.776 776.6L530.789 781.4L524.504 787.419L519.492 782.618ZM527.217 790.008L533.501 783.99L538.514 788.79L532.229 794.809L527.217 790.008ZM534.933 797.406L541.218 791.388L546.23 796.188L539.946 802.207L534.933 797.406ZM542.658 804.797L548.943 798.778L553.955 803.578L547.671 809.597L542.658 804.797ZM550.375 812.187L556.659 806.168L561.672 810.969L555.387 816.987L550.375 812.187ZM558.091 819.585L564.376 813.566L569.388 818.367L563.104 824.385L558.091 819.585ZM571.3 832.235L565.808 826.975L572.092 820.957L577.585 826.217L571.3 832.235ZM574.805 818.367L581.089 812.348L586.582 817.608L580.298 823.627L574.805 818.367Z" fill="url(#paint6_linear_157_170)"/>
</g>
<g filter="url(#filter0_b_157_170)">
<path d="M0 0.723633H1920V942.724H0V0.723633Z" fill="url(#paint7_linear_157_170)"/>
</g>
<mask id="mask0_157_170" style="mask-type:alpha" maskUnits="userSpaceOnUse" x="842" y="157" width="1496" height="782">
<rect x="842.66" y="157.38" width="1495.34" height="781.52" fill="#D9D9D9"/>
</mask>
<g mask="url(#mask0_157_170)">
<mask id="mask1_157_170" style="mask-type:alpha" maskUnits="userSpaceOnUse" x="843" y="162" width="1454" height="945">
<rect x="843.849" y="162.128" width="1452.23" height="944.238" fill="#D9D9D9"/>
</mask>
<g mask="url(#mask1_157_170)">
<g opacity="0.07">
<path d="M2430.31 252.489C2405.38 258.416 2378.52 256.912 2354.51 248.154C2340.9 243.2 2328.02 235.945 2313.71 233.424C2293.72 229.885 2273.37 235.857 2253.1 236.962C2214.65 239.042 2177.82 223.648 2140.02 216.526C2101.84 209.36 2062.56 210.643 2023.75 212.943C1981.65 215.42 1939.09 219.18 1899.44 232.804C1888.69 236.52 1870.32 234.972 1873.36 224.4C1874.15 221.657 1876.5 219.622 1878.76 217.72C1886.93 210.908 1895.1 204.096 1903.27 197.284C1885.36 189.852 1867.45 182.465 1849.54 175.034C1839.53 170.876 1829.24 166.673 1818.34 166.143C1806.25 165.523 1794.48 169.46 1783.08 173.353C1742 187.375 1700.87 201.353 1659.79 215.376C1649.96 218.738 1638.51 223.957 1637.36 233.866C1636.39 242.005 1643.13 249.26 1643.63 257.443C1644.14 265.627 1629.09 271.554 1628.63 263.371C1625.22 243.509 1613.54 225.019 1596.74 212.899C1590.55 208.431 1582.24 204.671 1575.27 207.9C1566.92 211.749 1566.09 223.736 1571.3 231.123C1576.52 238.466 1585.57 242.315 1594.11 245.809C1562.12 269.077 1515.96 246.517 1476.4 253.285C1439.66 259.566 1409.38 291.416 1372.18 289.027C1369.73 288.85 1367.19 288.54 1365.16 287.257C1356.72 281.993 1365.35 268.458 1375.36 267.396C1385.38 266.334 1395.21 271.244 1405.23 270.581C1415.24 269.917 1424.98 257.487 1417.32 251.25C1415.34 249.614 1412.66 248.994 1410.12 248.375C1384.69 242.492 1359.25 236.609 1333.82 230.725C1320.76 227.717 1307.19 224.665 1294.08 227.364C1284.75 229.266 1276.26 233.955 1267.08 236.476C1255.26 239.661 1242.7 239.13 1230.61 240.988C1203.7 245.102 1179.24 261.867 1166.45 284.957L1159.16 292.654C1156.53 303.58 1144.85 309.729 1135.43 316.364C1126.02 322.999 1117.29 334.943 1123.2 344.674C1129.02 354.273 1143.79 353.123 1154.77 349.584C1165.76 346.045 1178.59 341.578 1188.1 347.948C1192.12 350.646 1194.75 354.937 1198.95 357.325C1208.96 363.032 1221.33 355.512 1230.29 348.346C1231.3 347.549 1232.32 346.665 1232.69 345.47C1233.61 342.418 1229.83 340.206 1226.92 338.702C1215.43 332.687 1209.15 318.753 1212.43 306.632C1215.7 294.468 1228.26 285.223 1241.37 285.311C1243.07 285.311 1244.87 285.532 1246.21 286.55C1249.54 289.071 1247.51 294.379 1244.46 297.21C1241.41 300.086 1237.35 302.651 1236.8 306.676C1236.1 312.029 1242.15 315.922 1247.64 317.204C1253.14 318.443 1259.37 318.708 1263.38 322.557C1268.14 327.113 1267.81 335.031 1272.62 339.499C1279.49 345.913 1292 341.445 1299.94 346.665C1305.99 350.646 1307.05 359.183 1304.37 365.73C1301.69 372.277 1296.16 377.275 1290.76 382.053L1267.08 395.146C1244.14 396.606 1221.15 398.021 1198.21 399.481C1192.9 399.835 1187.18 400.056 1182.61 397.446C1177.21 394.35 1174.76 388.113 1170.14 384.043C1161.05 376.037 1143.83 380.106 1139.68 391.253C1137.46 397.225 1138.2 404.745 1133.17 408.815C1130.68 410.849 1127.31 411.469 1124.31 412.752C1112.77 417.839 1109.4 431.994 1100.4 440.575C1089.74 450.705 1072.84 451.59 1058.03 449.422C1054.66 448.936 1051.01 448.316 1047.92 449.688C1039.93 453.138 1042.61 465.17 1049.03 470.876C1055.44 476.582 1064.4 480.21 1068 487.862C1072.52 497.505 1066.61 510.112 1072.94 518.782C1080.87 529.62 1098.37 523.958 1110.97 518.428C1128.65 510.643 1149.74 505.423 1167.14 513.739C1177.99 518.915 1185.65 528.558 1192.9 537.847C1197.79 544.129 1202.69 550.41 1207.58 556.691C1210.26 560.142 1213.21 563.769 1217.46 565.052C1223.78 566.998 1230.89 562.707 1233.43 556.824C1235.97 550.941 1234.81 544.129 1232.23 538.246C1229.32 531.743 1224.7 525.948 1218.89 521.569C1212.7 516.88 1205.22 513.828 1199.64 508.52C1194.05 503.212 1190.87 494.232 1195.49 488.128C1210.49 496.444 1225.49 504.716 1240.49 513.032C1250.37 518.517 1260.71 524.4 1266.29 533.911C1271 542.006 1271.69 551.693 1275.62 560.186C1279.54 568.679 1289.32 576.287 1298.28 572.793C1300.36 571.997 1302.16 570.625 1304.28 569.962C1308.76 568.458 1313.7 570.05 1318.13 571.643C1335.3 577.747 1352.51 583.852 1369.69 589.956C1374.16 591.548 1378.78 593.141 1383.53 592.831C1391.89 592.256 1399 585.798 1407.4 585.665C1416.4 585.533 1423.97 593.008 1426.55 601.28C1429.14 609.552 1427.89 618.399 1426.64 626.981C1424.84 639.189 1420.6 654.008 1408.04 656.574C1401.3 657.945 1394.56 655.07 1387.83 653.743C1364.29 649.009 1336.82 662.236 1317.2 648.921C1308.34 642.905 1297.91 631.758 1289.46 638.349C1282.03 644.144 1287.99 656.927 1282.08 664.138C1260.01 667.5 1246.81 638.526 1224.98 634.191C1216.26 632.466 1207.21 634.899 1198.35 634.014C1189.48 633.129 1179.79 626.317 1181.64 618.001C1183.11 611.277 1191.56 606.854 1191.42 599.953C1191.28 592.92 1182.05 589.16 1174.81 590.354C1167.56 591.549 1161.14 595.662 1153.9 596.945C1140.79 599.245 1127.96 591.902 1114.62 591.018C1086.55 589.16 1061.81 615.922 1034.12 611.189C1031.62 601.236 1043.07 593.318 1053.36 590.354C1063.61 587.435 1075.84 585.223 1080.69 576.066C1085.72 566.6 1080.46 553.02 1088.54 545.721C1094.54 540.28 1106.72 539.705 1107.32 531.787C1107.74 526.7 1102.34 523.029 1097.35 521.215C1075.7 513.386 1050.83 520.109 1028.76 513.386C1021.61 511.218 1014.82 507.591 1007.34 506.662C999.867 505.733 991.051 508.52 988.512 515.288C986.343 520.95 989.205 527.098 990.174 533.07C991.974 544.262 986.989 555.364 985.697 566.644C984.404 577.924 989.205 591.902 1000.88 593.76C1006.38 594.645 1013.3 593.008 1016.62 597.255C1019.62 601.059 1016.85 606.809 1012.79 609.552C1008.73 612.339 1003.65 613.4 999.452 616.01C981.635 627.158 990.451 656.706 975.219 670.95C966.495 679.089 951.817 680.107 944.801 689.617C940.093 696.031 940.185 704.657 936.492 711.69C930.215 723.766 913.644 729.694 910.413 742.831C906.859 757.296 921.768 770.478 921.86 785.341C921.999 803.92 899.243 820.596 907.136 837.582C908.844 841.298 911.89 844.306 913.829 847.889C919.552 858.373 915.583 872.616 923.476 881.684C931.138 890.443 947.062 890.708 952.278 901.015C954.54 905.439 954.078 910.614 954.448 915.568C956.063 935.43 974.434 952.725 995.159 954.008C1001.76 954.406 1008.41 953.345 1015.01 953.743C1024.7 954.318 1033.98 957.989 1043.63 958.918C1053.32 959.847 1064.58 957.105 1068.87 948.744L1103.45 933.793C1123.85 937.641 1144.3 941.49 1164.7 945.338C1168.9 946.135 1173.61 947.285 1175.68 950.823C1177.71 954.274 1176.42 958.52 1175.54 962.369C1163.64 1014.43 1229.46 1059.42 1222.4 1112.28C1221.01 1122.63 1216.86 1132.36 1213.86 1142.4C1191.98 1215.66 1233.24 1291.17 1273.08 1357.12C1278.34 1365.79 1284.39 1375.12 1294.31 1378.31C1304.19 1381.45 1314.85 1377.51 1324.45 1373.62C1342.96 1366.14 1361.42 1358.62 1379.93 1351.15C1387.09 1348.23 1394.66 1345.04 1398.95 1338.85C1405.87 1328.85 1401.81 1315.05 1406.52 1303.95C1411.04 1293.29 1422.81 1287.01 1428.58 1276.92C1439.85 1257.11 1424.98 1229.02 1439.57 1211.32C1454.75 1192.83 1491.13 1199.87 1503.13 1179.34C1505.81 1174.74 1506.73 1169.34 1506.91 1164.04C1507.98 1129.31 1478.99 1096.05 1488.77 1062.56C1496.34 1036.59 1523.99 1022 1544.12 1003.15C1581.27 968.429 1593.97 916.895 1605.05 868.281C1588.66 876.553 1572.23 884.825 1555.84 893.097C1551.23 895.441 1546.29 897.83 1541.02 897.565C1533.69 897.167 1527.87 891.681 1522.98 886.418C1477.23 837.494 1443.82 777.998 1426.46 714.433C1456.83 720.979 1479.45 745.441 1495.33 771.098C1511.16 796.754 1522.65 825.108 1542.22 848.331C1545.36 852.047 1549.06 855.807 1553.9 856.913C1559.21 858.107 1564.61 855.896 1569.5 853.551C1596.78 840.413 1620.65 821.658 1644.23 803.035C1654.3 795.073 1665 786.226 1667.87 774.061C1672.99 752.342 1642.8 731.95 1623.19 743.849C1612.06 730.048 1600.94 716.291 1589.81 702.489C1585.52 697.181 1581.09 691.519 1580.21 684.84C1579.34 678.16 1583.63 670.419 1590.6 669.8C1595.91 669.313 1600.52 672.896 1604.68 676.081C1640.63 703.949 1686.56 719.741 1732.76 720.183C1745.23 720.316 1758.52 719.52 1769.18 725.668C1778.92 731.286 1784.51 741.504 1791.89 749.821C1801.08 760.172 1813.4 767.78 1821.76 778.794C1829.05 788.393 1832.84 799.983 1836.48 811.351C1847.93 846.916 1859.38 882.481 1870.82 918.001C1884.95 901.811 1894.04 881.684 1896.81 860.761C1898.01 851.605 1898.06 842.183 1901.01 833.424C1906.46 817.411 1920.72 805.822 1934.29 795.161C1948.97 783.66 1964.43 771.761 1982.99 768.134C2001.54 764.462 2024.02 772.071 2030.02 789.322C2033.9 800.469 2031.18 814.89 2040.78 822.189C2045.39 825.683 2051.58 826.347 2057.35 827.32C2090.26 832.761 2120.26 852.666 2137.2 880.269C2144.08 891.46 2154.51 906.191 2167.07 901.236C2172.56 899.069 2175.7 893.628 2178.42 888.585C2188.53 869.962 2198.78 847.801 2189.41 828.824C2184.61 819.048 2174.77 810.82 2174.96 800.027L2168.64 765.435C2169.47 757.739 2180.59 756.013 2188.39 758.048C2196.19 760.083 2205.05 763.622 2211.75 759.287C2214.47 757.517 2216.22 754.731 2218.67 752.652C2227.3 745.176 2240.73 748.14 2252.14 746.061C2265.24 743.716 2276.18 734.117 2281.81 722.528C2287.45 710.938 2288.28 697.624 2286.48 684.972C2285.18 675.86 2284.77 663.165 2294.14 661.086C2295.15 652.239 2288.6 644.188 2281.35 638.57C2274.11 632.952 2265.66 628.44 2260.31 621.142C2254.95 613.843 2254.17 602.298 2261.69 597.078C2263.77 595.662 2266.26 594.822 2268.01 593.052C2271.71 589.337 2270.18 582.613 2265.84 579.561C2261.51 576.509 2255.46 576.597 2250.43 578.411C2246.5 579.826 2242.81 582.171 2238.66 582.082C2231.87 581.95 2226.93 575.049 2226.84 568.546C2226.75 562.044 2230.16 556.028 2233.67 550.454C2237.13 544.969 2243.69 538.776 2249.41 542.094C2251.67 543.421 2252.97 545.942 2255.27 547.181C2262.75 551.295 2271.11 538.998 2279.32 541.563C2281.12 542.138 2282.65 543.377 2284.03 544.615C2300.74 559.522 2313.34 578.632 2320.08 599.555C2321.88 605.084 2324.1 611.587 2329.87 613.268C2336.1 615.081 2342.56 609.242 2343.16 603.05C2343.76 596.857 2340.16 590.973 2335.87 586.285C2331.57 581.596 2326.45 577.615 2322.9 572.395C2315.28 561.248 2316.25 546.694 2318.93 533.601C2319.85 529.001 2321.46 523.869 2325.9 521.879C2331.07 519.534 2337.48 522.852 2342.88 520.95C2346.53 519.667 2348.84 516.305 2350.68 513.032C2363.01 491.136 2364.67 464.02 2355.07 440.885C2350.77 430.534 2343.39 420.316 2332.27 417.042C2328.3 415.892 2323.91 415.627 2320.4 413.459C2310.57 407.355 2313.25 390.059 2302.49 385.591C2295.34 382.628 2286.98 387.715 2279.41 385.945C2272.4 384.264 2268.15 376.921 2267.97 369.976C2267.78 363.032 2270.74 356.396 2273.64 350.071C2275.17 346.709 2276.83 343.17 2279.97 341.003C2283.85 338.304 2289.02 338.393 2293.82 338.614C2321.88 339.764 2349.94 340.914 2378.05 342.064C2379.9 342.153 2381.93 342.153 2383.36 341.047C2388.53 337.066 2379.49 325.874 2385.76 323.751C2392.87 326.449 2401.09 329.059 2407.87 325.697C2410.13 324.547 2412.07 322.822 2414.47 322.07C2422.78 319.505 2429.34 330.077 2428.27 338.349C2427.21 346.621 2422.27 354.406 2423.01 362.722C2424.4 378.912 2444.61 386.166 2455.18 398.862C2459.8 404.391 2462.57 411.115 2466.86 416.865C2471.16 422.616 2477.85 427.614 2485.19 426.951C2490.68 409.124 2495.16 387.228 2481.4 374.179C2476.88 369.844 2470.88 367.234 2465.99 363.253C2461.09 359.272 2457.26 352.99 2459.25 347.196C2461.23 341.489 2468.02 338.658 2474.25 338.26C2480.48 337.862 2486.76 339.233 2492.99 338.835C2495.25 338.658 2497.65 338.216 2499.17 336.579C2501.9 333.66 2500.14 329.015 2500.83 325.167C2501.53 320.964 2505.08 317.779 2506.88 313.887C2511.36 304.022 2503.42 292.875 2494.14 286.771C2484.86 280.666 2473.69 276.862 2466.54 268.546L2430.58 252.4L2430.31 252.489Z" fill="#949599"/>
<path d="M890.061 462.996C897.215 464.499 905.893 462.199 911.155 467.065C912.77 468.569 913.786 470.515 915.078 472.285C918.909 477.328 925.048 480.07 930.449 483.52C935.849 486.971 941.065 492.058 940.927 498.251C940.881 501.745 939.034 505.063 936.542 507.628C930.126 514.219 917.848 515.546 911.34 509C908.108 505.726 906.678 501.17 904.093 497.366C901.508 493.562 896.615 490.377 892.276 492.102C890.43 492.854 888.999 494.402 887.845 495.95C884.66 500.33 882.675 505.505 882.214 510.813C881.891 514.617 882.214 518.643 880.506 522.049C877.367 528.153 869.105 529.613 862.043 530.277C860.427 530.454 858.627 530.586 857.242 529.79C855.904 529.038 855.165 527.578 854.611 526.207C850.919 516.652 852.996 505.24 859.873 497.499C863.889 492.942 869.797 488.607 869.197 482.68C868.782 478.92 865.689 475.779 865.412 471.975C865.181 468.79 867.028 465.782 867.259 462.597C867.397 460.474 866.843 458.351 866.889 456.228C867.028 451.981 869.936 447.911 874.044 446.275C878.152 444.638 883.229 445.567 886.46 448.486L890.061 462.951V462.996Z" fill="#949599"/>
</g>
</g>
</g>
<path d="M730.524 329.314C729.953 328.001 729.407 326.673 728.885 325.33" stroke="url(#paint8_linear_157_170)" stroke-width="2" stroke-linecap="round" stroke-linejoin="round"/>
<path d="M726.982 317.185C713.865 275.723 721.913 228.851 747.229 193.463C775.07 154.547 822.4 129.984 871.636 126.339C898.442 124.354 928.347 129.558 945.879 149.503C950.368 154.614 953.992 161.058 953.196 167.638C952.048 177.2 941.068 183.729 931.153 182.199C921.239 180.668 913.212 172.618 909.931 163.457C906.659 154.292 907.505 144.237 910.047 134.948C917.517 107.613 939.172 85.3644 965.03 72.1688C995.261 56.7379 1031.74 52.7586 1065.2 61.2455C1075.07 63.7463 1084.64 67.3297 1093.74 71.8537" stroke="url(#paint9_linear_157_170)" stroke-width="2" stroke-linecap="round" stroke-linejoin="round" stroke-dasharray="9.14 9.14"/>
<path d="M1097.86 72.9193C1099.16 73.6188 1100.45 74.3361 1101.73 75.0714" stroke="url(#paint10_linear_157_170)" stroke-width="2" stroke-linecap="round" stroke-linejoin="round"/>
<path d="M1103.73 87.9938C1105.7 89.0457 1108.13 88.8501 1109.89 87.4872L1112.57 85.4193L1123.26 91.3235L1103.83 111.205C1107.69 112.375 1111.86 111.743 1114.96 109.495L1132.82 96.6179L1138.89 99.9728C1142.5 101.952 1146.76 102.336 1150.21 100.971C1149.61 97.4372 1147.03 94.1645 1143.37 92.2706L1137.21 89.0804L1139.28 67.746C1139.65 64.0266 1138.02 60.2995 1134.96 57.7578L1127.5 84.0325L1116.64 78.4107L1117.08 75.1359C1117.36 72.9985 1116.26 70.9015 1114.29 69.8497L1112.04 68.6478L1111.32 75.9462C1108.8 75.2643 1105.43 75.1018 1104.59 76.554C1103.75 78.0062 1105.66 80.6639 1107.59 82.3609L1101.48 86.7791L1103.74 87.9809L1103.73 87.9938Z" fill="#1B5D82"/>
<circle cx="1629" cy="311.724" r="12" fill="#1B5D82"/>
<circle cx="1736" cy="583.724" r="8" fill="#1B5D82"/>
<circle cx="1628.5" cy="311.224" r="22" stroke="#1B8282" stroke-opacity="0.31" stroke-dasharray="3 3"/>
<circle cx="1736" cy="583.724" r="17.5" stroke="#1B8282" stroke-opacity="0.31" stroke-dasharray="3 3"/>
<path d="M1915.23 706.022C1915.45 706.803 1915.66 707.59 1915.85 708.383" stroke="url(#paint11_linear_157_170)" stroke-width="2" stroke-linecap="round" stroke-linejoin="round"/>
<path d="M1916.16 713.174C1920.44 737.561 1912.36 763.465 1895.4 781.62C1876.75 801.584 1848.17 812.018 1820.1 810.492C1804.82 809.66 1788.32 804.541 1779.93 791.992C1777.78 788.776 1776.22 784.87 1777.17 781.21C1778.54 775.89 1785.23 772.999 1790.71 774.587C1796.19 776.174 1800.12 781.308 1801.28 786.724C1802.44 792.143 1801.2 797.763 1799.06 802.828C1792.78 817.732 1778.88 828.728 1763.29 834.302C1745.05 840.82 1724.16 840.411 1705.91 833.178C1700.52 831.045 1695.39 828.323 1690.6 825.104" stroke="url(#paint12_linear_157_170)" stroke-width="2" stroke-linecap="round" stroke-linejoin="round" stroke-dasharray="9.14 9.14"/>
<path d="M1688.4 824.484C1687.72 823.996 1687.05 823.499 1686.39 822.993" stroke="url(#paint13_linear_157_170)" stroke-width="2" stroke-linecap="round" stroke-linejoin="round"/>
<path d="M1686.26 815.564C1685.23 814.832 1683.84 814.769 1682.75 815.413L1681.08 816.389L1675.51 812.303L1687.99 802.475C1685.91 801.542 1683.51 801.603 1681.59 802.649L1670.53 808.641L1667.37 806.32C1665.48 804.948 1663.11 804.43 1661.06 804.955C1661.13 806.989 1662.33 809.016 1664.24 810.343L1667.47 812.578L1664.66 824.455C1664.16 826.526 1664.79 828.742 1666.32 830.392L1672.55 816.112L1678.24 820.05L1677.74 821.865C1677.42 823.049 1677.88 824.309 1678.9 825.042L1680.08 825.879L1681.05 821.816C1682.42 822.38 1684.3 822.71 1684.89 821.951C1685.47 821.192 1684.61 819.559 1683.65 818.466L1687.43 816.408L1686.25 815.571L1686.26 815.564Z" fill="#1B5D82"/>
<path d="M159.333 185.259C159.333 184.92 159.193 184.595 158.943 184.356C158.693 184.116 158.354 183.982 158 183.982C157.646 183.982 157.307 184.116 157.057 184.356C156.807 184.595 156.667 184.92 156.667 185.259V200.065L148.572 192.304C148.45 192.182 148.302 192.085 148.14 192.018C147.977 191.951 147.802 191.915 147.625 191.914C147.448 191.912 147.273 191.944 147.109 192.009C146.945 192.073 146.796 192.168 146.671 192.287C146.545 192.407 146.446 192.55 146.379 192.707C146.312 192.864 146.278 193.032 146.28 193.202C146.281 193.372 146.318 193.539 146.388 193.695C146.457 193.851 146.559 193.992 146.686 194.11L154.782 201.87H139.333C138.98 201.87 138.641 202.005 138.391 202.245C138.14 202.484 138 202.809 138 203.148C138 203.487 138.14 203.812 138.391 204.052C138.641 204.291 138.98 204.426 139.333 204.426H154.782L146.686 212.183C146.443 212.424 146.309 212.747 146.312 213.082C146.314 213.417 146.454 213.737 146.702 213.974C146.949 214.211 147.283 214.346 147.633 214.349C147.982 214.352 148.319 214.223 148.571 213.991L156.667 206.234V221.037C156.667 221.376 156.807 221.701 157.057 221.941C157.307 222.18 157.646 222.315 158 222.315C158.354 222.315 158.693 222.18 158.943 221.941C159.193 221.701 159.333 221.376 159.333 221.037V206.232L167.428 213.991C167.679 214.224 168.016 214.352 168.365 214.35C168.715 214.347 169.049 214.213 169.297 213.976C169.544 213.739 169.684 213.419 169.688 213.084C169.691 212.749 169.557 212.426 169.314 212.185L161.22 204.426H176.667C177.02 204.426 177.359 204.291 177.609 204.052C177.86 203.812 178 203.487 178 203.148C178 202.809 177.86 202.484 177.609 202.245C177.359 202.005 177.02 201.87 176.667 201.87H161.218L169.314 194.114C169.441 193.996 169.543 193.855 169.613 193.699C169.683 193.543 169.72 193.375 169.721 193.206C169.723 193.036 169.689 192.868 169.622 192.711C169.555 192.554 169.456 192.411 169.331 192.291C169.206 192.171 169.057 192.076 168.893 192.012C168.73 191.947 168.554 191.915 168.377 191.916C168.2 191.918 168.025 191.953 167.862 192.02C167.7 192.087 167.552 192.184 167.429 192.306L159.333 200.063V185.259Z" fill="#1B5D82" fill-opacity="0.51"/>
</g>
<defs>
<filter id="filter0_b_157_170" x="-15.5" y="-14.7764" width="1951" height="973" filterUnits="userSpaceOnUse" color-interpolation-filters="sRGB">
<feFlood flood-opacity="0" result="BackgroundImageFix"/>
<feGaussianBlur in="BackgroundImageFix" stdDeviation="7.75"/>
<feComposite in2="SourceAlpha" operator="in" result="effect1_backgroundBlur_157_170"/>
<feBlend mode="normal" in="SourceGraphic" in2="effect1_backgroundBlur_157_170" result="shape"/>
</filter>
<linearGradient id="paint0_linear_157_170" x1="1802" y1="920.706" x2="1802" y2="348.833" gradientUnits="userSpaceOnUse">
<stop stop-opacity="0.4"/>
<stop offset="1"/>
</linearGradient>
<linearGradient id="paint1_linear_157_170" x1="1562.01" y1="942.198" x2="1562.01" y2="452.779" gradientUnits="userSpaceOnUse">
<stop stop-opacity="0.4"/>
<stop offset="1"/>
</linearGradient>
<linearGradient id="paint2_linear_157_170" x1="1311.17" y1="938.808" x2="1311.17" y2="705.131" gradientUnits="userSpaceOnUse">
<stop stop-opacity="0.4"/>
<stop offset="1"/>
</linearGradient>
<linearGradient id="paint3_linear_157_170" x1="140.907" y1="917.551" x2="140.907" y2="348.833" gradientUnits="userSpaceOnUse">
<stop stop-opacity="0.4"/>
<stop offset="1"/>
</linearGradient>
<linearGradient id="paint4_linear_157_170" x1="892.993" y1="942.69" x2="892.993" y2="746.456" gradientUnits="userSpaceOnUse">
<stop stop-opacity="0.4"/>
<stop offset="1"/>
</linearGradient>
<linearGradient id="paint5_linear_157_170" x1="460.153" y1="919.384" x2="460.153" y2="693.025" gradientUnits="userSpaceOnUse">
<stop stop-opacity="0.4"/>
<stop offset="1"/>
</linearGradient>
<linearGradient id="paint6_linear_157_170" x1="460.202" y1="858.222" x2="460.202" y2="601.979" gradientUnits="userSpaceOnUse">
<stop stop-opacity="0.4"/>
<stop offset="1"/>
</linearGradient>
<linearGradient id="paint7_linear_157_170" x1="1412.5" y1="-424.276" x2="1412.5" y2="517.724" gradientUnits="userSpaceOnUse">
<stop stop-color="white"/>
<stop offset="1" stop-color="#F0FFFD" stop-opacity="0.72"/>
</linearGradient>
<linearGradient id="paint8_linear_157_170" x1="729.349" y1="327.537" x2="730.041" y2="327.079" gradientUnits="userSpaceOnUse">
<stop stop-color="white"/>
<stop offset="1" stop-color="#319185"/>
</linearGradient>
<linearGradient id="paint9_linear_157_170" x1="697.254" y1="272.214" x2="1065.34" y2="28.8953" gradientUnits="userSpaceOnUse">
<stop stop-color="white"/>
<stop offset="1" stop-color="#319185"/>
</linearGradient>
<linearGradient id="paint10_linear_157_170" x1="1098.92" y1="74.5222" x2="1100.62" y2="73.3973" gradientUnits="userSpaceOnUse">
<stop stop-color="white"/>
<stop offset="1" stop-color="#319185"/>
</linearGradient>
<linearGradient id="paint11_linear_157_170" x1="1915.33" y1="707.298" x2="1915.75" y2="707.092" gradientUnits="userSpaceOnUse">
<stop stop-color="#319185"/>
<stop offset="1" stop-color="white"/>
</linearGradient>
<linearGradient id="paint12_linear_157_170" x1="1698.91" y1="842.227" x2="1925.42" y2="732.237" gradientUnits="userSpaceOnUse">
<stop stop-color="#319185"/>
<stop offset="1" stop-color="white"/>
</linearGradient>
<linearGradient id="paint13_linear_157_170" x1="1686.86" y1="823.972" x2="1687.91" y2="823.464" gradientUnits="userSpaceOnUse">
<stop stop-color="#319185"/>
<stop offset="1" stop-color="white"/>
</linearGradient>
<clipPath id="clip0_157_170">
<rect width="1920" height="943" fill="white"/>
</clipPath>
</defs>
</svg>
