<svg width="199" height="63" viewBox="0 0 199 63" fill="none" xmlns="http://www.w3.org/2000/svg">
<rect width="194" height="58" fill="#1B5D82"/>
<rect x="5.5" y="5.5" width="193" height="57" stroke="#1B5D82"/>
<path d="M37.66 34.36H42.14V37H34.24V22.96H37.66V34.36ZM55.4912 31.24C55.4912 31.56 55.4713 31.8933 55.4313 32.24H47.6913C47.7446 32.9333 47.9646 33.4667 48.3512 33.84C48.7512 34.2 49.2379 34.38 49.8113 34.38C50.6646 34.38 51.2579 34.02 51.5912 33.3H55.2313C55.0446 34.0333 54.7046 34.6933 54.2113 35.28C53.7313 35.8667 53.1246 36.3267 52.3913 36.66C51.6579 36.9933 50.8379 37.16 49.9312 37.16C48.8379 37.16 47.8646 36.9267 47.0112 36.46C46.1579 35.9933 45.4912 35.3267 45.0112 34.46C44.5312 33.5933 44.2912 32.58 44.2912 31.42C44.2912 30.26 44.5246 29.2467 44.9912 28.38C45.4712 27.5133 46.1379 26.8467 46.9912 26.38C47.8446 25.9133 48.8246 25.68 49.9312 25.68C51.0113 25.68 51.9713 25.9067 52.8113 26.36C53.6513 26.8133 54.3046 27.46 54.7713 28.3C55.2513 29.14 55.4912 30.12 55.4912 31.24ZM51.9913 30.34C51.9913 29.7533 51.7913 29.2867 51.3913 28.94C50.9913 28.5933 50.4913 28.42 49.8913 28.42C49.3179 28.42 48.8313 28.5867 48.4313 28.92C48.0446 29.2533 47.8046 29.7267 47.7113 30.34H51.9913ZM57.8155 31.4C57.8155 30.2533 58.0288 29.2467 58.4555 28.38C58.8955 27.5133 59.4888 26.8467 60.2355 26.38C60.9821 25.9133 61.8155 25.68 62.7355 25.68C63.5221 25.68 64.2088 25.84 64.7955 26.16C65.3955 26.48 65.8555 26.9 66.1755 27.42V25.84H69.5955V37H66.1755V35.42C65.8421 35.94 65.3755 36.36 64.7755 36.68C64.1888 37 63.5021 37.16 62.7155 37.16C61.8088 37.16 60.9821 36.9267 60.2355 36.46C59.4888 35.98 58.8955 35.3067 58.4555 34.44C58.0288 33.56 57.8155 32.5467 57.8155 31.4ZM66.1755 31.42C66.1755 30.5667 65.9355 29.8933 65.4555 29.4C64.9888 28.9067 64.4155 28.66 63.7355 28.66C63.0555 28.66 62.4755 28.9067 61.9955 29.4C61.5288 29.88 61.2955 30.5467 61.2955 31.4C61.2955 32.2533 61.5288 32.9333 61.9955 33.44C62.4755 33.9333 63.0555 34.18 63.7355 34.18C64.4155 34.18 64.9888 33.9333 65.4555 33.44C65.9355 32.9467 66.1755 32.2733 66.1755 31.42ZM76.6897 27.7C77.0897 27.0867 77.5897 26.6067 78.1897 26.26C78.7897 25.9 79.4564 25.72 80.1897 25.72V29.34H79.2497C78.3964 29.34 77.7564 29.5267 77.3297 29.9C76.903 30.26 76.6897 30.9 76.6897 31.82V37H73.2697V25.84H76.6897V27.7ZM89.8244 25.72C91.131 25.72 92.171 26.1467 92.9444 27C93.731 27.84 94.1244 29 94.1244 30.48V37H90.7244V30.94C90.7244 30.1933 90.531 29.6133 90.1444 29.2C89.7577 28.7867 89.2377 28.58 88.5844 28.58C87.931 28.58 87.411 28.7867 87.0244 29.2C86.6377 29.6133 86.4444 30.1933 86.4444 30.94V37H83.0244V25.84H86.4444V27.32C86.791 26.8267 87.2577 26.44 87.8444 26.16C88.431 25.8667 89.091 25.72 89.8244 25.72ZM119.039 22.96V37H115.619V28.58L112.479 37H109.719L106.559 28.56V37H103.139V22.96H107.179L111.119 32.68L115.019 22.96H119.039ZM127.779 37.16C126.685 37.16 125.699 36.9267 124.819 36.46C123.952 35.9933 123.265 35.3267 122.759 34.46C122.265 33.5933 122.019 32.58 122.019 31.42C122.019 30.2733 122.272 29.2667 122.779 28.4C123.285 27.52 123.979 26.8467 124.859 26.38C125.739 25.9133 126.725 25.68 127.819 25.68C128.912 25.68 129.899 25.9133 130.779 26.38C131.659 26.8467 132.352 27.52 132.859 28.4C133.365 29.2667 133.619 30.2733 133.619 31.42C133.619 32.5667 133.359 33.58 132.839 34.46C132.332 35.3267 131.632 35.9933 130.739 36.46C129.859 36.9267 128.872 37.16 127.779 37.16ZM127.779 34.2C128.432 34.2 128.985 33.96 129.439 33.48C129.905 33 130.139 32.3133 130.139 31.42C130.139 30.5267 129.912 29.84 129.459 29.36C129.019 28.88 128.472 28.64 127.819 28.64C127.152 28.64 126.599 28.88 126.159 29.36C125.719 29.8267 125.499 30.5133 125.499 31.42C125.499 32.3133 125.712 33 126.139 33.48C126.579 33.96 127.125 34.2 127.779 34.2ZM140.053 27.7C140.453 27.0867 140.953 26.6067 141.553 26.26C142.153 25.9 142.82 25.72 143.553 25.72V29.34H142.613C141.76 29.34 141.12 29.5267 140.693 29.9C140.266 30.26 140.053 30.9 140.053 31.82V37H136.633V25.84H140.053V27.7ZM156.908 31.24C156.908 31.56 156.888 31.8933 156.848 32.24H149.108C149.161 32.9333 149.381 33.4667 149.768 33.84C150.168 34.2 150.654 34.38 151.228 34.38C152.081 34.38 152.674 34.02 153.008 33.3H156.648C156.461 34.0333 156.121 34.6933 155.628 35.28C155.148 35.8667 154.541 36.3267 153.808 36.66C153.074 36.9933 152.254 37.16 151.348 37.16C150.254 37.16 149.281 36.9267 148.428 36.46C147.574 35.9933 146.908 35.3267 146.428 34.46C145.948 33.5933 145.708 32.58 145.708 31.42C145.708 30.26 145.941 29.2467 146.408 28.38C146.888 27.5133 147.554 26.8467 148.408 26.38C149.261 25.9133 150.241 25.68 151.348 25.68C152.428 25.68 153.388 25.9067 154.228 26.36C155.068 26.8133 155.721 27.46 156.188 28.3C156.668 29.14 156.908 30.12 156.908 31.24ZM153.408 30.34C153.408 29.7533 153.208 29.2867 152.808 28.94C152.408 28.5933 151.908 28.42 151.308 28.42C150.734 28.42 150.248 28.5867 149.848 28.92C149.461 29.2533 149.221 29.7267 149.128 30.34H153.408Z" fill="white"/>
</svg>
