<svg width="14" height="24" viewBox="0 0 14 24" fill="none" xmlns="http://www.w3.org/2000/svg">
<path d="M4.49279 8.09591V17.0497C4.50323 17.7058 4.77308 18.3315 5.24411 18.7918C5.71514 19.2521 6.34958 19.5101 7.01052 19.5101C7.67146 19.5101 8.3059 19.2521 8.77693 18.7918C9.24797 18.3315 9.51782 17.7058 9.52826 17.0497L9.53643 5.28909C9.54328 4.7283 9.43794 4.17175 9.22653 3.65168C9.01511 3.13161 8.70182 2.65838 8.30482 2.25942C7.90781 1.86046 7.43499 1.5437 6.91376 1.32751C6.39253 1.11132 5.83326 1 5.26837 1C4.70348 1 4.14421 1.11132 3.62298 1.32751C3.10175 1.5437 2.62893 1.86046 2.23192 2.25942C1.83492 2.65838 1.52163 3.13161 1.31021 3.65168C1.0988 4.17175 0.993461 4.7283 1.00031 5.28909V17.1289C1.02313 18.6938 1.66529 20.1869 2.78799 21.2855C3.9107 22.3841 5.42377 23 7.00016 23C8.57654 23 10.0896 22.3841 11.2123 21.2855C12.335 20.1869 12.9772 18.6938 13 17.1289V6.06502" stroke="#6C7479" stroke-width="2" stroke-miterlimit="10" stroke-linecap="square"/>
</svg>
