<svg width="53" height="42" viewBox="0 0 53 42" fill="none" xmlns="http://www.w3.org/2000/svg">
<path d="M5.3 42C3.8425 42 2.59523 41.4864 1.5582 40.4591C0.521167 39.4319 0.00176667 38.1955 0 36.75V5.25C0 3.80625 0.5194 2.57075 1.5582 1.5435C2.597 0.516249 3.84427 0.00175 5.3 0H47.7C49.1575 0 50.4056 0.514499 51.4444 1.5435C52.4832 2.5725 53.0018 3.808 53 5.25V36.75C53 38.1937 52.4815 39.4301 51.4444 40.4591C50.4074 41.4881 49.1593 42.0017 47.7 42H5.3ZM26.5 23.625L5.3 10.5V36.75H47.7V10.5L26.5 23.625ZM26.5 18.375L47.7 5.25H5.3L26.5 18.375ZM5.3 10.5V5.25V36.75V10.5Z" fill="#1B5D82"/>
</svg>
