<svg width="23" height="56" viewBox="0 0 23 56" fill="none" xmlns="http://www.w3.org/2000/svg">
<path d="M18.1713 30.6212L20.8441 33.3518C21.0837 33.6118 21.2671 33.8833 21.3944 34.1663C21.5217 34.4493 21.5853 34.7515 21.5853 35.0727C21.5853 35.3633 21.5254 35.6578 21.4056 35.9561C21.2859 36.2544 21.1062 36.5259 20.8666 36.7707C20.7618 36.8931 20.6532 37.0078 20.5409 37.1149C20.4286 37.222 20.32 37.3214 20.2152 37.4132C20.0655 37.5661 19.9195 37.7153 19.7772 37.8606C19.635 38.0059 19.504 38.1551 19.3842 38.3081C19.3842 38.3233 19.3804 38.331 19.3729 38.331C19.3654 38.331 19.3617 38.331 19.3617 38.331C18.9874 38.744 18.5681 39.0538 18.1039 39.2603C17.6397 39.4668 17.1231 39.5701 16.5541 39.5701C16.5092 39.5701 16.4605 39.5701 16.4081 39.5701C16.3557 39.5701 16.2995 39.5701 16.2396 39.5701C15.4161 39.5089 14.6412 39.3444 13.9149 39.0767C13.1887 38.809 12.5411 38.5375 11.9721 38.2622C11.2533 37.9103 10.5495 37.5126 9.86072 37.069C9.17192 36.6407 8.50932 36.1703 7.87293 35.6578C7.23654 35.1454 6.62635 34.5985 6.04236 34.0172C5.45838 33.4512 4.90434 32.8393 4.38025 32.1815C3.49679 31.1107 2.75558 30.0591 2.15662 29.0265C1.55766 27.9939 1.05603 26.9346 0.651738 25.8485C0.501998 25.4202 0.348515 24.881 0.191288 24.2308C0.0340618 23.5807 -0.0146035 22.8962 0.0452923 22.1772C0.0752402 21.7336 0.180058 21.3167 0.359745 20.9266C0.539433 20.5366 0.786503 20.1886 1.10096 19.8826L2.7406 18.1617C2.99516 17.9169 3.26095 17.7334 3.53797 17.611C3.81499 17.4886 4.10324 17.4274 4.40271 17.4274C4.70219 17.4274 4.99044 17.4886 5.26746 17.611C5.54448 17.7334 5.79529 17.9169 6.0199 18.1617C6.18462 18.3146 6.34184 18.4676 6.49158 18.6206C6.64132 18.7736 6.79106 18.9265 6.9408 19.0795C7.01567 19.156 7.09054 19.2363 7.16541 19.3204C7.24028 19.4046 7.31515 19.4849 7.39002 19.5614L8.71521 20.9152C9.22433 21.4353 9.47889 22.0051 9.47889 22.6246C9.47889 23.2442 9.22433 23.814 8.71521 24.3341C8.65532 24.4106 8.58794 24.4832 8.51307 24.5521C8.4382 24.6209 8.37081 24.6936 8.31092 24.7701C8.13123 24.9536 7.9478 25.141 7.76062 25.3322C7.57345 25.5234 7.38253 25.7108 7.18787 25.8944C7.33761 26.2309 7.5173 26.5675 7.72693 26.904C7.93657 27.2405 8.19113 27.6077 8.49061 28.0054C9.11951 28.7856 9.76339 29.4854 10.4222 30.1049C11.0811 30.7245 11.7699 31.2637 12.4887 31.7226C12.5635 31.7685 12.6421 31.8144 12.7245 31.8603C12.8068 31.9062 12.8855 31.9521 12.9603 31.998C13.0202 32.0286 13.0839 32.0592 13.1512 32.0898C13.2186 32.1203 13.2823 32.1509 13.3422 32.1815L14.8695 30.6212C15.1241 30.3765 15.3899 30.1891 15.6669 30.0591C15.9439 29.929 16.2321 29.864 16.5316 29.864C16.8311 29.864 17.1231 29.929 17.4076 30.0591C17.6921 30.1891 17.9467 30.3765 18.1713 30.6212ZM19.9232 35.8529C20.1628 35.5928 20.2826 35.3328 20.2826 35.0727C20.2826 34.8126 20.1553 34.5526 19.9008 34.2925L17.2279 31.562C17.153 31.4702 17.0557 31.3861 16.9359 31.3096C16.8161 31.2331 16.6814 31.1949 16.5316 31.1949C16.3819 31.1949 16.2434 31.2369 16.1161 31.3211C15.9888 31.4052 15.8803 31.4855 15.7904 31.562L14.1283 33.26C14.0834 33.3059 14.001 33.3747 13.8812 33.4665C13.7614 33.5583 13.5967 33.6042 13.3871 33.6042C13.3122 33.6042 13.2373 33.5927 13.1625 33.5698C13.0876 33.5468 13.0053 33.52 12.9154 33.4894C12.9004 33.4741 12.8892 33.4627 12.8817 33.455C12.8742 33.4474 12.863 33.4436 12.848 33.4436C12.7881 33.3977 12.717 33.3556 12.6346 33.3173C12.5523 33.2791 12.4662 33.237 12.3763 33.1911C12.2865 33.13 12.1892 33.0726 12.0844 33.0191C11.9795 32.9655 11.8747 32.9082 11.7699 32.847C10.9913 32.3422 10.2463 31.7609 9.53504 31.1031C8.82378 30.4453 8.13872 29.6957 7.47986 28.8544L7.4574 28.8315C7.09803 28.3572 6.79106 27.9098 6.5365 27.4891C6.28195 27.0685 6.06482 26.644 5.88514 26.2156C5.88514 26.2156 5.88514 26.2118 5.88514 26.2042C5.88514 26.1965 5.88514 26.185 5.88514 26.1697C5.84021 26.0321 5.81775 25.8638 5.81775 25.6649C5.81775 25.4661 5.92257 25.2596 6.13221 25.0454C6.13221 25.0454 6.13595 25.0454 6.14344 25.0454C6.15092 25.0454 6.15467 25.0378 6.15467 25.0225C6.3643 24.8389 6.57019 24.6477 6.77234 24.4488C6.97449 24.25 7.1729 24.0434 7.36756 23.8293C7.44243 23.7528 7.51355 23.6801 7.58094 23.6113C7.64832 23.5425 7.71945 23.4698 7.79432 23.3933C8.04887 23.1333 8.17615 22.877 8.17615 22.6246C8.17615 22.3722 8.04887 22.116 7.79432 21.8559L6.46912 20.5021C6.39425 20.4257 6.31564 20.3453 6.23328 20.2612C6.15092 20.1771 6.07231 20.0968 5.99744 20.0203C5.86268 19.8673 5.72042 19.7182 5.57068 19.5728C5.42094 19.4275 5.27869 19.2784 5.14393 19.1254C5.12895 19.1254 5.12146 19.1254 5.12146 19.1254C5.04659 19.0489 4.94926 18.9724 4.82947 18.8959C4.70968 18.8195 4.56743 18.7812 4.40271 18.7812C4.28292 18.7812 4.15939 18.808 4.03211 18.8615C3.90483 18.9151 3.78878 19.003 3.68396 19.1254L2.02185 20.8234C1.81222 21.0222 1.65499 21.2441 1.55018 21.4888C1.44536 21.7336 1.37797 22.0013 1.34803 22.2919C1.31808 22.7355 1.34428 23.2097 1.42664 23.7146C1.509 24.2194 1.66248 24.7777 1.88709 25.3896C2.26144 26.3992 2.73312 27.3897 3.30213 28.3611C3.87114 29.3324 4.56743 30.3229 5.391 31.3325C5.88514 31.9444 6.40922 32.5257 6.96326 33.0764C7.5173 33.6271 8.09379 34.1396 8.69275 34.6138C9.29171 35.088 9.91313 35.5316 10.557 35.9446C11.2009 36.3577 11.8672 36.7324 12.556 37.069C13.0502 37.3137 13.6229 37.5585 14.2743 37.8032C14.9257 38.048 15.6107 38.1933 16.3295 38.2392C16.3744 38.2392 16.4156 38.2392 16.453 38.2392C16.4904 38.2392 16.5241 38.2392 16.5541 38.2392C16.9434 38.2392 17.2841 38.1742 17.5761 38.0442C17.868 37.9141 18.1413 37.7191 18.3959 37.4591C18.5456 37.2755 18.6991 37.0996 18.8563 36.9313C19.0136 36.763 19.167 36.6024 19.3168 36.4494C19.4216 36.3424 19.5227 36.2429 19.62 36.1512C19.7173 36.0594 19.8184 35.9599 19.9232 35.8529ZM12.4213 21.6724C12.2416 21.6418 12.1031 21.55 12.0057 21.397C11.9084 21.2441 11.8747 21.0758 11.9047 20.8922C11.9346 20.7087 12.0245 20.5633 12.1742 20.4563C12.3239 20.3492 12.4887 20.3109 12.6683 20.3415C13.432 20.4792 14.1582 20.7316 14.8471 21.0987C15.5359 21.4659 16.1573 21.9324 16.7113 22.4984C17.2653 23.0644 17.722 23.6993 18.0814 24.4029C18.4408 25.1066 18.6879 25.8485 18.8226 26.6287C18.8526 26.8122 18.8151 26.9805 18.7103 27.1335C18.6055 27.2864 18.4633 27.3782 18.2836 27.4088C18.2536 27.4088 18.2312 27.4088 18.2162 27.4088C18.2012 27.4088 18.1862 27.4088 18.1713 27.4088C18.0066 27.4088 17.8643 27.3591 17.7445 27.2597C17.6247 27.1602 17.5499 27.0264 17.5199 26.8581C17.4151 26.2156 17.2129 25.6038 16.9135 25.0225C16.614 24.4412 16.2396 23.9134 15.7904 23.4392C15.3262 22.965 14.8096 22.5787 14.2406 22.2804C13.6716 21.9821 13.0651 21.7795 12.4213 21.6724ZM22.9779 26.4451C23.0079 26.6287 22.9704 26.7931 22.8656 26.9384C22.7608 27.0838 22.6185 27.1717 22.4388 27.2023C22.4239 27.2023 22.4052 27.2023 22.3827 27.2023C22.3602 27.2023 22.3415 27.2023 22.3265 27.2023C22.1768 27.2023 22.0383 27.1526 21.911 27.0532C21.7837 26.9537 21.7051 26.8199 21.6752 26.6516C21.4955 25.5043 21.1399 24.4106 20.6083 23.3704C20.0767 22.3302 19.4066 21.397 18.598 20.571C17.7745 19.7296 16.8573 19.0413 15.8466 18.5059C14.8358 17.9705 13.7614 17.6033 12.6234 17.4045C12.4437 17.3739 12.3015 17.2821 12.1967 17.1291C12.0918 16.9761 12.0544 16.8079 12.0844 16.6243C12.1143 16.4407 12.2041 16.2954 12.3539 16.1883C12.5036 16.0813 12.6683 16.043 12.848 16.0736C13.4769 16.196 14.0909 16.3566 14.6898 16.5555C15.2888 16.7696 15.869 17.022 16.4305 17.3127C16.9921 17.6033 17.5349 17.9475 18.059 18.3452C18.5681 18.7277 19.0547 19.156 19.5189 19.6302C19.9681 20.0891 20.3874 20.5863 20.7767 21.1217C21.1511 21.6418 21.4843 22.1887 21.7762 22.7623C22.0682 23.3359 22.3116 23.9287 22.5062 24.5406C22.7159 25.1525 22.8731 25.7873 22.9779 26.4451Z" fill="white"/>
</svg>
