<svg width="87" height="34" viewBox="0 0 87 34" fill="none" xmlns="http://www.w3.org/2000/svg">
<circle cx="17" cy="17" r="17" fill="#1B5D82"/>
<circle cx="17" cy="17" r="17" transform="matrix(-1 0 0 1 86.4165 0)" fill="#1B5D82"/>
<path fill-rule="evenodd" clip-rule="evenodd" d="M22.7673 18.5173L14.7532 26.5313L12.75 24.5282L19.7625 17.5157L12.75 10.5032L14.7532 8.5L22.7673 16.5141C23.0328 16.7797 23.182 17.14 23.182 17.5157C23.182 17.8913 23.0328 18.2516 22.7673 18.5173Z" fill="white"/>
<path fill-rule="evenodd" clip-rule="evenodd" d="M63.6493 18.5173L71.6633 26.5313L73.6665 24.5282L66.654 17.5157L73.6665 10.5032L71.6633 8.5L63.6493 16.5141C63.3837 16.7797 63.2345 17.14 63.2345 17.5157C63.2345 17.8913 63.3837 18.2516 63.6493 18.5173Z" fill="white"/>
</svg>
