<svg width="22" height="32" viewBox="0 0 22 32" fill="none" xmlns="http://www.w3.org/2000/svg">
<path d="M10.875 0C12.375 0 13.7812 0.28125 15.0938 0.84375C16.4062 1.42708 17.5573 2.20833 18.5469 3.1875C19.5365 4.16667 20.3125 5.3125 20.875 6.625C21.4583 7.95833 21.75 9.375 21.75 10.875C21.75 11.4583 21.6562 12.1354 21.4688 12.9062C21.2812 13.6771 21.0052 14.5365 20.6406 15.4844C20.276 16.4323 19.8125 17.4792 19.25 18.625C18.6875 19.7708 18.0312 21.0208 17.2812 22.375C16.2396 24.25 15.2865 25.8698 14.4219 27.2344C13.5573 28.599 13.1042 29.3125 13.0625 29.375L11.5625 31.625C11.4792 31.75 11.3802 31.8438 11.2656 31.9062C11.151 31.9688 11.0208 32 10.875 32C10.7292 32 10.599 31.9688 10.4844 31.9062C10.3698 31.8438 10.2708 31.75 10.1875 31.625L8.6875 29.375C8.64583 29.3125 8.19271 28.5938 7.32812 27.2188C6.46354 25.8438 5.51042 24.2292 4.46875 22.375C3.71875 21.0208 3.0625 19.7708 2.5 18.625C1.9375 17.4792 1.47396 16.4323 1.10938 15.4844C0.744792 14.5365 0.46875 13.6771 0.28125 12.9062C0.09375 12.1354 0 11.4583 0 10.875C0 9.375 0.291667 7.95833 0.875 6.625C1.4375 5.3125 2.21354 4.16667 3.20312 3.1875C4.19271 2.20833 5.34375 1.42708 6.65625 0.84375C7.96875 0.28125 9.375 0 10.875 0ZM15.8438 21.5938C16.5521 20.3229 17.1771 19.1458 17.7188 18.0625C18.2396 16.9792 18.6771 15.9896 19.0312 15.0938C19.3854 14.1979 19.6562 13.3958 19.8438 12.6875C20.0104 11.9792 20.0938 11.375 20.0938 10.875C20.0938 9.58333 19.8542 8.38542 19.375 7.28125C18.8958 6.15625 18.2396 5.17708 17.4062 4.34375C16.5729 3.51042 15.5938 2.84375 14.4688 2.34375C13.3438 1.86458 12.1458 1.625 10.875 1.625C9.60417 1.625 8.40625 1.86458 7.28125 2.34375C6.15625 2.84375 5.17708 3.51042 4.34375 4.34375C3.51042 5.17708 2.85417 6.15625 2.375 7.28125C1.89583 8.38542 1.65625 9.58333 1.65625 10.875C1.65625 11.375 1.73958 11.9792 1.90625 12.6875C2.09375 13.3958 2.36458 14.1979 2.71875 15.0938C3.07292 15.9896 3.51042 16.9792 4.03125 18.0625C4.57292 19.1458 5.19792 20.3229 5.90625 21.5938C6.92708 23.4271 7.86458 25.0156 8.71875 26.3594C9.57292 27.7031 10.0208 28.4062 10.0625 28.4688L10.875 29.7188L11.6875 28.4688C11.7292 28.4062 12.1771 27.7031 13.0312 26.3594C13.8854 25.0156 14.8229 23.4271 15.8438 21.5938ZM10.875 4.78125C12.5417 4.78125 13.9635 5.36979 15.1406 6.54688C16.3177 7.72396 16.9062 9.13542 16.9062 10.7812C16.9062 12.4479 16.3177 13.8698 15.1406 15.0469C13.9635 16.224 12.5417 16.8125 10.875 16.8125C9.20833 16.8125 7.78646 16.224 6.60938 15.0469C5.43229 13.8698 4.84375 12.4479 4.84375 10.7812C4.84375 9.13542 5.43229 7.72396 6.60938 6.54688C7.78646 5.36979 9.20833 4.78125 10.875 4.78125ZM10.875 15.1875C12.0833 15.1875 13.1198 14.7604 13.9844 13.9062C14.849 13.0521 15.2812 12.0104 15.2812 10.7812C15.2812 9.57292 14.849 8.54167 13.9844 7.6875C13.1198 6.83333 12.0833 6.40625 10.875 6.40625C9.66667 6.40625 8.63021 6.83333 7.76562 7.6875C6.90104 8.54167 6.46875 9.57292 6.46875 10.7812C6.46875 12.0104 6.90104 13.0521 7.76562 13.9062C8.63021 14.7604 9.66667 15.1875 10.875 15.1875Z" fill="#1B5D82"/>
</svg>
