<svg width="40" height="40" viewBox="0 0 40 40" fill="none" xmlns="http://www.w3.org/2000/svg">
<path d="M21.3333 1.33333C21.3333 0.979711 21.1929 0.640573 20.9428 0.390524C20.6928 0.140476 20.3536 0 20 0C19.6464 0 19.3072 0.140476 19.0572 0.390524C18.8071 0.640573 18.6667 0.979711 18.6667 1.33333V16.7822L10.5724 8.68445C10.4495 8.55704 10.3024 8.4554 10.1398 8.38544C9.97715 8.31549 9.80221 8.27862 9.62517 8.277C9.44814 8.27538 9.27255 8.30903 9.10865 8.376C8.94476 8.44296 8.79585 8.5419 8.6706 8.66703C8.54535 8.79216 8.44628 8.94098 8.37916 9.10481C8.31204 9.26864 8.27822 9.44419 8.27967 9.62123C8.28113 9.79827 8.31783 9.97325 8.38763 10.136C8.45743 10.2987 8.55894 10.4458 8.68622 10.5689L16.7822 18.6667H1.33333C0.979711 18.6667 0.640573 18.8071 0.390524 19.0572C0.140476 19.3072 0 19.6464 0 20C0 20.3536 0.140476 20.6928 0.390524 20.9428C0.640573 21.1929 0.979711 21.3333 1.33333 21.3333H16.7822L8.68622 29.4276C8.44322 29.6789 8.30867 30.0156 8.31154 30.3652C8.31441 30.7148 8.45448 31.0493 8.70158 31.2967C8.94867 31.544 9.28302 31.6844 9.63262 31.6876C9.98222 31.6908 10.3191 31.5565 10.5707 31.3138L18.6667 23.2196V38.6667C18.6667 39.0203 18.8071 39.3594 19.0572 39.6095C19.3072 39.8595 19.6464 40 20 40C20.3536 40 20.6928 39.8595 20.9428 39.6095C21.1929 39.3594 21.3333 39.0203 21.3333 38.6667V23.2178L29.4276 31.3138C29.6789 31.5568 30.0156 31.6913 30.3652 31.6885C30.7148 31.6856 31.0493 31.5455 31.2967 31.2984C31.544 31.0513 31.6844 30.717 31.6876 30.3674C31.6908 30.0178 31.5565 29.6809 31.3138 29.4293L23.2196 21.3333H38.6667C39.0203 21.3333 39.3594 21.1929 39.6095 20.9428C39.8595 20.6928 40 20.3536 40 20C40 19.6464 39.8595 19.3072 39.6095 19.0572C39.3594 18.8071 39.0203 18.6667 38.6667 18.6667H23.2178L31.3138 10.5724C31.4412 10.4495 31.5428 10.3024 31.6128 10.1398C31.6827 9.97715 31.7196 9.80221 31.7212 9.62517C31.7228 9.44814 31.6892 9.27255 31.6222 9.10865C31.5553 8.94476 31.4563 8.79585 31.3312 8.6706C31.2061 8.54535 31.0572 8.44628 30.8934 8.37916C30.7296 8.31204 30.554 8.27822 30.377 8.27967C30.1999 8.28113 30.025 8.31783 29.8623 8.38763C29.6996 8.45743 29.5524 8.55894 29.4293 8.68622L21.3333 16.7804V1.33333Z" fill="#1B5D82" fill-opacity="0.51"/>
</svg>
