<svg width="27" height="26" viewBox="0 0 27 26" fill="none" xmlns="http://www.w3.org/2000/svg">
<path d="M15.4014 6.72871e-09C16.4728 -6.15368e-05 17.5037 0.422056 18.2832 1.17999C19.0627 1.93792 19.5319 2.97436 19.5947 4.07726L19.6017 4.33137V10.1065H22.402C23.4312 10.1064 24.4248 10.4959 25.1939 11.2012C25.963 11.9065 26.4543 12.8785 26.5744 13.9326L26.5954 14.1838L26.6024 14.4379L26.5744 14.7209L25.1658 21.986C24.6324 24.3336 23.0628 26.0229 21.2315 25.9998L21.0019 25.9882H9.80087C9.45793 25.9882 9.12694 25.8583 8.87066 25.6233C8.61439 25.3884 8.45067 25.0646 8.41054 24.7134L8.40074 24.5444L8.40214 10.7764C8.4024 10.5233 8.46721 10.2746 8.59008 10.0554C8.71296 9.83619 8.88957 9.65416 9.10221 9.52757C9.69909 9.1718 10.2019 8.67 10.5662 8.06644C10.9305 7.46289 11.1452 6.77614 11.1912 6.0668L11.201 5.77516V4.33137C11.201 3.18262 11.6435 2.08092 12.4313 1.26863C13.219 0.45634 14.2874 6.72871e-09 15.4014 6.72871e-09ZM4.20037 10.1065C4.54331 10.1066 4.8743 10.2364 5.13058 10.4714C5.38685 10.7064 5.55057 11.0302 5.59069 11.3814L5.6005 11.5503V24.5444C5.60045 24.8981 5.47455 25.2394 5.24666 25.5036C5.01878 25.7679 4.70477 25.9367 4.36419 25.9781L4.20037 25.9882H2.80025C2.09378 25.9884 1.41333 25.7133 0.895312 25.218C0.377292 24.7226 0.0599861 24.0437 0.00700092 23.3172L1.40388e-07 23.1006V12.9941C-0.000223431 12.2656 0.266593 11.5639 0.746962 11.0298C1.22733 10.4956 1.88575 10.1684 2.59023 10.1137L2.80025 10.1065H4.20037Z" fill="#EDC7AA"/>
</svg>
