<svg width="87" height="37" viewBox="0 0 87 37" fill="none" xmlns="http://www.w3.org/2000/svg">
<ellipse cx="17" cy="18.5" rx="17" ry="18.5" fill="#1B5D82"/>
<path fill-rule="evenodd" clip-rule="evenodd" d="M22.7673 20.1511L14.7532 28.8723L12.75 26.6924L19.7625 19.0612L12.75 11.4299L14.7532 9.25L22.7673 17.9712C23.0328 18.2603 23.182 18.6524 23.182 19.0612C23.182 19.47 23.0328 19.862 22.7673 20.1511Z" fill="white"/>
<ellipse cx="17" cy="18.5" rx="17" ry="18.5" transform="matrix(-1 0 0 1 86.416 0)" fill="#1B5D82"/>
<path fill-rule="evenodd" clip-rule="evenodd" d="M63.6488 20.1511L71.6628 28.8723L73.666 26.6924L66.6535 19.0612L73.666 11.4299L71.6628 9.25L63.6488 17.9712C63.3832 18.2603 63.234 18.6524 63.234 19.0612C63.234 19.47 63.3832 19.862 63.6488 20.1511Z" fill="white"/>
</svg>
