<svg width="107" height="110" viewBox="0 0 107 110" fill="none" xmlns="http://www.w3.org/2000/svg">
<rect x="3.01578" y="3.01578" width="100.526" height="100.526" rx="50" fill="#1B5D82"/>
<path d="M105.05 52.7761C105.05 81.1182 82.5189 104.044 54.7866 104.044C27.0544 104.044 4.52366 81.1182 4.52366 52.7761C4.52366 24.434 27.0544 1.50789 54.7866 1.50789C82.5189 1.50789 105.05 24.434 105.05 52.7761Z" stroke="white" stroke-width="3"/>
<path d="M74.5902 57.3914C73.853 57.3914 73.2387 57.6371 72.7472 58.1286L70.5357 60.5244L70.3514 56.4699L75.696 51.1253C76.4332 50.3881 76.6789 49.528 76.4332 48.5451C76.1874 47.5622 75.5731 46.9479 74.5902 46.7021C73.6073 46.4564 72.7472 46.7021 72.01 47.4393L69.9828 49.2823L69.7985 44.8591L74.2216 40.8046C75.696 39.4531 76.8325 37.8251 77.6311 35.9207C78.4297 34.0163 78.7676 32.0812 78.6447 30.1154C78.6447 29.2553 78.3683 28.5488 77.8154 27.9959C77.2625 27.443 76.556 27.1666 75.696 27.1666C73.7301 27.0437 71.795 27.3816 69.8906 28.1802C67.9862 28.9789 66.3582 30.1154 65.0067 31.5897L60.9522 36.0129L56.5291 35.8286L58.372 33.8013C59.2321 33.0641 59.5085 32.2041 59.2014 31.2211C58.8942 30.2382 58.2492 29.6239 57.2662 29.3782C56.2833 29.1324 55.4233 29.3782 54.6861 30.1154L49.3415 35.46L45.2869 35.2757L47.6828 33.0641C48.42 32.3269 48.635 31.4669 48.3278 30.4839C48.0207 29.501 47.3756 28.8867 46.3927 28.641C45.4098 28.3952 44.5497 28.641 43.8125 29.3782L38.2836 34.9071L33.3076 34.7228C32.4475 34.7228 31.7103 34.9685 31.096 35.46C30.4817 35.9514 30.1131 36.5965 29.9902 37.3951C29.8674 38.1937 30.0209 38.9309 30.451 39.6067C30.881 40.2824 31.4646 40.7432 32.2018 40.9889L51.0001 46.5178L42.3381 55.7327C41.601 56.4699 40.9866 57.2071 40.4952 57.9443L31.4646 57.0228C30.7274 57.0228 30.0824 57.1764 29.5295 57.4835C28.9766 57.7907 28.5773 58.2821 28.3315 58.9579C28.0858 59.6337 28.0858 60.2787 28.3315 60.893C28.5773 61.5074 28.9459 61.9988 29.4373 62.3674L36.2563 66.9748C35.642 67.9578 35.0891 69.0021 34.5977 70.1079C34.4748 70.4765 34.5362 70.7837 34.782 71.0294C35.0277 71.2751 35.3348 71.3365 35.7034 71.2137C36.8092 70.7222 37.8536 70.1693 38.8365 69.555L43.4439 76.374C43.8125 76.8655 44.304 77.2341 44.9183 77.4798C45.5326 77.7255 46.1777 77.7255 46.8534 77.4798C47.5292 77.2341 48.0207 76.8348 48.3278 76.2819C48.635 75.729 48.7886 75.0839 48.7886 74.3467L47.8671 65.3162C48.6043 64.8247 49.3415 64.2104 50.0786 63.4732L59.2935 54.8112L64.8224 73.6096C65.0682 74.3467 65.5289 74.9303 66.2047 75.3604C66.8804 75.7904 67.6176 75.944 68.4162 75.8211C69.2149 75.6983 69.8599 75.3297 70.3514 74.7153C70.8428 74.101 71.0886 73.3638 71.0886 72.5038L70.9043 67.5277L76.4332 61.9988C76.8018 61.6302 77.0475 61.1695 77.1704 60.6166C77.2932 60.0637 77.2625 59.5415 77.0782 59.0501C76.8939 58.5586 76.5868 58.1593 76.1567 57.8521C75.7267 57.545 75.2045 57.3914 74.5902 57.3914ZM73.1158 48.3608C73.3616 48.2379 73.638 48.1765 73.9452 48.1765C74.2523 48.1765 74.4981 48.2687 74.6824 48.4529C74.8666 48.6372 74.9588 48.883 74.9588 49.1901C74.9588 49.4973 74.8359 49.7737 74.5902 50.0195L70.3514 54.4426L70.1671 51.3096L73.1158 48.3608ZM55.7919 31.2211C56.0376 30.9754 56.314 30.8525 56.6212 30.8525C56.9284 30.8525 57.1741 30.9447 57.3584 31.129C57.5427 31.3133 57.6348 31.559 57.6348 31.8662C57.6348 32.1733 57.5734 32.4498 57.4505 32.6955L54.5018 35.6443L51.3687 35.46L55.7919 31.2211ZM44.9183 30.2996C45.164 30.1768 45.4405 30.1154 45.7477 30.1154C46.0548 30.1154 46.3313 30.2075 46.577 30.3918C46.8227 30.5761 46.9456 30.8218 46.9456 31.129C46.9456 31.4362 46.8227 31.7126 46.577 31.9583L43.2596 35.0914H40.3109L44.9183 30.2996ZM32.5704 39.5145C32.2018 39.3917 31.8946 39.1459 31.6489 38.7773C31.4032 38.4087 31.311 38.0094 31.3725 37.5794C31.4339 37.1494 31.6489 36.8115 32.0175 36.5658C32.3861 36.32 32.7547 36.1972 33.1233 36.1972L59.4778 37.4873L52.1059 45.2277L32.5704 39.5145ZM29.9902 58.8658C30.3588 58.62 30.7888 58.4972 31.2803 58.4972L39.3894 59.4186C37.915 61.6302 37.055 63.6575 36.8092 65.5005L30.3588 61.0773C29.9902 60.8316 29.7752 60.4937 29.7138 60.0637C29.6523 59.6337 29.7445 59.2343 29.9902 58.8658ZM41.0481 63.2889C42.5224 61.8145 44.0583 60.7702 45.6555 60.1558C45.0412 61.7531 43.9354 63.3196 42.3381 64.8554C40.7409 66.3912 38.9594 67.712 36.9935 68.8178C38.0993 66.852 39.4508 65.009 41.0481 63.2889ZM46.9456 75.8211C46.577 76.0668 46.1777 76.159 45.7477 76.0976C45.3176 76.0361 44.9797 75.8211 44.734 75.4525L40.3109 69.0021C42.1539 68.7564 44.1811 67.8963 46.3927 66.422L47.3142 74.531C47.3142 75.0225 47.1913 75.4525 46.9456 75.8211ZM49.1572 62.3674C47.1913 64.2104 44.9797 65.6848 42.5224 66.7905L43.6282 65.8691C45.1026 64.2718 46.2084 62.736 46.9456 61.2616C47.1913 60.4016 47.3142 59.7258 47.3142 59.2343C47.437 58.9886 47.4063 58.7736 47.222 58.5893C47.0377 58.405 46.8227 58.3743 46.577 58.4972C46.0855 58.4972 45.4098 58.62 44.5497 58.8658C42.9525 59.6029 41.4167 60.7087 39.9423 62.1831L39.0208 63.2889C40.1266 60.8316 41.601 58.62 43.4439 56.6542L66.1125 32.6955C67.3412 31.344 68.7848 30.3304 70.4435 29.6546C72.1022 28.9789 73.853 28.641 75.696 28.641C76.0646 28.641 76.4025 28.7946 76.7096 29.1017C77.0168 29.4089 77.1704 29.7468 77.1704 30.1154C77.1704 31.9583 76.8325 33.7092 76.1567 35.3678C75.481 37.0265 74.4673 38.4702 73.1158 39.6988L49.1572 62.3674ZM68.3241 74.3467C67.8326 74.4696 67.4026 74.4082 67.034 74.1624C66.6654 73.9167 66.4197 73.6096 66.2968 73.241L60.5836 53.7054L68.3241 46.3335L69.6142 72.6881C69.6142 73.0567 69.4913 73.3945 69.2456 73.7017C68.9998 74.0089 68.6927 74.2239 68.3241 74.3467ZM75.5117 60.893L70.72 65.5005V62.5517L73.853 59.2343C74.0987 58.9886 74.3752 58.8658 74.6824 58.8658C74.9895 58.8658 75.2352 58.9886 75.4195 59.2343C75.6038 59.4801 75.696 59.7565 75.696 60.0637C75.696 60.3709 75.6346 60.6473 75.5117 60.893Z" fill="white"/>
</svg>
