<svg width="40" height="41" viewBox="0 0 40 41" fill="none" xmlns="http://www.w3.org/2000/svg">
<path d="M33.8121 6.31387L33.8138 6.31566C37.4798 10.0544 39.5 15.0327 39.5 20.3361C39.5 31.2622 30.7699 40.1515 20.0804 40.1515C16.8299 40.1515 13.6369 39.3127 10.7956 37.734L10.6187 37.6357L10.4233 37.6881L0.706344 40.293L3.29714 30.592L3.34965 30.3954L3.24992 30.218C1.56313 27.2175 0.660804 23.8168 0.660804 20.3156C0.660804 9.38942 9.3909 0.500122 20.0804 0.500125L20.0822 0.500119C22.6337 0.491053 25.1618 1.00021 27.5189 1.99816C29.8761 2.99611 32.0155 4.46303 33.8121 6.31387ZM11.3772 35.2765L11.3802 35.2783C14.0098 36.8621 17.0134 37.7075 20.0804 37.7075C29.4896 37.7075 37.1434 29.9116 37.103 20.3357C37.1111 18.0517 36.6747 15.7886 35.8189 13.6773C34.963 11.5656 33.7045 9.64753 32.1157 8.03443C28.907 4.74156 24.618 2.92361 20.0603 2.92361C10.6493 2.92361 2.99749 10.7418 2.99749 20.3156L2.99749 20.3159C2.99985 23.5836 3.90275 26.7854 5.60406 29.5562L5.60402 29.5562L5.6076 29.5618L5.89254 30.0123L4.28083 36.0327L4.05691 36.8691L4.89327 36.645L10.9573 35.0195L11.3772 35.2765ZM14.7778 19.4697L14.7814 19.4762L14.7851 19.4826C15.0899 20.0006 16.1064 21.7177 17.6535 23.1249C19.3359 24.6581 20.8235 25.3084 21.5045 25.6061C21.6116 25.6529 21.6988 25.691 21.7636 25.7224C22.0458 25.8711 22.3539 25.9801 22.6743 25.9422C23.0183 25.9015 23.27 25.7064 23.4594 25.4738C23.7447 25.1408 24.6953 23.9868 25.0563 23.4469C25.1169 23.3602 25.16 23.3229 25.1822 23.3075C25.1997 23.2954 25.2082 23.2939 25.2171 23.2929C25.2323 23.2912 25.2663 23.2909 25.3341 23.3064C25.4012 23.3218 25.4804 23.3475 25.5883 23.3855C25.9276 23.5298 27.3365 24.2299 28.2479 24.6827C28.5597 24.8377 28.8133 24.9637 28.946 25.0286C29.0664 25.0876 29.1644 25.1335 29.2484 25.1729C29.3626 25.2264 29.4511 25.2679 29.5353 25.3137C29.618 25.3585 29.6559 25.3875 29.673 25.4034C29.6766 25.4203 29.6826 25.4525 29.6874 25.5049C29.6973 25.614 29.6984 25.7681 29.6826 25.9608C29.651 26.345 29.5548 26.8509 29.358 27.4053L29.3579 27.4052L29.3555 27.4124C29.2099 27.8429 28.7317 28.3337 28.0877 28.756C27.4554 29.1705 26.7864 29.4389 26.4001 29.4968C25.5714 29.6146 24.5739 29.6666 23.4927 29.3115L23.4927 29.3114L23.4854 29.3092C22.7726 29.087 21.8686 28.7863 20.7075 28.2645L20.7039 28.2629C16.0829 26.2295 12.953 21.5745 12.4622 20.8445C12.4395 20.8107 12.4224 20.7853 12.4111 20.769L12.4071 20.7631L12.4028 20.7573L12.399 20.7521C12.2771 20.5864 11.7952 19.9313 11.342 19.0215C10.8805 18.095 10.4698 16.9456 10.4698 15.8056C10.4698 13.6909 11.4539 12.5883 11.9581 12.0234C12 11.9764 12.0387 11.9331 12.0731 11.8933C12.4259 11.5044 12.8037 11.4266 13.0251 11.4266H13.9749C14.0182 11.429 14.0606 11.4295 14.0918 11.4298C14.0954 11.4299 14.0988 11.4299 14.1021 11.43C14.1433 11.4305 14.1719 11.4311 14.1985 11.4332C14.2468 11.4368 14.2731 11.4443 14.295 11.455C14.332 11.4731 14.4732 11.559 14.6514 11.994C15.0489 13.0074 16.0621 15.5306 16.1943 15.8002C16.2411 15.8958 16.2648 15.9692 16.2715 16.0337C16.2773 16.0901 16.2722 16.1575 16.2315 16.2475C16.2197 16.2717 16.2083 16.295 16.1973 16.3175C16.0559 16.6069 15.978 16.7664 15.7981 16.9804C15.706 17.09 15.6167 17.2002 15.5309 17.3061C15.3662 17.5093 15.2144 17.6966 15.0802 17.8335L15.0707 17.8431C14.9498 17.9663 14.7492 18.1707 14.6515 18.4479C14.5361 18.7754 14.5852 19.1189 14.7778 19.4697Z" fill="white" stroke="#EFE6E6"/>
</svg>
