<svg width="402" height="223" viewBox="0 0 402 223" fill="none" xmlns="http://www.w3.org/2000/svg">
<path opacity="0.3" d="M0.00615713 58.4229C3.33879 59.8359 7.39959 59.4219 10.8336 58.5572C14.3344 57.722 17.5935 56.3513 20.8332 54.8556C27.3249 51.8292 33.7974 48.1559 42.6095 45.3176C60.3195 39.5437 75.7949 48.4359 82.31 51.5045C85.2737 52.9131 89.9806 55.2199 93.8928 57.3559C94.7821 57.8436 95.6287 58.308 96.4158 58.7398C89.9911 51.6997 83.2189 48.1679 76.4168 45.4887C68.9435 42.4963 61.2279 40.673 52.2859 34.909C46.3345 31.0161 41.9265 25.913 39.5893 21.0111C37.1581 16.1499 36.837 11.6393 37.2977 8.4725C37.6571 5.29939 39.0504 3.11283 39.9254 1.8374C40.8781 0.538619 41.6238 0.000121164 41.6238 0.000121164C43.4003 6.91406 48.1273 10.5634 52.9947 12.4542C57.9809 14.4257 63.3503 15.094 69.9816 17.4365C76.6274 19.7423 81.6105 24.6225 85.0825 29.7582C88.5837 34.9036 90.4994 40.2178 91.8062 43.1805C92.9711 45.8546 94.6987 50.229 95.9758 53.9645C96.6612 56.0642 97.2715 57.9343 97.6784 59.1808C108.368 60.0691 119.032 61.3247 129.642 62.9891C124.868 57.6873 120.037 54.3244 115.076 51.1706C108.909 47.2056 102.355 43.4442 96.4216 36.0955C88.588 26.0368 88.4692 16.7563 90.1377 11.5716C91.8573 6.20537 94.8699 4.04344 94.8699 4.04344C96.5939 9.97199 100.279 13.5756 104.318 16.3254C108.413 19.1045 112.887 21.0872 117.612 24.3434C122.33 27.5696 124.791 32.4324 126.431 37.4917C128.061 42.5038 128.747 47.5962 129.418 50.4575C130.132 53.6068 131.466 59.4906 132.357 63.4235C134.184 63.7229 136.01 64.0305 137.833 64.3564C140.335 64.3826 143.348 64.6693 145.718 65.3672C146.814 65.7253 147.755 66.0729 148.528 66.4373C150.663 66.8842 152.8 67.3208 154.928 67.8074C159.677 68.9203 164.406 70.1563 169.121 71.4581C164.724 67.3936 160.787 64.4613 156.664 61.7756C153.728 59.8356 150.792 58.0094 147.893 55.9562C144.944 53.8025 142.315 51.9246 139.081 48.3425C135.271 43.9712 133.656 40.592 132.61 37.6299C131.615 34.7129 131.302 32.1694 131.005 29.7925C130.75 27.5887 130.496 25.3899 130.305 23.7394C130.125 22.1749 130.102 21.173 130.102 21.173C135.975 23.6896 140.379 26.0879 145.284 28.2272C147.596 29.3038 150.122 30.4792 152.47 31.5727C153.689 32.1695 154.862 32.7446 155.941 33.2734C157.027 33.792 158.133 34.3276 159.495 35.2322C164.604 38.4997 166.906 43.4323 168.274 48.3437C169.616 53.2409 170.065 58.1643 170.672 60.9791C171.19 63.4752 172.108 67.6129 173.164 71.1674C173.319 71.699 173.476 72.2091 173.631 72.7053C185.714 76.2188 197.622 80.4399 209.208 85.5074C202.99 76.6727 197.466 70.446 191.843 64.4461C185.633 57.777 179.44 51.3577 174.101 42.3511C173.202 40.8326 172.398 39.3589 171.657 37.8634C170.837 36.1635 170.265 34.7461 169.776 33.381C168.803 30.6571 168.232 28.3182 167.849 26.2339C167.101 22.0799 167.09 18.8511 167.162 16.047C167.254 13.2588 167.469 10.9117 167.667 9.23869C167.858 7.57062 168.119 6.58311 168.119 6.58311C173.998 12.1883 178.096 17.0883 182.853 21.5508C185.186 23.7998 187.49 25.9399 189.853 27.9131C192.311 30.0674 194.902 32.5651 197.456 35.4605C202.586 41.2521 204.673 47.7644 205.834 53.8523C206.959 59.9267 207.167 65.5996 207.644 68.9565C208.077 71.9072 208.791 76.831 209.669 81.0054C210.062 82.9986 210.467 84.8093 210.786 86.1773C216.925 88.9115 222.972 91.8881 228.895 95.1468C233.778 97.7931 238.551 100.678 243.243 103.708C236.995 80.8828 225.595 71.3743 216.045 53.0557C209.34 40.3058 208.009 31.0617 208.357 24.689C208.686 18.3601 210.82 15.0188 210.82 15.0188C219.066 29.4543 229.658 34.0253 240.054 48.3616C250.344 62.7532 246.929 79.6159 246.349 86.6905C245.951 91.2799 244.986 100.028 244.486 104.497C254.031 110.756 263.112 117.815 271.575 125.641C272.041 115.617 269.35 107.077 266.405 99.0973C263.028 89.7576 258.522 80.5783 257.205 67.4341C255.555 51.4294 258.94 41.3858 262.394 35.8747C265.884 30.3033 269.457 28.8664 269.457 28.8664C269.06 37.5827 270.915 44.3911 273.343 51.0463C274.614 54.3281 275.995 57.8943 277.29 61.2399C278.684 64.817 279.91 68.7199 281.237 72.2432C283.97 80.1074 284.145 88.0504 283.206 95.1702C282.287 102.26 280.165 108.181 279.081 111.658C278.145 114.788 276.338 119.74 274.573 123.63C274.015 124.877 273.47 125.998 272.977 126.973C279.273 132.91 285.248 139.232 290.744 146.029C293.091 148.95 295.355 151.951 297.54 155.015C296.771 148.38 296.476 142.482 296.221 136.948C295.963 129.626 295.782 122.937 295.83 116.372C295.866 109.845 296.081 103.293 296.737 96.7659C297.314 90.5719 297.966 83.977 299.503 76.5737C301.542 66.727 304.788 58.7667 308.521 52.9984C312.236 47.2005 316.3 43.6516 319.673 41.6768C323.126 39.7202 325.826 39.2168 327.67 39.1823C329.479 39.1256 330.387 39.4415 330.387 39.4415C323.457 46.9226 321.597 55.5604 320.937 63.7696C320.287 72.1446 320.944 80.6051 320.251 91.7048C319.443 103.314 316.018 111.542 312.864 118.973C309.655 126.283 306.33 132.415 304.807 136.428C303.422 139.96 301.317 145.911 300.121 151.407C299.645 153.481 299.292 155.471 299.035 157.146C304.184 164.581 308.826 172.416 312.755 180.661C314.521 184.339 316.162 188.077 317.682 191.871C317.665 191.585 317.646 191.295 317.63 191.011C317.345 185.128 317.304 179.487 317.696 173.822C318.019 168.129 318.682 162.368 320 156.285C321.301 150.189 323.192 143.747 326.394 136.85C329.535 129.966 334.105 123.905 338.877 119.468C343.735 114.93 348.772 111.806 353.52 109.57C363.074 105.13 371.291 104.195 376.115 103.572C380.439 102.966 387.389 102.636 392.825 103.343C398.331 103.951 402 105.475 402 105.475C394.332 105.279 386.56 108.051 380.178 111.596C373.706 115.194 368.19 119.638 363.414 124.518C353.656 134.388 347.655 145.084 341.099 159.688C332.572 179.074 328.639 190.648 325.504 198.345C324.316 201.488 323.284 203.977 322.501 205.845C323.849 210.547 324.959 215.35 325.747 220.288L325.749 220.303C325.921 221.426 325.199 222.485 324.138 222.666C323.076 222.847 322.077 222.083 321.906 220.96L321.878 220.777C321.317 217.102 320.536 213.434 319.603 209.788C319.24 209.562 318.864 209.33 318.526 209.12C317.755 208.818 317.029 208.535 316.341 208.266C314.936 207.675 313.435 207.21 311.848 206.888C310.289 206.549 308.829 206.143 307.24 205.977C301.051 205.07 295.056 205.084 289.176 205.401C277.389 206.039 265.965 207.897 251.854 207.83C233.046 207.777 221.534 203.584 215.13 199.476C208.682 195.256 207.185 191.395 207.185 191.395C228.181 193.658 240.128 185.924 262.06 183.326C284.134 180.522 301.376 192.124 308.313 196.945C311.07 198.723 315.132 201.785 318.224 204.818C315.926 197.13 312.939 189.589 309.523 182.396C308.792 180.834 308.033 179.286 307.251 177.752C304.261 174.903 300.514 172.92 296.541 171.914C290.458 170.253 284.189 170.276 278.037 171.04C271.758 171.77 265.988 173.263 258.576 174.537C252.029 175.602 245.319 176.84 237.63 177.837C217.18 180.703 203.427 178.186 195.959 174.548C192.169 172.757 189.826 170.864 188.426 169.413C187.027 167.981 186.554 167.038 186.554 167.038C198.141 167.728 207.161 165.113 216.033 161.992C224.954 158.841 233.815 154.872 246.159 152.1C249.244 151.416 252.309 150.985 255.269 150.798C256.835 150.698 258.037 150.642 259.274 150.631C260.615 150.595 261.925 150.593 263.292 150.625C268.721 150.731 274.05 151.518 278.741 152.812C288.254 155.437 294.973 160.146 298.595 163.075C298.706 163.158 298.829 163.263 298.943 163.351C295.601 158.155 292.005 153.137 288.19 148.319C284.459 143.64 280.484 139.189 276.35 134.908C265.192 132.237 254.871 133.951 245.499 136.333C234.324 139.184 223.795 143.541 209.434 145.746C201.193 147.015 193.349 147.839 187.011 147.253C180.618 146.735 175.614 145.097 172.154 143.057C168.672 140.999 166.789 138.758 165.856 137.08C164.922 135.403 164.789 134.415 164.789 134.415C169.381 135.868 173.953 135.591 178.062 134.675C182.203 133.758 185.998 132.229 189.788 130.506C193.59 128.78 197.368 126.824 201.729 124.948C203.853 124.004 206.474 123.132 208.605 122.31C210.774 121.5 213.139 120.66 215.675 119.858C225.797 116.582 235.703 116.605 243.968 118.177C252.244 119.704 258.673 122.792 262.462 124.49C264.291 125.253 266.656 126.423 269.075 127.754C259.574 118.894 249.241 111.021 238.332 104.155C234.121 102.227 228.862 102.16 224.106 103.251C218.349 104.614 213.09 107.169 208.115 110.26C205.619 111.777 203.175 113.466 200.632 115.2L196.552 117.931C195.174 118.796 193.804 119.654 192.457 120.499C186.992 123.879 181.037 127.332 173.846 130.268C164.299 134.202 155.458 135.512 148.392 135.002C141.272 134.517 136.039 132.159 132.663 129.871C130.967 128.597 129.693 127.392 128.728 126.312C127.786 125.122 127.151 124.071 126.709 123.209C125.835 121.483 125.708 120.477 125.708 120.477C135.497 124.136 144.046 121.838 151.273 118.18C158.661 114.44 165.255 109.258 174.468 103.409C179.034 100.484 183.935 98.2079 188.297 96.7157C192.603 95.1507 197.488 93.8279 201.842 93.2769C209.653 92.2076 216.251 93.1404 220.545 94.0235C210.813 89.0114 200.773 84.6877 190.525 80.9525C182.03 82.1063 175.455 86.718 169.796 91.8258C163.127 97.8805 156.038 105.711 145.065 111.112C137.765 114.723 131.218 115.971 126.009 115.974C120.775 115.983 116.824 114.804 113.951 113.411C111.377 112.13 109.676 110.691 108.53 109.477C107.236 110.109 105.946 110.62 104.679 110.986C99.8117 112.463 95.6747 111.975 92.8856 110.81C90.0604 109.66 88.4217 107.972 87.457 106.674C86.4986 105.38 86.1814 104.483 86.1814 104.483C92.6206 104.223 96.6577 100.071 99.1562 95.5197C101.713 90.9183 103.465 85.3631 107.123 79.2727C110.187 73.6138 115.916 69.2461 121.493 67.0965C124.058 66.0552 126.566 65.4524 128.832 65.0757C122.352 64.0183 115.849 63.1172 109.327 62.3612C102.355 64.9644 97.8805 70.2132 94.1091 75.7183C89.8395 81.8126 86.0701 88.9747 77.9626 95.2536C72.5673 99.3392 67.1838 101.299 62.7796 101.585C58.4076 102.087 54.9463 100.942 52.4994 99.7958C47.5323 97.0976 46.0328 93.6238 46.0328 93.6238C52.1538 92.7635 56.3516 89.402 59.5571 85.4904C62.8033 81.4825 64.9847 76.8714 68.4589 71.9541C71.8858 67.0275 77.0065 64.1491 82.2995 62.4814C85.8471 61.3518 89.3178 60.9142 92.0919 60.683C90.5989 60.564 89.1068 60.4353 87.613 60.3292C80.4532 60.4953 74.1257 61.7035 68.0502 63.2451C58.4391 65.6907 49.4062 69.0416 37.8357 70.9358C22.4861 73.4903 11.8356 70.9704 5.80983 66.9336C2.82705 64.9338 1.14535 62.7458 0.529912 61.0098C-0.0988492 59.3432 0.00615713 58.4229 0.00615713 58.4229ZM125.688 99.2924C130.92 95.3173 135.471 90.6157 141.467 85.4913C144.464 82.915 147.582 80.9978 150.817 79.5077C154.097 77.9773 157.601 76.8523 160.972 76.1874C165.629 75.2405 169.889 75.2415 173.215 75.4391C173.113 75.3347 173.005 75.2181 172.904 75.1149C166.79 73.2902 160.632 71.6352 154.446 70.1372C151.793 69.5098 149.129 68.9319 146.464 68.3665C144.485 69.015 142.56 70.1252 140.917 71.4661C138 73.8213 135.695 76.8093 133.648 79.9727C131.588 83.1569 129.793 86.541 127.634 90.1421C126.515 91.9742 125.411 93.7738 123.857 95.8248C122.341 97.8314 121.026 99.4057 119.286 101.271C117.978 102.673 116.607 103.944 115.205 105.101C119.155 103.708 122.557 101.652 125.688 99.2924Z" fill="#D0D0D0" fill-opacity="0.57"/>
</svg>
