<svg width="41" height="41" viewBox="0 0 41 41" fill="none" xmlns="http://www.w3.org/2000/svg">
<path d="M11.89 0.5H29.11C35.3939 0.5 40.5 5.60614 40.5 11.89V29.11C40.5 32.1308 39.3 35.0279 37.1639 37.1639C35.0279 39.3 32.1308 40.5 29.11 40.5H11.89C5.60614 40.5 0.5 35.3939 0.5 29.11V11.89C0.5 8.86918 1.70001 5.97209 3.83605 3.83605C5.97209 1.70001 8.86918 0.5 11.89 0.5ZM11.48 3.6C9.39009 3.6 7.38579 4.43021 5.908 5.908C4.43021 7.38579 3.6 9.39009 3.6 11.48V29.52C3.6 33.8756 7.12436 37.4 11.48 37.4H29.52C31.6099 37.4 33.6142 36.5698 35.092 35.092C36.5698 33.6142 37.4 31.6099 37.4 29.52V11.48C37.4 7.12436 33.8756 3.6 29.52 3.6H11.48ZM31.2625 7.675C31.8095 7.675 32.3341 7.8923 32.7209 8.27909C33.1077 8.66588 33.325 9.19049 33.325 9.7375C33.325 10.2845 33.1077 10.8091 32.7209 11.1959C32.3341 11.5827 31.8095 11.8 31.2625 11.8C30.7155 11.8 30.1909 11.5827 29.8041 11.1959C29.4173 10.8091 29.2 10.2845 29.2 9.7375C29.2 9.19049 29.4173 8.66588 29.8041 8.27909C30.1909 7.8923 30.7155 7.675 31.2625 7.675ZM20.5 10.75C23.0859 10.75 25.5658 11.7772 27.3943 13.6057C29.2228 15.4342 30.25 17.9141 30.25 20.5C30.25 23.0859 29.2228 25.5658 27.3943 27.3943C25.5658 29.2228 23.0859 30.25 20.5 30.25C17.9141 30.25 15.4342 29.2228 13.6057 27.3943C11.7772 25.5658 10.75 23.0859 10.75 20.5C10.75 17.9141 11.7772 15.4342 13.6057 13.6057C15.4342 11.7772 17.9141 10.75 20.5 10.75ZM20.5 13.85C18.7363 13.85 17.0449 14.5506 15.7977 15.7977C14.5506 17.0449 13.85 18.7363 13.85 20.5C13.85 22.2637 14.5506 23.9551 15.7977 25.2023C17.0449 26.4494 18.7363 27.15 20.5 27.15C22.2637 27.15 23.9551 26.4494 25.2023 25.2023C26.4494 23.9551 27.15 22.2637 27.15 20.5C27.15 18.7363 26.4494 17.0449 25.2023 15.7977C23.9551 14.5506 22.2637 13.85 20.5 13.85Z" fill="white" stroke="#EFE6E6"/>
</svg>
