<svg width="604" height="100" viewBox="0 0 604 100" fill="none" xmlns="http://www.w3.org/2000/svg">
<path d="M570.928 73.1066C570.928 82.2392 578.331 89.6427 587.464 89.6427C596.597 89.6427 604 82.2392 604 73.1066C604 63.974 596.597 56.5706 587.464 56.5706C578.331 56.5706 570.928 63.974 570.928 73.1066Z" fill="#1B5D82"/>
<path d="M11.3137 73.1066C11.3137 81.2779 17.743 87.902 25.674 87.902C33.6049 87.902 40.0342 81.2779 40.0342 73.1066C40.0342 64.9354 33.6049 58.3112 25.674 58.3112C17.743 58.3112 11.3137 64.9354 11.3137 73.1066Z" fill="#1B5D82"/>
<path d="M-0.000270844 69.6664C-0.000270844 69.5866 -0.000255585 69.5069 0.0169106 69.4272C0.365963 66.9609 1.06981 64.5573 2.11124 62.296C2.50606 61.436 3.52459 61.06 4.38291 61.4474C5.24123 61.8347 5.63033 62.8542 5.2355 63.7086C4.33713 65.6736 3.72483 67.7583 3.42156 69.9056C3.28995 70.8397 2.42025 71.489 1.48181 71.358C0.623493 71.2384 0.00545502 70.5037 0.00545502 69.6664H-0.000270844ZM0.00545502 76.6039C0.00545502 75.7666 0.623486 75.0375 1.47609 74.9122C2.41452 74.7755 3.28423 75.4248 3.42156 76.3589C3.73055 78.5006 4.34859 80.5852 5.25269 82.5503C5.64751 83.4103 5.26986 84.4242 4.40582 84.8172C3.54177 85.2102 2.52317 84.8343 2.12835 83.9742C1.08692 81.713 0.377411 79.3151 0.0226402 76.8488C0.0111923 76.769 0.00545502 76.6836 0.00545502 76.6039ZM5.72187 57.1584C5.72187 56.7597 5.85919 56.3667 6.13958 56.0421C7.77611 54.1567 9.67019 52.5164 11.7702 51.1665C12.5656 50.6538 13.6299 50.8817 14.1449 51.6734C14.6598 52.4651 14.431 53.5245 13.6356 54.0371C11.8103 55.2105 10.1623 56.6344 8.74318 58.2748C8.12519 58.9868 7.03799 59.0665 6.32272 58.4514C5.92789 58.1153 5.7276 57.6369 5.7276 57.1584H5.72187ZM5.75624 89.1004C5.75624 88.622 5.95653 88.1492 6.34563 87.8075C7.0609 87.1866 8.1481 87.2664 8.76609 87.9784C10.1909 89.613 11.8446 91.037 13.6699 92.2046C14.4653 92.7173 14.6999 93.771 14.1849 94.5684C13.67 95.3601 12.6113 95.5936 11.8102 95.081C9.71021 93.7368 7.81047 92.1021 6.17394 90.2168C5.89356 89.8921 5.75051 89.4934 5.75051 89.0947L5.75624 89.1004ZM17.3207 49.7026C17.3207 48.9622 17.8071 48.2844 18.5509 48.0622C20.9371 47.3617 23.4205 47.0028 25.9325 46.9971C26.8824 46.9971 27.6491 47.7604 27.6549 48.7002C27.6549 49.64 26.8881 50.4089 25.9439 50.4089C23.7581 50.4089 21.6009 50.7222 19.5237 51.3316C18.6139 51.5993 17.6583 51.081 17.3893 50.1754C17.3436 50.0159 17.3207 49.8507 17.3207 49.6912V49.7026ZM17.3665 96.5277C17.3665 96.3683 17.3893 96.2088 17.4351 96.0493C17.7041 95.1437 18.6539 94.6253 19.5637 94.8874C21.6409 95.4911 23.7981 95.7987 25.984 95.7987H26.0813C27.0311 95.7987 27.7979 96.5619 27.7979 97.5074C27.7979 98.4529 27.0311 99.2162 26.0813 99.2162H25.984C23.472 99.2162 20.9886 98.863 18.5967 98.1681C17.8471 97.9517 17.3607 97.2682 17.3607 96.5277H17.3665ZM31.1225 49.6742C31.1225 49.5147 31.1454 49.3552 31.1911 49.1957C31.4544 48.2901 32.41 47.7661 33.3198 48.0338C35.7174 48.7287 38.0062 49.7596 40.1177 51.1095C40.9131 51.6164 41.1477 52.6758 40.6384 53.4676C40.1291 54.265 39.0648 54.4928 38.2694 53.9859C36.4383 52.8182 34.4528 51.9183 32.3699 51.3145C31.6203 51.0981 31.1339 50.4146 31.1339 49.6742H31.1225ZM31.2713 96.4993C31.2713 95.7645 31.7519 95.081 32.5015 94.8646C34.5787 94.2494 36.5642 93.3381 38.3896 92.1591C39.185 91.6464 40.2493 91.8686 40.7643 92.6603C41.2793 93.452 41.0504 94.5114 40.2608 95.024C38.1607 96.3796 35.8776 97.4277 33.4857 98.1396C32.5759 98.4073 31.6203 97.8947 31.3514 96.9891C31.3056 96.8239 31.2827 96.6644 31.2827 96.4993H31.2713ZM42.7556 57.0844C42.7556 56.6059 42.9559 56.1332 43.345 55.7971C44.0602 55.1763 45.1417 55.2503 45.7655 55.9623C47.4134 57.8419 48.7753 59.938 49.8224 62.1992C50.223 63.0593 49.8453 64.0731 48.9813 64.4661C48.123 64.8591 47.0987 64.4889 46.7039 63.6288C45.7941 61.6695 44.6096 59.8468 43.179 58.2121C42.8929 57.8875 42.7556 57.4888 42.7556 57.0901V57.0844ZM42.8529 89.0207C42.8529 88.6277 42.9902 88.229 43.2706 87.9043C44.6897 86.2582 45.8685 84.4299 46.7611 82.4648C47.1502 81.6048 48.1687 81.2231 49.0328 81.6162C49.8968 82.0035 50.2802 83.0173 49.8854 83.8774C48.8554 86.1386 47.505 88.2461 45.8685 90.1371C45.2505 90.8547 44.1633 90.9345 43.448 90.3193C43.0532 89.9833 42.8529 89.5048 42.8529 89.0264V89.0207ZM48.5293 69.5639C48.5293 68.7266 49.1415 67.9975 49.9998 67.8779C50.9383 67.7412 51.808 68.3905 51.9454 69.3246C52.3001 71.7624 52.3116 74.3028 51.9682 76.7463C51.8366 77.6804 50.9726 78.3354 50.0285 78.2044C49.09 78.0734 48.4377 77.2076 48.5636 76.2735C48.8611 74.149 48.8554 71.939 48.5464 69.8145C48.535 69.729 48.5293 69.6493 48.5293 69.5639Z" fill="#1B5D82"/>
<path d="M541.763 73.0852H536.023" stroke="#1B5D82" stroke-width="4" stroke-miterlimit="10" stroke-linecap="round"/>
<path d="M524.392 73.0852H88.2215" stroke="#1B5D82" stroke-width="4" stroke-miterlimit="10" stroke-linecap="round" stroke-dasharray="20.26 20.26"/>
<path d="M82.4082 73.0852H76.6683" stroke="#1B5D82" stroke-width="4" stroke-miterlimit="10" stroke-linecap="round"/>
<path d="M307.844 5.24742L311.025 10.0206L311.837 11.2425L316.139 11.1968C316.551 11.1968 316.893 11.4537 316.893 11.7849L316.922 14.2914C316.922 14.6225 316.591 14.8909 316.179 14.8966L314.287 14.9137L317.247 19.3557C319.029 19.3386 320.445 19.527 321.525 19.5727C332.699 20.058 334.202 23.8263 334.202 24.0376C334.202 24.2488 332.705 28.0057 321.624 28.7651C320.544 28.8393 319.128 29.0506 317.352 29.0734L314.484 33.5783L316.377 33.5611C316.789 33.5611 317.131 33.8181 317.131 34.1492L317.16 36.6557C317.16 36.9869 316.829 37.2552 316.417 37.2609L312.116 37.3066L311.118 38.8767L308.25 43.3816L305.853 47.1442C305.522 47.7494 304.982 48.2119 304.292 48.4859C303.636 48.7429 302.91 48.8057 302.248 48.6629C301.662 48.5373 301.169 48.2518 300.85 47.8579C300.588 47.5381 300.455 47.1499 300.449 46.7274C300.449 46.5961 300.461 46.4647 300.484 46.3277C300.484 46.3163 300.484 46.2992 300.49 46.2877L305.058 28.4511C302.446 28.2227 288.556 27.155 288.556 27.155L284.034 34.2577C283.622 35.0057 282.699 35.2397 281.997 35.0913C281.335 34.9486 280.923 34.4975 280.917 33.9437C280.917 33.8752 280.917 33.8009 280.934 33.7267C280.934 33.7153 280.934 33.6982 280.94 33.6867L282.832 26.2929C282.832 26.2929 278.276 25.2138 278.241 25.208C277.893 25.1567 277.637 24.9111 277.632 24.6314C277.632 24.3459 277.875 24.1004 278.229 24.0376C278.27 24.0319 282.763 22.8785 282.763 22.8785L280.749 15.6559C280.749 15.6559 280.743 15.6331 280.737 15.616C280.725 15.5418 280.714 15.4675 280.714 15.399C280.708 14.8395 281.108 14.3827 281.77 14.2286C282.467 14.063 283.395 14.2799 283.825 15.0165L288.463 21.9764C288.463 21.9764 302.359 20.5205 304.965 20.2407L300.014 2.50112C300.014 2.50112 300.008 2.47828 300.002 2.46115C299.973 2.32412 299.961 2.1928 299.961 2.06148C299.961 1.63898 300.083 1.25073 300.333 0.925282C300.641 0.525612 301.128 0.228715 301.714 0.0916857C302.376 -0.0681821 303.102 -0.016796 303.763 0.228715C304.46 0.491355 305.011 0.94241 305.354 1.5362L307.827 5.25313L307.844 5.24742Z" fill="#1B5D82"/>
</svg>
