<svg width="43" height="43" viewBox="0 0 43 43" fill="none" xmlns="http://www.w3.org/2000/svg">
<path fill-rule="evenodd" clip-rule="evenodd" d="M21.5 43C24.3234 43 27.1192 42.4439 29.7277 41.3634C32.3362 40.2829 34.7063 38.6992 36.7028 36.7028C38.6992 34.7063 40.2829 32.3362 41.3634 29.7277C42.4439 27.1192 43 24.3234 43 21.5C43 18.6766 42.4439 15.8808 41.3634 13.2723C40.2829 10.6638 38.6992 8.29366 36.7028 6.2972C34.7063 4.30074 32.3362 2.71707 29.7277 1.63659C27.1192 0.556114 24.3234 -4.20722e-08 21.5 0C15.7978 8.49687e-08 10.3292 2.26517 6.2972 6.2972C2.26517 10.3292 0 15.7978 0 21.5C0 27.2021 2.26517 32.6708 6.2972 36.7028C10.3292 40.7348 15.7978 43 21.5 43ZM18.5927 11.9206L32.0756 19.4121C32.4478 19.6191 32.758 19.9218 32.9739 20.2889C33.1898 20.656 33.3037 21.0741 33.3037 21.5C33.3037 21.9259 33.1898 22.344 32.9739 22.7111C32.758 23.0782 32.4478 23.3809 32.0756 23.5879L18.5927 31.0794C18.1561 31.3221 17.6637 31.4465 17.1643 31.4403C16.6649 31.4341 16.1757 31.2974 15.7453 31.044C15.3149 30.7905 14.9582 30.429 14.7106 29.9953C14.4629 29.5615 14.3329 29.0706 14.3333 28.5711V14.4289C14.3329 13.9294 14.4629 13.4385 14.7106 13.0047C14.9582 12.571 15.3149 12.2095 15.7453 11.956C16.1757 11.7025 16.6649 11.5659 17.1643 11.5597C17.6637 11.5535 18.1561 11.6779 18.5927 11.9206Z" fill="white"/>
</svg>
