<svg width="41" height="41" viewBox="0 0 41 41" fill="none" xmlns="http://www.w3.org/2000/svg">
<path d="M22.05 36.7729V37.3398L22.6125 37.269C25.8393 36.8624 28.8802 35.5335 31.3704 33.4415C33.8607 31.3496 35.6944 28.5835 36.6515 25.4753C37.6087 22.367 37.6487 19.0486 36.7666 15.9182C35.8846 12.7878 34.118 9.97836 31.6789 7.82705C29.2398 5.67575 26.2317 4.27393 23.0156 3.78981C19.7996 3.30569 16.5121 3.75983 13.5478 5.09774C10.5834 6.43565 8.06807 8.6005 6.30355 11.3325C4.53903 14.0645 3.6003 17.2477 3.6 20.5C3.59962 24.6165 5.10177 28.5917 7.82448 31.6792C10.5472 34.7668 14.3032 36.7544 18.3875 37.269L18.95 37.3398V36.7729V24.6V24.1H18.45H14.35C13.9389 24.1 13.5447 23.9367 13.254 23.646C12.9633 23.3553 12.8 22.9611 12.8 22.55C12.8 22.1389 12.9633 21.7447 13.254 21.454C13.5447 21.1633 13.9389 21 14.35 21H18.45H18.95V20.5V16.4C18.95 14.9015 19.5453 13.4644 20.6048 12.4048C21.6644 11.3453 23.1015 10.75 24.6 10.75H25.625C26.0361 10.75 26.4303 10.9133 26.721 11.204C27.0117 11.4947 27.175 11.8889 27.175 12.3C27.175 12.7111 27.0117 13.1053 26.721 13.396C26.4303 13.6867 26.0361 13.85 25.625 13.85H24.6C23.9237 13.85 23.2751 14.1187 22.7969 14.5969C22.3187 15.0751 22.05 15.7237 22.05 16.4V20.5V21H22.55H26.65C27.0611 21 27.4553 21.1633 27.746 21.454C28.0367 21.7447 28.2 22.1389 28.2 22.55C28.2 22.9611 28.0367 23.3553 27.746 23.646C27.4553 23.9367 27.0611 24.1 26.65 24.1H22.55H22.05V24.6V36.7729ZM40.5 20.5C40.5 31.546 31.546 40.5 20.5 40.5C9.45399 40.5 0.5 31.546 0.5 20.5C0.5 9.45399 9.45399 0.5 20.5 0.5C31.546 0.5 40.5 9.45399 40.5 20.5Z" fill="white" stroke="#EFE6E6"/>
</svg>
