<svg width="49" height="57" viewBox="0 0 49 57" fill="none" xmlns="http://www.w3.org/2000/svg">
<path d="M2.2625 31.7264C4.24186 32.8301 6.68796 32.625 8.45337 31.1949L11.1499 29.025L21.894 35.2203L2.35949 56.0821C6.24658 57.3091 10.4315 56.6463 13.5564 54.2874L31.511 40.7757L37.6162 44.2959C41.2474 46.3722 45.5346 46.7753 49.0004 45.3432C48.3943 41.6353 45.8051 38.2013 42.1252 36.214L35.9311 32.8665L38.0109 10.4805C38.3772 6.57778 36.7455 2.66704 33.6619 9.70973e-07L26.1628 27.5699L15.2447 21.671L15.6844 18.2348C15.969 15.992 14.8585 13.7916 12.8791 12.6879L10.6139 11.4269L9.893 19.085C7.35467 18.3694 3.97197 18.199 3.1282 19.7228C2.28443 21.2465 4.19787 24.0352 6.13876 25.8159L0.000301377 30.4518L2.26556 31.7128L2.2625 31.7264Z" fill="#1B5D82"/>
</svg>
