<svg width="260" height="376" viewBox="0 0 260 376" fill="none" xmlns="http://www.w3.org/2000/svg">
<path d="M144.777 376C147.106 366.963 145.148 357.522 143.255 348.39C142.835 346.368 142.402 344.277 142.026 342.237C140.173 332.183 139.663 318.536 147.757 310.62C155.749 302.804 168.158 304.215 179.106 305.462C180.061 305.571 181.008 305.679 181.944 305.78C199.125 307.634 214.264 305.649 226.942 299.877C241.922 293.057 253.468 280.352 257.828 265.892C262.729 249.632 258.085 231.428 246.532 221.624C241.47 217.328 235.35 214.701 229.43 212.161C226.318 210.825 223.099 209.443 220.074 207.836C211.77 203.423 203.047 195.02 203.469 184.667C203.684 179.384 206.243 174.578 208.717 169.929C211.026 165.593 213.413 161.109 213.999 156.149C215.567 142.857 203.22 131.447 190.704 129.132C181.129 127.361 171.339 129.24 161.872 131.056C159.058 131.596 156.148 132.154 153.297 132.605C137.44 135.117 125.512 132.712 117.843 125.459C111.069 119.052 107.34 108.565 106.758 94.2871C106.607 90.5749 106.633 86.7769 106.658 83.1041C106.711 75.4043 106.765 67.4424 105.192 59.7935C101.027 39.5462 85.2315 21.6459 62.939 11.9103C42.9488 3.1806 21.1405 1.56369 0.0501565 9.61672e-05L-0.000338767 0.769079C21.0315 2.32807 42.7801 3.94028 62.6613 12.6227C84.7327 22.2616 100.366 39.9572 104.48 59.9572C106.036 67.5228 105.982 75.4411 105.929 83.0991C105.904 86.7809 105.878 90.5886 106.03 94.3206C106.621 108.813 110.432 119.484 117.358 126.034C125.195 133.447 137.323 135.913 153.405 133.368C156.267 132.915 159.183 132.355 162.002 131.815C171.407 130.009 181.131 128.143 190.578 129.892C202.765 132.146 214.793 143.197 213.276 156.055C212.708 160.864 210.356 165.281 208.083 169.552C205.566 174.279 202.963 179.167 202.741 184.634C202.191 198.126 215.619 206.331 219.747 208.525C222.798 210.146 226.03 211.533 229.156 212.875C235.027 215.394 241.097 218 246.076 222.225C257.398 231.834 261.946 249.695 257.133 265.658C252.837 279.909 241.443 292.436 226.653 299.17C214.091 304.89 199.072 306.855 182.018 305.014C181.083 304.913 180.137 304.805 179.183 304.696C168.081 303.433 155.496 302 147.262 310.055C138.922 318.211 139.422 332.138 141.311 342.385C141.689 344.434 142.123 346.529 142.543 348.555C144.418 357.596 146.356 366.944 144.074 375.797L144.777 376Z" fill="#D0D0D0" fill-opacity="0.5"/>
</svg>
