<svg width="16" height="14" viewBox="0 0 16 14" fill="none" xmlns="http://www.w3.org/2000/svg">
<path d="M1.15118 13.22L15.4998 7.36281C15.6481 7.30264 15.7746 7.20226 15.8635 7.07418C15.9524 6.94609 15.9998 6.79594 15.9998 6.64241C15.9998 6.48887 15.9524 6.33872 15.8635 6.21064C15.7746 6.08255 15.6481 5.98218 15.4998 5.92201L1.15118 0.0648464C1.02694 0.0132396 0.891154 -0.00809966 0.756085 0.00275354C0.621017 0.0136067 0.49091 0.0563108 0.377503 0.127014C0.264096 0.197717 0.170957 0.294194 0.106488 0.407741C0.0420188 0.521288 0.0082482 0.648334 0.0082227 0.777416L0 4.38724C0 4.77877 0.30424 5.11547 0.715376 5.16246L12.3341 6.64241L0.715376 8.11453C0.30424 8.16934 0 8.50605 0 8.89757L0.0082227 12.5074C0.0082227 13.0634 0.608481 13.4471 1.15118 13.22Z" fill="white"/>
</svg>
