<svg width="25" height="26" viewBox="0 0 25 26" fill="none" xmlns="http://www.w3.org/2000/svg">
<path d="M21.3565 3.72846C20.2048 2.54195 18.8329 1.60119 17.321 0.961066C15.809 0.320941 14.1872 -0.00574007 12.5501 7.63225e-05C5.69089 7.63225e-05 0.100502 5.70156 0.100502 12.6971C0.100502 14.9392 0.678385 17.1173 1.75877 19.0392L0 25.6247L6.5954 23.8566C8.41699 24.8688 10.4647 25.4069 12.5501 25.4069C19.4093 25.4069 24.9997 19.7054 24.9997 12.7099C24.9997 9.31463 23.7058 6.12437 21.3565 3.72846ZM12.5501 23.2544C10.6908 23.2544 8.86925 22.7419 7.27379 21.781L6.89691 21.5504L2.97735 22.601L4.02006 18.7061L3.7688 18.3089C2.73583 16.6266 2.18734 14.682 2.18591 12.6971C2.18591 6.88029 6.83409 2.13973 12.5375 2.13973C15.3013 2.13973 17.9018 3.24159 19.849 5.24032C20.8132 6.21913 21.5773 7.38339 22.097 8.66559C22.6167 9.9478 22.8817 11.3225 22.8766 12.7099C22.9018 18.5267 18.2536 23.2544 12.5501 23.2544ZM18.2284 15.3621C17.9144 15.2083 16.3817 14.4396 16.1053 14.3243C15.8164 14.2218 15.6154 14.1705 15.4018 14.478C15.1883 14.7983 14.5978 15.5158 14.422 15.7208C14.2461 15.9386 14.0576 15.9642 13.7436 15.7977C13.4295 15.6439 12.4245 15.298 11.2436 14.2218C10.314 13.3761 9.69839 12.3383 9.50994 12.018C9.33407 11.6977 9.48482 11.5312 9.64813 11.3646C9.78632 11.2237 9.9622 10.993 10.113 10.8137C10.2637 10.6343 10.3265 10.4934 10.427 10.2884C10.5275 10.0706 10.4773 9.89119 10.4019 9.73744C10.3265 9.58369 9.69838 8.02059 9.44713 7.37997C9.19588 6.76498 8.93206 6.84186 8.74362 6.82904H8.14061C7.92705 6.82904 7.60042 6.90592 7.31148 7.22623C7.0351 7.54653 6.23109 8.31527 6.23109 9.87838C6.23109 11.4415 7.34917 12.9533 7.49992 13.1583C7.65067 13.3761 9.69839 16.5792 12.8139 17.9501C13.5551 18.2833 14.133 18.4754 14.5853 18.6164C15.3265 18.8598 16.0048 18.8214 16.545 18.7445C17.1481 18.6548 18.3918 17.9758 18.643 17.2326C18.9068 16.4895 18.9068 15.8617 18.8189 15.7208C18.7309 15.5799 18.5425 15.5158 18.2284 15.3621Z" fill="#1B5D82"/>
</svg>
