<svg width="32" height="75" viewBox="0 0 32 75" fill="none" xmlns="http://www.w3.org/2000/svg">
<path d="M25.2816 41.7031L29.0003 45.4219C29.3336 45.776 29.5888 46.1458 29.7659 46.5312C29.943 46.9167 30.0316 47.3281 30.0316 47.7656C30.0316 48.1615 29.9482 48.5625 29.7816 48.9688C29.6149 49.375 29.3649 49.7448 29.0316 50.0781C28.8857 50.2448 28.7347 50.401 28.5784 50.5469C28.4222 50.6927 28.2711 50.8281 28.1253 50.9531C27.917 51.1615 27.7138 51.3646 27.5159 51.5625C27.318 51.7604 27.1357 51.9635 26.9691 52.1719C26.9691 52.1927 26.9638 52.2031 26.9534 52.2031C26.943 52.2031 26.9378 52.2031 26.9378 52.2031C26.417 52.7656 25.8336 53.1875 25.1878 53.4688C24.542 53.75 23.8232 53.8906 23.0316 53.8906C22.9691 53.8906 22.9013 53.8906 22.8284 53.8906C22.7555 53.8906 22.6774 53.8906 22.5941 53.8906C21.4482 53.8073 20.3701 53.5833 19.3597 53.2188C18.3493 52.8542 17.4482 52.4844 16.6566 52.1094C15.6566 51.6302 14.6774 51.0885 13.7191 50.4844C12.7607 49.901 11.8388 49.2604 10.9534 48.5625C10.068 47.8646 9.21905 47.1198 8.40655 46.3281C7.59405 45.5573 6.82322 44.724 6.09405 43.8281C4.86489 42.3698 3.83364 40.9375 3.0003 39.5312C2.16697 38.125 1.46905 36.6823 0.906553 35.2031C0.69822 34.6198 0.484678 33.8854 0.265928 33C0.0471781 32.1146 -0.0205303 31.1823 0.0628031 30.2031C0.10447 29.599 0.250303 29.0312 0.500303 28.5C0.750303 27.9688 1.09405 27.4948 1.53155 27.0781L3.8128 24.7344C4.16697 24.401 4.53676 24.151 4.92218 23.9844C5.30759 23.8177 5.70864 23.7344 6.1253 23.7344C6.54197 23.7344 6.94301 23.8177 7.32843 23.9844C7.71384 24.151 8.0628 24.401 8.3753 24.7344C8.60447 24.9427 8.82322 25.151 9.03155 25.3594C9.23989 25.5677 9.44822 25.776 9.65655 25.9844C9.76072 26.0885 9.86489 26.1979 9.96905 26.3125C10.0732 26.4271 10.1774 26.5365 10.2816 26.6406L12.1253 28.4844C12.8336 29.1927 13.1878 29.9688 13.1878 30.8125C13.1878 31.6562 12.8336 32.4323 12.1253 33.1406C12.042 33.2448 11.9482 33.3438 11.8441 33.4375C11.7399 33.5312 11.6461 33.6302 11.5628 33.7344C11.3128 33.9844 11.0576 34.2396 10.7972 34.5C10.5368 34.7604 10.2711 35.0156 10.0003 35.2656C10.2086 35.724 10.4586 36.1823 10.7503 36.6406C11.042 37.099 11.3961 37.599 11.8128 38.1406C12.6878 39.2031 13.5836 40.1562 14.5003 41C15.417 41.8438 16.3753 42.5781 17.3753 43.2031C17.4795 43.2656 17.5888 43.3281 17.7034 43.3906C17.818 43.4531 17.9274 43.5156 18.0316 43.5781C18.1149 43.6198 18.2034 43.6615 18.2972 43.7031C18.3909 43.7448 18.4795 43.7865 18.5628 43.8281L20.6878 41.7031C21.042 41.3698 21.4118 41.1146 21.7972 40.9375C22.1826 40.7604 22.5836 40.6719 23.0003 40.6719C23.417 40.6719 23.8232 40.7604 24.2191 40.9375C24.6149 41.1146 24.9691 41.3698 25.2816 41.7031ZM27.7191 48.8281C28.0524 48.474 28.2191 48.1198 28.2191 47.7656C28.2191 47.4115 28.042 47.0573 27.6878 46.7031L23.9691 42.9844C23.8649 42.8594 23.7295 42.7448 23.5628 42.6406C23.3961 42.5365 23.2086 42.4844 23.0003 42.4844C22.792 42.4844 22.5993 42.5417 22.4222 42.6562C22.2451 42.7708 22.0941 42.8802 21.9691 42.9844L19.6566 45.2969C19.5941 45.3594 19.4795 45.4531 19.3128 45.5781C19.1461 45.7031 18.917 45.7656 18.6253 45.7656C18.5211 45.7656 18.417 45.75 18.3128 45.7188C18.2086 45.6875 18.0941 45.651 17.9691 45.6094C17.9482 45.5885 17.9326 45.5729 17.9222 45.5625C17.9118 45.5521 17.8961 45.5469 17.8753 45.5469C17.792 45.4844 17.693 45.4271 17.5784 45.375C17.4638 45.3229 17.3441 45.2656 17.2191 45.2031C17.0941 45.1198 16.9586 45.0417 16.8128 44.9688C16.667 44.8958 16.5211 44.8177 16.3753 44.7344C15.292 44.0469 14.2555 43.2552 13.2659 42.3594C12.2763 41.4635 11.3232 40.4427 10.4066 39.2969L10.3753 39.2656C9.8753 38.6198 9.44822 38.0104 9.09405 37.4375C8.73989 36.8646 8.4378 36.2865 8.1878 35.7031C8.1878 35.7031 8.1878 35.6979 8.1878 35.6875C8.1878 35.6771 8.1878 35.6615 8.1878 35.6406C8.1253 35.4531 8.09405 35.224 8.09405 34.9531C8.09405 34.6823 8.23989 34.401 8.53155 34.1094C8.53155 34.1094 8.53676 34.1094 8.54718 34.1094C8.5576 34.1094 8.5628 34.099 8.5628 34.0781C8.85447 33.8281 9.14093 33.5677 9.42218 33.2969C9.70343 33.026 9.97947 32.7448 10.2503 32.4531C10.3545 32.349 10.4534 32.25 10.5472 32.1562C10.6409 32.0625 10.7399 31.9635 10.8441 31.8594C11.1982 31.5052 11.3753 31.1562 11.3753 30.8125C11.3753 30.4688 11.1982 30.1198 10.8441 29.7656L9.0003 27.9219C8.89614 27.8177 8.78676 27.7083 8.67218 27.5938C8.5576 27.4792 8.44822 27.3698 8.34405 27.2656C8.15655 27.0573 7.95864 26.8542 7.7503 26.6562C7.54197 26.4583 7.34405 26.2552 7.15655 26.0469C7.13572 26.0469 7.1253 26.0469 7.1253 26.0469C7.02114 25.9427 6.88572 25.8385 6.71905 25.7344C6.55239 25.6302 6.35447 25.5781 6.1253 25.5781C5.95864 25.5781 5.78676 25.6146 5.60968 25.6875C5.43259 25.7604 5.27114 25.8802 5.1253 26.0469L2.8128 28.3594C2.52114 28.6302 2.30239 28.9323 2.15655 29.2656C2.01072 29.599 1.91697 29.9635 1.8753 30.3594C1.83364 30.9635 1.87009 31.6094 1.98468 32.2969C2.09926 32.9844 2.3128 33.7448 2.6253 34.5781C3.14614 35.9531 3.80239 37.3021 4.59405 38.625C5.38572 39.9479 6.35447 41.2969 7.5003 42.6719C8.1878 43.5052 8.91697 44.2969 9.6878 45.0469C10.4586 45.7969 11.2607 46.4948 12.0941 47.1406C12.9274 47.7865 13.792 48.3906 14.6878 48.9531C15.5836 49.5156 16.5107 50.026 17.4691 50.4844C18.1566 50.8177 18.9534 51.151 19.8597 51.4844C20.7659 51.8177 21.7191 52.0156 22.7191 52.0781C22.7816 52.0781 22.8388 52.0781 22.8909 52.0781C22.943 52.0781 22.9899 52.0781 23.0316 52.0781C23.5732 52.0781 24.0472 51.9896 24.4534 51.8125C24.8597 51.6354 25.2399 51.3698 25.5941 51.0156C25.8024 50.7656 26.0159 50.526 26.2347 50.2969C26.4534 50.0677 26.667 49.849 26.8753 49.6406C27.0211 49.4948 27.1618 49.3594 27.2972 49.2344C27.4326 49.1094 27.5732 48.974 27.7191 48.8281ZM17.2816 29.5156C17.0316 29.474 16.8388 29.349 16.7034 29.1406C16.568 28.9323 16.5211 28.7031 16.5628 28.4531C16.6045 28.2031 16.7295 28.0052 16.9378 27.8594C17.1461 27.7135 17.3753 27.6615 17.6253 27.7031C18.6878 27.8906 19.6982 28.2344 20.6566 28.7344C21.6149 29.2344 22.4795 29.8698 23.2503 30.6406C24.0211 31.4115 24.6566 32.276 25.1566 33.2344C25.6566 34.1927 26.0003 35.2031 26.1878 36.2656C26.2295 36.5156 26.1774 36.7448 26.0316 36.9531C25.8857 37.1615 25.6878 37.2865 25.4378 37.3281C25.3961 37.3281 25.3649 37.3281 25.3441 37.3281C25.3232 37.3281 25.3024 37.3281 25.2816 37.3281C25.0524 37.3281 24.8545 37.2604 24.6878 37.125C24.5211 36.9896 24.417 36.8073 24.3753 36.5781C24.2295 35.7031 23.9482 34.8698 23.5316 34.0781C23.1149 33.2865 22.5941 32.5677 21.9691 31.9219C21.3232 31.276 20.6045 30.75 19.8128 30.3438C19.0211 29.9375 18.1774 29.6615 17.2816 29.5156ZM31.9691 36.0156C32.0107 36.2656 31.9586 36.4896 31.8128 36.6875C31.667 36.8854 31.4691 37.0052 31.2191 37.0469C31.1982 37.0469 31.1722 37.0469 31.1409 37.0469C31.1097 37.0469 31.0836 37.0469 31.0628 37.0469C30.8545 37.0469 30.6618 36.9792 30.4847 36.8438C30.3076 36.7083 30.1982 36.526 30.1566 36.2969C29.9066 34.7344 29.4118 33.2448 28.6722 31.8281C27.9326 30.4115 27.0003 29.1406 25.8753 28.0156C24.7295 26.8698 23.4534 25.9323 22.0472 25.2031C20.6409 24.474 19.1461 23.974 17.5628 23.7031C17.3128 23.6615 17.1149 23.5365 16.9691 23.3281C16.8232 23.1198 16.7711 22.8906 16.8128 22.6406C16.8545 22.3906 16.9795 22.1927 17.1878 22.0469C17.3961 21.901 17.6253 21.849 17.8753 21.8906C18.7503 22.0573 19.6045 22.276 20.4378 22.5469C21.2711 22.8385 22.0784 23.1823 22.8597 23.5781C23.6409 23.974 24.3961 24.4427 25.1253 24.9844C25.8336 25.5052 26.5107 26.0885 27.1566 26.7344C27.7816 27.3594 28.3649 28.0365 28.9066 28.7656C29.4274 29.474 29.8909 30.2188 30.2972 31C30.7034 31.7812 31.042 32.5885 31.3128 33.4219C31.6045 34.2552 31.8232 35.1198 31.9691 36.0156Z" fill="#1B5D82"/>
</svg>
