<svg width="19" height="19" viewBox="0 0 19 19" fill="none" xmlns="http://www.w3.org/2000/svg">
<path d="M17.4167 0H1.58333C1.16341 0 0.76068 0.166815 0.463748 0.463748C0.166815 0.76068 0 1.16341 0 1.58333V17.4167C0 17.8366 0.166815 18.2393 0.463748 18.5363C0.76068 18.8332 1.16341 19 1.58333 19H17.4167C17.8366 19 18.2393 18.8332 18.5363 18.5363C18.8332 18.2393 19 17.8366 19 17.4167V1.58333C19 1.16341 18.8332 0.76068 18.5363 0.463748C18.2393 0.166815 17.8366 0 17.4167 0ZM15.0417 10.2917H10.2917V15.0417C10.2917 15.2516 10.2083 15.453 10.0598 15.6015C9.91133 15.7499 9.70996 15.8333 9.5 15.8333C9.29004 15.8333 9.08867 15.7499 8.94021 15.6015C8.79174 15.453 8.70833 15.2516 8.70833 15.0417V10.2917H3.95833C3.74837 10.2917 3.54701 10.2083 3.39854 10.0598C3.25007 9.91133 3.16667 9.70996 3.16667 9.5C3.16667 9.29004 3.25007 9.08867 3.39854 8.94021C3.54701 8.79174 3.74837 8.70833 3.95833 8.70833H8.70833V3.95833C8.70833 3.74837 8.79174 3.54701 8.94021 3.39854C9.08867 3.25007 9.29004 3.16667 9.5 3.16667C9.70996 3.16667 9.91133 3.25007 10.0598 3.39854C10.2083 3.54701 10.2917 3.74837 10.2917 3.95833V8.70833H15.0417C15.2516 8.70833 15.453 8.79174 15.6015 8.94021C15.7499 9.08867 15.8333 9.29004 15.8333 9.5C15.8333 9.70996 15.7499 9.91133 15.6015 10.0598C15.453 10.2083 15.2516 10.2917 15.0417 10.2917Z" fill="black"/>
</svg>
