<svg width="32" height="75" viewBox="0 0 32 75" fill="none" xmlns="http://www.w3.org/2000/svg">
<g clip-path="url(#clip0_1_2217)">
<path d="M29.0312 26.2656H3C2.16667 26.2656 1.45833 26.5573 0.875 27.1406C0.291667 27.724 0 28.4323 0 29.2656V47.2969C0 48.1302 0.291667 48.8385 0.875 49.4219C1.45833 50.0052 2.16667 50.2969 3 50.2969H29.0312C29.8646 50.2969 30.5729 50.0052 31.1562 49.4219C31.7396 48.8385 32.0312 48.1302 32.0312 47.2969V29.2656C32.0312 28.4323 31.7396 27.724 31.1562 27.1406C30.5729 26.5573 29.8646 26.2656 29.0312 26.2656ZM3 28.2656H29.0312C29.3021 28.2656 29.5365 28.3646 29.7344 28.5625C29.9323 28.7604 30.0312 28.9948 30.0312 29.2656V31.8594C29.3438 32.4427 28.3646 33.25 27.0938 34.2812C25.8229 35.3125 23.6562 37.0365 20.5938 39.4531C20.0729 39.8698 19.3594 40.4479 18.4531 41.1875C17.5469 41.9271 16.7396 42.2969 16.0312 42.2969C15.3021 42.2969 14.4844 41.9271 13.5781 41.1875C12.6719 40.4479 11.9583 39.8698 11.4375 39.4531C8.375 37.0365 6.20833 35.3125 4.9375 34.2812C3.66667 33.25 2.6875 32.4427 2 31.8594V29.2656C2 28.9948 2.09896 28.7604 2.29688 28.5625C2.49479 28.3646 2.72917 28.2656 3 28.2656ZM29.0312 48.2969H3C2.72917 48.2969 2.49479 48.1979 2.29688 48C2.09896 47.8021 2 47.5677 2 47.2969V34.4531C2.70833 35.0365 3.6875 35.8281 4.9375 36.8281C6.1875 37.8281 7.9375 39.224 10.1875 41.0156C10.8125 41.5365 11.6562 42.2135 12.7188 43.0469C13.7812 43.8802 14.8854 44.2969 16.0312 44.2969C17.1562 44.2969 18.2448 43.8802 19.2969 43.0469C20.349 42.2135 21.1979 41.5365 21.8438 41.0156C24.0938 39.224 25.8438 37.8281 27.0938 36.8281C28.3438 35.8281 29.3229 35.0365 30.0312 34.4531V47.2969C30.0312 47.5677 29.9323 47.8021 29.7344 48C29.5365 48.1979 29.3021 48.2969 29.0312 48.2969Z" fill="#1B5D82"/>
</g>
<defs>
<clipPath id="clip0_1_2217">
<rect width="32" height="75" fill="white" transform="matrix(1 0 0 -1 0 75)"/>
</clipPath>
</defs>
</svg>
