<svg width="26" height="26" viewBox="0 0 26 26" fill="none" xmlns="http://www.w3.org/2000/svg">
<path d="M7.53998 0H18.46C22.6199 0 25.9999 3.37999 25.9999 7.53998V18.46C25.9999 20.4597 25.2056 22.3775 23.7915 23.7915C22.3775 25.2056 20.4597 25.9999 18.46 25.9999H7.53998C3.37999 25.9999 0 22.6199 0 18.46V7.53998C0 5.54026 0.794389 3.62243 2.20841 2.20841C3.62243 0.794389 5.54026 0 7.53998 0ZM7.27998 2.59999C6.03877 2.59999 4.8484 3.09306 3.97073 3.97073C3.09306 4.8484 2.59999 6.03877 2.59999 7.27998V18.72C2.59999 21.307 4.69299 23.3999 7.27998 23.3999H18.72C19.9612 23.3999 21.1515 22.9069 22.0292 22.0292C22.9069 21.1515 23.3999 19.9612 23.3999 18.72V7.27998C23.3999 4.69299 21.307 2.59999 18.72 2.59999H7.27998ZM19.825 4.54999C20.2559 4.54999 20.6693 4.72119 20.974 5.02594C21.2787 5.33069 21.45 5.74401 21.45 6.17499C21.45 6.60596 21.2787 7.01929 20.974 7.32403C20.6693 7.62878 20.2559 7.79998 19.825 7.79998C19.394 7.79998 18.9807 7.62878 18.6759 7.32403C18.3712 7.01929 18.2 6.60596 18.2 6.17499C18.2 5.74401 18.3712 5.33069 18.6759 5.02594C18.9807 4.72119 19.394 4.54999 19.825 4.54999ZM13 6.49999C14.7239 6.49999 16.3772 7.1848 17.5962 8.40379C18.8151 9.62277 19.5 11.2761 19.5 13C19.5 14.7239 18.8151 16.3772 17.5962 17.5962C16.3772 18.8151 14.7239 19.5 13 19.5C11.2761 19.5 9.62277 18.8151 8.40379 17.5962C7.1848 16.3772 6.49999 14.7239 6.49999 13C6.49999 11.2761 7.1848 9.62277 8.40379 8.40379C9.62277 7.1848 11.2761 6.49999 13 6.49999ZM13 9.09998C11.9656 9.09998 10.9736 9.51087 10.2423 10.2423C9.51087 10.9736 9.09998 11.9656 9.09998 13C9.09998 14.0343 9.51087 15.0263 10.2423 15.7577C10.9736 16.4891 11.9656 16.9 13 16.9C14.0343 16.9 15.0263 16.4891 15.7577 15.7577C16.4891 15.0263 16.9 14.0343 16.9 13C16.9 11.9656 16.4891 10.9736 15.7577 10.2423C15.0263 9.51087 14.0343 9.09998 13 9.09998Z" fill="#1B5D82"/>
</svg>
