<svg width="17" height="17" viewBox="0 0 17 17" fill="none" xmlns="http://www.w3.org/2000/svg">
<path d="M8.5 0C13.1956 0 17 3.80444 17 8.5C17 13.1956 13.1956 17 8.5 17C3.80444 17 0 13.1956 0 8.5C0 3.80444 3.80444 0 8.5 0ZM4.52419 10.0081H8.5V12.4415C8.5 12.8185 8.94556 12.9899 9.18548 12.75L13.0927 8.80847C13.2641 8.6371 13.2641 8.39718 13.0927 8.22581L9.18548 4.28427C8.91129 4.01008 8.5 4.21573 8.5 4.59274V6.99194H4.52419C4.28427 6.99194 4.1129 7.19758 4.1129 7.40323V9.59677C4.1129 9.83669 4.28427 10.0081 4.52419 10.0081Z" fill="#1B5D82"/>
</svg>
