<svg width="45" height="45" viewBox="0 0 45 45" fill="none" xmlns="http://www.w3.org/2000/svg">
<path fill-rule="evenodd" clip-rule="evenodd" d="M33.0966 44.9936C29.8518 44.8742 20.6559 43.6033 11.0251 33.9747C1.3965 24.3439 0.127859 15.1503 0.00617867 11.9032C-0.174089 6.95483 3.61604 2.14844 7.9943 0.271402C8.52153 0.0437397 9.09889 -0.0429384 9.66973 0.0198736C10.2406 0.0826857 10.7853 0.29283 11.2504 0.629685C14.8557 3.25709 17.3434 7.232 19.4796 10.3574C19.9496 11.0441 20.1506 11.8796 20.0442 12.7049C19.9378 13.5302 19.5315 14.2875 18.9028 14.8325L14.5065 18.0976C14.2941 18.251 14.1446 18.4763 14.0857 18.7316C14.0269 18.9868 14.0627 19.2548 14.1865 19.4857C15.1825 21.2951 16.9536 23.9901 18.9816 26.0182C21.0096 28.0462 23.8331 29.9345 25.7687 31.0431C26.0114 31.1794 26.2971 31.2174 26.567 31.1495C26.8369 31.0817 27.0705 30.9129 27.2199 30.6781L30.0816 26.3224C30.6077 25.6235 31.3839 25.1553 32.2475 25.0158C33.1111 24.8764 33.9951 25.0765 34.7145 25.5742C37.885 27.769 41.585 30.2139 44.2935 33.6818C44.6577 34.1503 44.8894 34.708 44.9643 35.2966C45.0392 35.8853 44.9546 36.4832 44.7194 37.028C42.8333 41.4288 38.0607 45.1761 33.0966 44.9936Z" fill="#1B5D82"/>
</svg>
