<svg width="21" height="21" viewBox="0 0 21 21" fill="none" xmlns="http://www.w3.org/2000/svg">
<path d="M8.94271 13.2494C8.88321 13.4117 8.82942 13.5768 8.78134 13.7444C8.21355 13.7181 7.65346 13.5902 7.12961 13.3658C6.49548 13.0942 5.92817 12.6877 5.46707 12.1747C5.42883 12.1258 5.41013 12.0643 5.41478 12.0021C5.41961 11.9376 5.44925 11.8775 5.49747 11.8344C5.54569 11.7913 5.60873 11.7686 5.67335 11.771C5.73585 11.7733 5.79513 11.7989 5.83957 11.8427C6.60676 12.6938 7.71194 13.2331 8.94271 13.2494ZM16.0421 4.24003C16.9383 5.56593 17.441 7.11622 17.4951 8.71183C17.3288 8.6709 17.1606 8.63564 16.9903 8.60605C16.9192 7.16191 16.4578 5.7613 15.6518 4.55501C14.7727 3.23938 13.5233 2.21397 12.0615 1.60846C10.5997 1.00294 8.99113 0.844507 7.43928 1.1532C5.88743 1.46189 4.46196 2.22384 3.34315 3.34269C2.22433 4.46153 1.4624 5.88703 1.15372 7.43892C0.845042 8.9908 1.00347 10.5994 1.60897 12.0612C2.21447 13.5231 3.23984 14.7725 4.55544 15.6516C5.7614 16.4574 7.16157 16.9188 8.6053 16.9901C8.63465 17.1599 8.67004 17.3284 8.71139 17.4956C7.23998 17.4456 5.80269 17.014 4.54277 16.2381C3.09827 15.3485 1.95301 14.0469 1.25434 12.501C0.555667 10.9551 0.335559 9.23541 0.622334 7.56333C0.909109 5.89124 1.68965 4.34322 2.86352 3.11845C4.03738 1.89369 5.55087 1.0482 7.20924 0.690787C8.86761 0.333373 10.595 0.480382 12.1691 1.1129C13.7432 1.74541 15.0921 2.8345 16.0421 4.24003ZM19.6339 14.866L19.2803 15.2195L19.6339 14.866C19.3995 14.6315 19.0815 14.4998 18.75 14.4998H17V12.7498C17 12.4183 16.8683 12.1003 16.6339 11.8659C16.3995 11.6315 16.0815 11.4998 15.75 11.4998C15.4185 11.4998 15.1005 11.6315 14.8661 11.8659C14.6317 12.1003 14.5 12.4183 14.5 12.7498V14.4998H12.75C12.4185 14.4998 12.1005 14.6315 11.8661 14.866C11.6317 15.1004 11.5 15.4183 11.5 15.7499C11.5 16.0814 11.6317 16.3993 11.8661 16.6338C12.1005 16.8682 12.4185 16.9999 12.75 16.9999H14.5V18.7499C14.5 19.0815 14.6317 19.3994 14.8661 19.6338C15.1005 19.8683 15.4185 20 15.75 20C16.0815 20 16.3995 19.8683 16.6339 19.6338C16.8683 19.3994 17 19.0815 17 18.7499V16.9999H18.75C19.0815 16.9999 19.3995 16.8682 19.6339 16.6338L19.2803 16.2802L19.6339 16.6338C19.8683 16.3993 20 16.0814 20 15.7499C20 15.4183 19.8683 15.1004 19.6339 14.866ZM7 7.49964C7 7.66541 6.93415 7.82439 6.81694 7.94161C6.69973 8.05882 6.54076 8.12467 6.375 8.12467C6.20925 8.12467 6.05028 8.05882 5.93307 7.94161C5.81586 7.82439 5.75 7.66541 5.75 7.49964C5.75 7.33386 5.81586 7.17488 5.93307 7.05767C6.05028 6.94045 6.20925 6.87461 6.375 6.87461C6.54076 6.87461 6.69973 6.94045 6.81694 7.05767C6.93415 7.17488 7 7.33386 7 7.49964ZM12.0669 7.94161C11.9497 8.05882 11.7908 8.12467 11.625 8.12467C11.4592 8.12467 11.3003 8.05882 11.1831 7.94161C11.0659 7.82439 11 7.66541 11 7.49964C11 7.33387 11.0659 7.17488 11.1831 7.05767C11.3003 6.94045 11.4592 6.87461 11.625 6.87461C11.7908 6.87461 11.9497 6.94045 12.0669 7.05767C12.1842 7.17488 12.25 7.33387 12.25 7.49964C12.25 7.66541 12.1842 7.82439 12.0669 7.94161ZM20.5 15.7499C20.5 17.0097 19.9996 18.2179 19.1088 19.1087C18.218 19.9995 17.0098 20.5 15.75 20.5C14.4902 20.5 13.282 19.9995 12.3913 19.1087C11.5005 18.2179 11 17.0097 11 15.7499C11 14.49 11.5005 13.2818 12.3913 12.391C13.282 11.5002 14.4902 10.9997 15.75 10.9997C17.0098 10.9997 18.218 11.5002 19.1088 12.391C19.9996 13.2818 20.5 14.49 20.5 15.7499Z" fill="#6C7479" stroke="#6C7479"/>
</svg>
