<svg width="26" height="26" viewBox="0 0 26 26" fill="none" xmlns="http://www.w3.org/2000/svg">
<path fill-rule="evenodd" clip-rule="evenodd" d="M2.59999 13C2.60018 10.9986 3.17786 9.03972 4.26371 7.35848C5.34957 5.67725 6.89747 4.34504 8.72169 3.52171C10.5459 2.69838 12.5689 2.41891 14.5481 2.71683C16.5272 3.01475 18.3783 3.8774 19.8793 5.20128C21.3803 6.52516 22.4674 8.25402 23.0102 10.1804C23.553 12.1068 23.5284 14.1489 22.9394 16.0617C22.3503 17.9745 21.2219 19.6766 19.6895 20.964C18.157 22.2513 16.2857 23.0692 14.3 23.3193V15.6H16.9C17.2447 15.6 17.5754 15.463 17.8192 15.2192C18.063 14.9754 18.2 14.6447 18.2 14.3C18.2 13.9552 18.063 13.6245 17.8192 13.3807C17.5754 13.1369 17.2447 13 16.9 13H14.3V10.4C14.3 10.0552 14.4369 9.72454 14.6807 9.48074C14.9245 9.23694 15.2552 9.09998 15.6 9.09998H16.25C16.5947 9.09998 16.9254 8.96302 17.1692 8.71922C17.413 8.47542 17.55 8.14476 17.55 7.79998C17.55 7.4552 17.413 7.12454 17.1692 6.88075C16.9254 6.63695 16.5947 6.49999 16.25 6.49999H15.6C14.5656 6.49999 13.5736 6.91088 12.8423 7.64227C12.1109 8.37366 11.7 9.36564 11.7 10.4V13H9.09998C8.7552 13 8.42454 13.1369 8.18074 13.3807C7.93695 13.6245 7.79998 13.9552 7.79998 14.3C7.79998 14.6447 7.93695 14.9754 8.18074 15.2192C8.42454 15.463 8.7552 15.6 9.09998 15.6H11.7V23.3193C9.18658 23.0027 6.87518 21.7795 5.19967 19.8795C3.52416 17.9795 2.59976 15.5332 2.59999 13ZM13 25.9999C20.1799 25.9999 25.9999 20.1799 25.9999 13C25.9999 5.82009 20.1799 0 13 0C5.82009 0 0 5.82009 0 13C0 20.1799 5.82009 25.9999 13 25.9999Z" fill="#1B5D82"/>
</svg>
